STARTFONT 2.1
FONT -FontForge-Source Sans Pro-Book-I-Normal-SansPro--18-180-72-72-P-77-ISO10646-1
SIZE 18 72 72
FONTBOUNDINGBOX 24 24 -4 -6
COMMENT "Generated by fontforge, http://fontforge.sourceforge.net"
COMMENT "Copyright 2010, 2012, 2014 Adobe Systems Incorporated (http://www.adobe.com/), with Reserved Font Name `Source'."
STARTPROPERTIES 41
FOUNDRY "FontForge"
FAMILY_NAME "Source Sans Pro"
WEIGHT_NAME "Book"
SLANT "I"
SETWIDTH_NAME "Normal"
ADD_STYLE_NAME "SansPro"
PIXEL_SIZE 18
POINT_SIZE 180
RESOLUTION_X 72
RESOLUTION_Y 72
SPACING "P"
AVERAGE_WIDTH 77
CHARSET_REGISTRY "ISO10646"
CHARSET_ENCODING "1"
FONTNAME_REGISTRY ""
CHARSET_COLLECTIONS "ISO8859-2 ISO8859-9 ISO8859-4 ISO10646-1"
FONT_NAME "SourceSansPro-Italic"
FACE_NAME "Source Sans Pro Italic"
COPYRIGHT "Copyright 2010, 2012, 2014 Adobe Systems Incorporated (http://www.adobe.com/), with Reserved Font Name `Source'."
FONT_VERSION "1.076;PS 2.000;hotconv 1.0.86;makeotf.lib2.5.63406"
FONT_ASCENT 13
FONT_DESCENT 5
UNDERLINE_POSITION -2
UNDERLINE_THICKNESS 1
X_HEIGHT 8
CAP_HEIGHT 11
RAW_ASCENT 750
RAW_DESCENT 250
ITALIC_ANGLE 5056
NORM_SPACE 3
RELATIVE_WEIGHT 40
RELATIVE_SETWIDTH 50
SUPERSCRIPT_X 1
SUPERSCRIPT_Y 6
SUPERSCRIPT_SIZE 10
SUBSCRIPT_X 0
SUBSCRIPT_Y 1
SUBSCRIPT_SIZE 10
FIGURE_WIDTH 9
AVG_LOWERCASE_WIDTH 85
AVG_UPPERCASE_WIDTH 97
ENDPROPERTIES
CHARS 856
STARTCHAR space
ENCODING 32
SWIDTH 192 0
DWIDTH 3 0
BBX 1 1 0 0
BITMAP
00
ENDCHAR
STARTCHAR exclam
ENCODING 33
SWIDTH 282 0
DWIDTH 5 0
BBX 4 12 1 0
BITMAP
30
20
20
20
20
40
40
40
00
00
C0
C0
ENDCHAR
STARTCHAR quotedbl
ENCODING 34
SWIDTH 408 0
DWIDTH 7 0
BBX 5 4 2 8
BITMAP
48
48
48
90
ENDCHAR
STARTCHAR numbersign
ENCODING 35
SWIDTH 479 0
DWIDTH 9 0
BBX 9 11 0 0
BITMAP
0900
0900
1100
3F80
1200
2400
7F00
A400
4400
4800
4800
ENDCHAR
STARTCHAR dollar
ENCODING 36
SWIDTH 480 0
DWIDTH 9 0
BBX 8 16 0 -2
BITMAP
02
04
0E
11
20
30
30
1C
06
06
02
02
C6
3C
10
10
ENDCHAR
STARTCHAR percent
ENCODING 37
SWIDTH 791 0
DWIDTH 14 0
BBX 13 12 1 0
BITMAP
3820
4840
C480
8C80
8900
8A70
7490
0518
0910
1110
2130
60E0
ENDCHAR
STARTCHAR ampersand
ENCODING 38
SWIDTH 582 0
DWIDTH 10 0
BBX 10 12 0 0
BITMAP
0E00
1900
1100
1200
1600
1800
3840
4C80
C580
C300
4780
7880
ENDCHAR
STARTCHAR quotesingle
ENCODING 39
SWIDTH 242 0
DWIDTH 4 0
BBX 2 4 2 8
BITMAP
40
40
40
80
ENDCHAR
STARTCHAR parenleft
ENCODING 40
SWIDTH 291 0
DWIDTH 5 0
BBX 5 16 1 -3
BITMAP
08
10
10
20
60
40
40
C0
80
80
80
80
80
C0
40
40
ENDCHAR
STARTCHAR parenright
ENCODING 41
SWIDTH 293 0
DWIDTH 5 0
BBX 5 16 -1 -3
BITMAP
10
08
08
08
08
08
08
08
08
18
10
10
20
20
40
80
ENDCHAR
STARTCHAR asterisk
ENCODING 42
SWIDTH 403 0
DWIDTH 7 0
BBX 5 5 2 8
BITMAP
10
A0
78
70
50
ENDCHAR
STARTCHAR plus
ENCODING 43
SWIDTH 480 0
DWIDTH 9 0
BBX 7 9 1 1
BITMAP
10
10
10
10
FE
10
10
10
10
ENDCHAR
STARTCHAR comma
ENCODING 44
SWIDTH 242 0
DWIDTH 4 0
BBX 4 5 -1 -3
BITMAP
20
70
20
60
C0
ENDCHAR
STARTCHAR hyphen
ENCODING 45
SWIDTH 299 0
DWIDTH 5 0
BBX 4 1 1 4
BITMAP
F0
ENDCHAR
STARTCHAR period
ENCODING 46
SWIDTH 242 0
DWIDTH 4 0
BBX 2 2 0 0
BITMAP
40
C0
ENDCHAR
STARTCHAR slash
ENCODING 47
SWIDTH 340 0
DWIDTH 6 0
BBX 9 16 -1 -3
BITMAP
0180
0100
0200
0200
0400
0400
0800
0800
1000
1000
2000
2000
4000
4000
8000
8000
ENDCHAR
STARTCHAR zero
ENCODING 48
SWIDTH 480 0
DWIDTH 9 0
BBX 7 11 1 0
BITMAP
1C
26
42
42
82
82
82
86
84
C8
70
ENDCHAR
STARTCHAR one
ENCODING 49
SWIDTH 480 0
DWIDTH 9 0
BBX 7 11 0 0
BITMAP
06
1C
04
04
0C
0C
08
08
08
18
FE
ENDCHAR
STARTCHAR two
ENCODING 50
SWIDTH 480 0
DWIDTH 9 0
BBX 8 11 0 0
BITMAP
1E
23
01
01
03
02
04
18
30
60
FE
ENDCHAR
STARTCHAR three
ENCODING 51
SWIDTH 480 0
DWIDTH 9 0
BBX 8 11 0 0
BITMAP
1E
23
01
01
02
1C
06
03
82
C6
7C
ENDCHAR
STARTCHAR four
ENCODING 52
SWIDTH 480 0
DWIDTH 9 0
BBX 8 11 0 0
BITMAP
03
07
0E
1A
12
22
46
FF
04
04
0C
ENDCHAR
STARTCHAR five
ENCODING 53
SWIDTH 480 0
DWIDTH 9 0
BBX 8 11 0 0
BITMAP
1F
10
30
20
3E
42
03
03
82
C6
78
ENDCHAR
STARTCHAR six
ENCODING 54
SWIDTH 480 0
DWIDTH 9 0
BBX 8 11 1 0
BITMAP
1E
33
60
40
FC
C6
86
82
86
CC
78
ENDCHAR
STARTCHAR seven
ENCODING 55
SWIDTH 480 0
DWIDTH 9 0
BBX 7 11 2 0
BITMAP
FE
04
08
18
10
20
20
60
40
40
C0
ENDCHAR
STARTCHAR eight
ENCODING 56
SWIDTH 480 0
DWIDTH 9 0
BBX 7 11 1 0
BITMAP
1C
22
62
22
3E
78
C4
86
86
C4
78
ENDCHAR
STARTCHAR nine
ENCODING 57
SWIDTH 480 0
DWIDTH 9 0
BBX 8 11 0 0
BITMAP
1E
33
21
61
61
23
3D
02
02
44
F8
ENDCHAR
STARTCHAR colon
ENCODING 58
SWIDTH 242 0
DWIDTH 4 0
BBX 4 9 0 0
BITMAP
30
20
00
00
00
00
00
40
C0
ENDCHAR
STARTCHAR semicolon
ENCODING 59
SWIDTH 242 0
DWIDTH 4 0
BBX 5 12 -1 -3
BITMAP
18
10
00
00
00
00
00
20
70
20
60
C0
ENDCHAR
STARTCHAR less
ENCODING 60
SWIDTH 480 0
DWIDTH 9 0
BBX 7 7 1 2
BITMAP
02
0C
70
80
70
1C
02
ENDCHAR
STARTCHAR equal
ENCODING 61
SWIDTH 480 0
DWIDTH 9 0
BBX 7 5 1 3
BITMAP
FE
00
00
00
FE
ENDCHAR
STARTCHAR greater
ENCODING 62
SWIDTH 480 0
DWIDTH 9 0
BBX 7 7 1 2
BITMAP
80
70
1C
02
1C
70
80
ENDCHAR
STARTCHAR question
ENCODING 63
SWIDTH 409 0
DWIDTH 7 0
BBX 6 12 2 0
BITMAP
78
88
0C
08
18
30
60
40
40
00
C0
C0
ENDCHAR
STARTCHAR at
ENCODING 64
SWIDTH 814 0
DWIDTH 15 0
BBX 13 14 1 -3
BITMAP
07C0
1830
3010
6788
4C88
8888
9888
9118
8990
8EE0
8000
4000
6100
1F00
ENDCHAR
STARTCHAR A
ENCODING 65
SWIDTH 510 0
DWIDTH 9 0
BBX 9 12 -1 0
BITMAP
0300
0300
0500
0500
0980
0980
1080
3F80
2080
6080
4080
C080
ENDCHAR
STARTCHAR B
ENCODING 66
SWIDTH 583 0
DWIDTH 11 0
BBX 9 12 1 0
BITMAP
3F00
2180
6180
6180
4300
7E00
4300
4100
C100
C100
8300
FC00
ENDCHAR
STARTCHAR C
ENCODING 67
SWIDTH 550 0
DWIDTH 10 0
BBX 9 12 1 0
BITMAP
0F00
3180
2000
4000
4000
C000
C000
8000
C000
C000
6200
3F00
ENDCHAR
STARTCHAR D
ENCODING 68
SWIDTH 592 0
DWIDTH 11 0
BBX 9 12 1 0
BITMAP
3E00
2300
6180
6080
4080
4080
4080
4180
C100
C300
8600
F800
ENDCHAR
STARTCHAR E
ENCODING 69
SWIDTH 503 0
DWIDTH 9 0
BBX 9 12 1 0
BITMAP
3F80
2000
6000
6000
4000
7E00
4000
4000
C000
C000
8000
FE00
ENDCHAR
STARTCHAR F
ENCODING 70
SWIDTH 473 0
DWIDTH 9 0
BBX 9 12 1 0
BITMAP
3F80
2000
6000
6000
6000
4000
7E00
4000
C000
C000
8000
8000
ENDCHAR
STARTCHAR G
ENCODING 71
SWIDTH 588 0
DWIDTH 11 0
BBX 9 12 1 0
BITMAP
0F00
3080
2000
4000
4000
C000
C780
8100
C100
C100
6300
3E00
ENDCHAR
STARTCHAR H
ENCODING 72
SWIDTH 622 0
DWIDTH 11 0
BBX 10 12 1 0
BITMAP
2040
20C0
60C0
6080
4080
7F80
4180
4180
C100
C100
8100
8300
ENDCHAR
STARTCHAR I
ENCODING 73
SWIDTH 252 0
DWIDTH 5 0
BBX 3 12 1 0
BITMAP
20
20
60
60
60
40
40
40
C0
C0
80
80
ENDCHAR
STARTCHAR J
ENCODING 74
SWIDTH 456 0
DWIDTH 8 0
BBX 8 12 0 0
BITMAP
01
01
03
03
02
02
02
06
06
04
8C
78
ENDCHAR
STARTCHAR K
ENCODING 75
SWIDTH 559 0
DWIDTH 10 0
BBX 10 12 1 0
BITMAP
20C0
2100
6200
6400
6800
5C00
6400
4400
C600
C200
8200
8300
ENDCHAR
STARTCHAR L
ENCODING 76
SWIDTH 462 0
DWIDTH 8 0
BBX 6 12 1 0
BITMAP
20
20
60
60
60
40
40
40
C0
C0
80
FC
ENDCHAR
STARTCHAR M
ENCODING 77
SWIDTH 705 0
DWIDTH 13 0
BBX 12 12 1 0
BITMAP
3030
3060
7060
70A0
51E0
5960
4A40
4A40
CC40
8CC0
88C0
8080
ENDCHAR
STARTCHAR N
ENCODING 78
SWIDTH 619 0
DWIDTH 11 0
BBX 10 12 1 0
BITMAP
3040
30C0
70C0
7880
4880
4880
4D80
4580
C500
8700
8300
8300
ENDCHAR
STARTCHAR O
ENCODING 79
SWIDTH 633 0
DWIDTH 11 0
BBX 10 12 1 0
BITMAP
0F00
3180
20C0
40C0
40C0
C0C0
C0C0
C080
C080
C100
6300
3C00
ENDCHAR
STARTCHAR P
ENCODING 80
SWIDTH 550 0
DWIDTH 10 0
BBX 9 12 1 0
BITMAP
3F00
2180
6080
6080
4180
4300
7E00
4000
C000
C000
8000
8000
ENDCHAR
STARTCHAR Q
ENCODING 81
SWIDTH 633 0
DWIDTH 11 0
BBX 10 15 1 -3
BITMAP
0F00
3180
20C0
40C0
40C0
C0C0
C0C0
C080
C080
C180
6300
3C00
1800
0C00
0700
ENDCHAR
STARTCHAR R
ENCODING 82
SWIDTH 555 0
DWIDTH 10 0
BBX 9 12 1 0
BITMAP
3F00
2180
6180
6180
6180
4300
7E00
4C00
C400
C400
8600
8300
ENDCHAR
STARTCHAR S
ENCODING 83
SWIDTH 506 0
DWIDTH 9 0
BBX 9 12 0 0
BITMAP
0F00
1180
3000
3000
3000
1C00
0700
0300
0100
8100
4300
3C00
ENDCHAR
STARTCHAR T
ENCODING 84
SWIDTH 510 0
DWIDTH 9 0
BBX 8 12 2 0
BITMAP
FF
10
10
10
30
30
20
20
20
60
60
40
ENDCHAR
STARTCHAR U
ENCODING 85
SWIDTH 616 0
DWIDTH 11 0
BBX 10 12 1 0
BITMAP
2040
20C0
60C0
6080
4080
4080
4180
C180
C100
4100
6200
3C00
ENDCHAR
STARTCHAR V
ENCODING 86
SWIDTH 496 0
DWIDTH 9 0
BBX 9 12 1 0
BITMAP
C080
4180
4100
4300
4200
4600
4400
4C00
6800
7800
7000
6000
ENDCHAR
STARTCHAR W
ENCODING 87
SWIDTH 756 0
DWIDTH 14 0
BBX 13 12 2 0
BITMAP
8618
8610
8630
8A20
8A60
9240
9240
A2C0
A280
E280
C300
C300
ENDCHAR
STARTCHAR X
ENCODING 88
SWIDTH 494 0
DWIDTH 9 0
BBX 11 12 -1 0
BITMAP
1860
18C0
0880
0D00
0F00
0600
0E00
0A00
1200
3300
6100
C180
ENDCHAR
STARTCHAR Y
ENCODING 89
SWIDTH 461 0
DWIDTH 8 0
BBX 9 12 1 0
BITMAP
C180
4300
6200
6400
2C00
2800
3000
3000
3000
2000
2000
6000
ENDCHAR
STARTCHAR Z
ENCODING 90
SWIDTH 512 0
DWIDTH 9 0
BBX 10 12 0 0
BITMAP
1FC0
2180
0100
0200
0600
0C00
0800
1800
3000
2000
4000
FF00
ENDCHAR
STARTCHAR bracketleft
ENCODING 91
SWIDTH 292 0
DWIDTH 5 0
BBX 6 16 0 -3
BITMAP
1C
10
10
10
20
20
20
20
20
40
40
40
40
40
80
E0
ENDCHAR
STARTCHAR backslash
ENCODING 92
SWIDTH 340 0
DWIDTH 6 0
BBX 3 16 2 -3
BITMAP
80
80
80
80
80
80
80
40
40
40
40
40
40
40
40
20
ENDCHAR
STARTCHAR bracketright
ENCODING 93
SWIDTH 293 0
DWIDTH 5 0
BBX 6 16 -1 -3
BITMAP
1C
04
04
04
08
08
08
08
08
10
10
10
10
10
20
E0
ENDCHAR
STARTCHAR asciicircum
ENCODING 94
SWIDTH 479 0
DWIDTH 9 0
BBX 7 7 1 5
BITMAP
10
18
28
2C
64
44
C2
ENDCHAR
STARTCHAR underscore
ENCODING 95
SWIDTH 483 0
DWIDTH 9 0
BBX 9 1 -1 -2
BITMAP
FF80
ENDCHAR
STARTCHAR grave
ENCODING 96
SWIDTH 517 0
DWIDTH 9 0
BBX 3 4 4 10
BITMAP
40
C0
60
20
ENDCHAR
STARTCHAR a
ENCODING 97
SWIDTH 537 0
DWIDTH 10 0
BBX 8 9 1 0
BITMAP
1D
63
43
C2
82
82
86
CE
74
ENDCHAR
STARTCHAR b
ENCODING 98
SWIDTH 536 0
DWIDTH 10 0
BBX 8 13 1 0
BITMAP
30
20
20
60
6E
73
43
43
C3
C3
82
C4
B8
ENDCHAR
STARTCHAR c
ENCODING 99
SWIDTH 435 0
DWIDTH 8 0
BBX 7 9 1 0
BITMAP
1C
66
C0
80
80
80
80
C8
7C
ENDCHAR
STARTCHAR d
ENCODING 100
SWIDTH 535 0
DWIDTH 10 0
BBX 9 13 1 0
BITMAP
0180
0180
0100
0100
1D00
6300
4300
C200
8200
8200
8600
CE00
7400
ENDCHAR
STARTCHAR e
ENCODING 101
SWIDTH 481 0
DWIDTH 9 0
BBX 7 9 1 0
BITMAP
3C
66
C2
82
FE
80
80
C4
78
ENDCHAR
STARTCHAR f
ENCODING 102
SWIDTH 282 0
DWIDTH 5 0
BBX 6 13 1 0
BITMAP
1C
30
20
20
F8
60
40
40
40
C0
C0
80
80
ENDCHAR
STARTCHAR g
ENCODING 103
SWIDTH 531 0
DWIDTH 10 0
BBX 9 13 0 -4
BITMAP
0E80
3180
2100
6100
4100
4100
4300
6600
3A00
0200
0600
8400
7800
ENDCHAR
STARTCHAR h
ENCODING 104
SWIDTH 519 0
DWIDTH 9 0
BBX 8 13 1 0
BITMAP
30
20
20
60
6E
72
43
42
C2
C2
86
86
84
ENDCHAR
STARTCHAR i
ENCODING 105
SWIDTH 237 0
DWIDTH 4 0
BBX 4 13 1 0
BITMAP
20
30
00
00
60
40
40
40
C0
C0
80
80
80
ENDCHAR
STARTCHAR j
ENCODING 106
SWIDTH 238 0
DWIDTH 4 0
BBX 7 17 -2 -4
BITMAP
04
06
00
00
0C
08
08
08
18
18
10
10
10
30
30
20
E0
ENDCHAR
STARTCHAR k
ENCODING 107
SWIDTH 476 0
DWIDTH 9 0
BBX 8 13 1 0
BITMAP
30
20
20
60
63
44
4C
58
F8
E8
C8
8C
84
ENDCHAR
STARTCHAR l
ENCODING 108
SWIDTH 248 0
DWIDTH 4 0
BBX 4 13 1 0
BITMAP
30
20
20
60
60
40
40
40
C0
C0
80
80
C0
ENDCHAR
STARTCHAR m
ENCODING 109
SWIDTH 799 0
DWIDTH 14 0
BBX 12 9 1 0
BITMAP
4E70
7390
4210
4210
C210
C630
8630
8420
8420
ENDCHAR
STARTCHAR n
ENCODING 110
SWIDTH 525 0
DWIDTH 9 0
BBX 8 9 1 0
BITMAP
4E
72
43
42
C2
C2
86
86
84
ENDCHAR
STARTCHAR o
ENCODING 111
SWIDTH 515 0
DWIDTH 9 0
BBX 8 9 1 0
BITMAP
1C
62
C2
83
82
82
86
CC
78
ENDCHAR
STARTCHAR p
ENCODING 112
SWIDTH 535 0
DWIDTH 10 0
BBX 9 13 0 -4
BITMAP
2700
3980
2180
2180
6180
6180
4100
6200
5C00
C000
C000
8000
8000
ENDCHAR
STARTCHAR q
ENCODING 113
SWIDTH 537 0
DWIDTH 10 0
BBX 8 13 1 -4
BITMAP
1D
63
43
C2
82
82
86
CE
74
04
04
0C
0C
ENDCHAR
STARTCHAR r
ENCODING 114
SWIDTH 342 0
DWIDTH 6 0
BBX 6 9 1 0
BITMAP
4C
70
40
40
C0
C0
80
80
80
ENDCHAR
STARTCHAR s
ENCODING 115
SWIDTH 402 0
DWIDTH 7 0
BBX 7 9 0 0
BITMAP
3C
26
60
20
18
0C
04
CC
78
ENDCHAR
STARTCHAR t
ENCODING 116
SWIDTH 325 0
DWIDTH 6 0
BBX 5 11 1 0
BITMAP
20
20
F8
60
40
40
40
C0
C0
C0
70
ENDCHAR
STARTCHAR u
ENCODING 117
SWIDTH 528 0
DWIDTH 10 0
BBX 8 9 1 0
BITMAP
63
43
42
42
C2
C6
86
CC
74
ENDCHAR
STARTCHAR v
ENCODING 118
SWIDTH 448 0
DWIDTH 8 0
BBX 8 9 1 0
BITMAP
83
C2
C4
44
48
48
50
50
60
ENDCHAR
STARTCHAR w
ENCODING 119
SWIDTH 707 0
DWIDTH 13 0
BBX 12 9 1 0
BITMAP
C630
C620
CA60
4A40
5240
5280
5280
6300
6300
ENDCHAR
STARTCHAR x
ENCODING 120
SWIDTH 429 0
DWIDTH 8 0
BBX 9 9 -1 0
BITMAP
3080
1100
1A00
0E00
0C00
1400
3600
6200
C300
ENDCHAR
STARTCHAR y
ENCODING 121
SWIDTH 448 0
DWIDTH 8 0
BBX 10 13 -1 -4
BITMAP
30C0
3080
1100
1100
1200
1200
1400
1400
0800
1800
1000
3000
C000
ENDCHAR
STARTCHAR z
ENCODING 122
SWIDTH 410 0
DWIDTH 7 0
BBX 8 9 0 0
BITMAP
3F
06
04
08
18
30
60
40
FC
ENDCHAR
STARTCHAR braceleft
ENCODING 123
SWIDTH 290 0
DWIDTH 5 0
BBX 5 16 1 -3
BITMAP
18
30
20
20
20
20
40
80
40
40
40
80
80
80
80
C0
ENDCHAR
STARTCHAR bar
ENCODING 124
SWIDTH 231 0
DWIDTH 4 0
BBX 1 18 2 -5
BITMAP
80
80
80
80
80
80
80
80
80
80
80
80
80
80
80
80
80
80
ENDCHAR
STARTCHAR braceright
ENCODING 125
SWIDTH 293 0
DWIDTH 5 0
BBX 6 16 -1 -3
BITMAP
18
0C
08
08
08
08
18
0C
10
10
10
30
20
20
20
C0
ENDCHAR
STARTCHAR asciitilde
ENCODING 126
SWIDTH 480 0
DWIDTH 9 0
BBX 7 2 1 5
BITMAP
72
9C
ENDCHAR
STARTCHAR uni00A0
ENCODING 160
SWIDTH 192 0
DWIDTH 3 0
BBX 1 1 0 0
BITMAP
00
ENDCHAR
STARTCHAR exclamdown
ENCODING 161
SWIDTH 282 0
DWIDTH 5 0
BBX 4 12 0 -3
BITMAP
30
30
00
00
20
20
20
60
40
40
40
C0
ENDCHAR
STARTCHAR cent
ENCODING 162
SWIDTH 480 0
DWIDTH 9 0
BBX 8 12 1 0
BITMAP
04
04
1E
6B
48
48
C8
D0
54
3E
10
10
ENDCHAR
STARTCHAR sterling
ENCODING 163
SWIDTH 480 0
DWIDTH 9 0
BBX 9 12 0 0
BITMAP
0F00
1980
1000
1000
1000
1000
7E00
1000
1000
3000
6000
FE00
ENDCHAR
STARTCHAR currency
ENCODING 164
SWIDTH 480 0
DWIDTH 9 0
BBX 9 6 0 3
BITMAP
7F80
3300
6100
6300
6200
FF00
ENDCHAR
STARTCHAR yen
ENCODING 165
SWIDTH 480 0
DWIDTH 9 0
BBX 9 11 0 0
BITMAP
2080
3100
1300
1200
1400
7F00
0800
7F00
9800
1000
1000
ENDCHAR
STARTCHAR brokenbar
ENCODING 166
SWIDTH 231 0
DWIDTH 4 0
BBX 1 18 2 -5
BITMAP
80
80
80
80
80
80
80
80
00
00
80
80
80
80
80
80
80
80
ENDCHAR
STARTCHAR section
ENCODING 167
SWIDTH 477 0
DWIDTH 9 0
BBX 8 13 0 -1
BITMAP
0E
11
10
18
2C
42
41
71
1A
0C
04
C4
78
ENDCHAR
STARTCHAR dieresis
ENCODING 168
SWIDTH 517 0
DWIDTH 9 0
BBX 5 1 4 11
BITMAP
98
ENDCHAR
STARTCHAR copyright
ENCODING 169
SWIDTH 665 0
DWIDTH 12 0
BBX 11 12 1 0
BITMAP
0F00
30C0
4040
8E20
9B20
9020
A020
A040
B240
9E80
4100
3E00
ENDCHAR
STARTCHAR ordfeminine
ENCODING 170
SWIDTH 354 0
DWIDTH 6 0
BBX 5 6 2 7
BITMAP
78
C8
88
98
90
F0
ENDCHAR
STARTCHAR guillemotleft
ENCODING 171
SWIDTH 411 0
DWIDTH 7 0
BBX 6 7 1 1
BITMAP
24
48
D0
90
90
48
48
ENDCHAR
STARTCHAR logicalnot
ENCODING 172
SWIDTH 480 0
DWIDTH 9 0
BBX 7 5 1 1
BITMAP
FE
02
02
02
02
ENDCHAR
STARTCHAR uni00AD
ENCODING 173
SWIDTH 299 0
DWIDTH 5 0
BBX 4 1 1 4
BITMAP
F0
ENDCHAR
STARTCHAR registered
ENCODING 174
SWIDTH 406 0
DWIDTH 7 0
BBX 7 7 1 6
BITMAP
3C
44
9A
AA
BA
74
38
ENDCHAR
STARTCHAR macron
ENCODING 175
SWIDTH 517 0
DWIDTH 9 0
BBX 4 1 4 11
BITMAP
F0
ENDCHAR
STARTCHAR degree
ENCODING 176
SWIDTH 313 0
DWIDTH 6 0
BBX 4 4 2 8
BITMAP
70
90
90
E0
ENDCHAR
STARTCHAR plusminus
ENCODING 177
SWIDTH 480 0
DWIDTH 9 0
BBX 7 10 1 0
BITMAP
10
10
10
FE
10
10
10
00
00
FE
ENDCHAR
STARTCHAR two.sups
ENCODING 178
SWIDTH 353 0
DWIDTH 6 0
BBX 6 7 1 7
BITMAP
38
44
04
08
10
20
F8
ENDCHAR
STARTCHAR three.sups
ENCODING 179
SWIDTH 351 0
DWIDTH 6 0
BBX 6 7 1 7
BITMAP
38
44
0C
30
08
C8
78
ENDCHAR
STARTCHAR acute
ENCODING 180
SWIDTH 517 0
DWIDTH 9 0
BBX 4 4 5 10
BITMAP
20
70
C0
80
ENDCHAR
STARTCHAR uni00B5
ENCODING 181
SWIDTH 526 0
DWIDTH 9 0
BBX 9 12 0 -3
BITMAP
3180
2180
2100
2100
6100
6300
4300
6600
7A00
C000
C000
8000
ENDCHAR
STARTCHAR paragraph
ENCODING 182
SWIDTH 535 0
DWIDTH 10 0
BBX 8 13 1 -1
BITMAP
1D
7D
7D
FB
FB
FA
7A
1A
06
06
04
04
0C
ENDCHAR
STARTCHAR periodcentered
ENCODING 183
SWIDTH 242 0
DWIDTH 4 0
BBX 2 2 1 5
BITMAP
40
C0
ENDCHAR
STARTCHAR cedilla
ENCODING 184
SWIDTH 517 0
DWIDTH 9 0
BBX 4 4 1 -4
BITMAP
20
70
30
E0
ENDCHAR
STARTCHAR one.sups
ENCODING 185
SWIDTH 356 0
DWIDTH 6 0
BBX 3 7 3 7
BITMAP
E0
20
40
40
40
40
40
ENDCHAR
STARTCHAR ordmasculine
ENCODING 186
SWIDTH 348 0
DWIDTH 6 0
BBX 5 6 1 7
BITMAP
38
48
88
88
98
70
ENDCHAR
STARTCHAR guillemotright
ENCODING 187
SWIDTH 411 0
DWIDTH 7 0
BBX 7 7 0 1
BITMAP
48
24
34
12
24
48
90
ENDCHAR
STARTCHAR onequarter
ENCODING 188
SWIDTH 748 0
DWIDTH 13 0
BBX 11 12 2 0
BITMAP
E0C0
2080
6100
4200
4200
4440
48C0
1140
1240
27E0
4080
8080
ENDCHAR
STARTCHAR onehalf
ENCODING 189
SWIDTH 772 0
DWIDTH 14 0
BBX 11 12 2 0
BITMAP
E080
2100
6100
4200
4400
49C0
4920
1020
2040
2080
4100
83C0
ENDCHAR
STARTCHAR threequarters
ENCODING 190
SWIDTH 764 0
DWIDTH 14 0
BBX 12 12 1 0
BITMAP
7820
4840
0840
3080
0900
8A30
7260
04A0
0920
09F0
1020
2040
ENDCHAR
STARTCHAR questiondown
ENCODING 191
SWIDTH 409 0
DWIDTH 7 0
BBX 6 12 0 -3
BITMAP
0C
0C
00
08
18
10
20
40
80
80
C8
78
ENDCHAR
STARTCHAR Agrave
ENCODING 192
SWIDTH 510 0
DWIDTH 9 0
BBX 9 16 -1 0
BITMAP
0200
0700
0100
0000
0300
0300
0500
0500
0980
0980
1080
3F80
2080
6080
4080
C080
ENDCHAR
STARTCHAR Aacute
ENCODING 193
SWIDTH 510 0
DWIDTH 9 0
BBX 10 16 -1 0
BITMAP
0040
0180
0300
0000
0300
0300
0500
0500
0980
0980
1080
3F80
2080
6080
4080
C080
ENDCHAR
STARTCHAR Acircumflex
ENCODING 194
SWIDTH 510 0
DWIDTH 9 0
BBX 10 15 -1 0
BITMAP
0380
0680
0440
0300
0300
0500
0500
0980
0980
1080
3F80
2080
6080
4080
C080
ENDCHAR
STARTCHAR Atilde
ENCODING 195
SWIDTH 510 0
DWIDTH 9 0
BBX 11 15 -1 0
BITMAP
0720
09C0
0000
0300
0300
0500
0500
0980
0980
1080
3F80
2080
6080
4080
C080
ENDCHAR
STARTCHAR Adieresis
ENCODING 196
SWIDTH 510 0
DWIDTH 9 0
BBX 10 14 -1 0
BITMAP
06C0
0000
0300
0300
0500
0500
0980
0980
1080
3F80
2080
6080
4080
C080
ENDCHAR
STARTCHAR Aring
ENCODING 197
SWIDTH 510 0
DWIDTH 9 0
BBX 9 16 -1 0
BITMAP
0380
0280
0280
0380
0300
0300
0500
0500
0980
0980
1080
3F80
2080
6080
4080
C080
ENDCHAR
STARTCHAR AE
ENCODING 198
SWIDTH 803 0
DWIDTH 14 0
BBX 16 12 -1 0
BITMAP
00FF
00E0
0140
0340
0240
04FC
08C0
0F80
1080
2080
6180
C1FC
ENDCHAR
STARTCHAR Ccedilla
ENCODING 199
SWIDTH 550 0
DWIDTH 10 0
BBX 9 16 1 -4
BITMAP
0F00
3180
2000
4000
4000
C000
C000
8000
C000
C000
6200
3F00
1000
1800
0800
3000
ENDCHAR
STARTCHAR Egrave
ENCODING 200
SWIDTH 503 0
DWIDTH 9 0
BBX 9 16 1 0
BITMAP
0800
1C00
0600
0000
3F80
2000
6000
6000
4000
7E00
4000
4000
C000
C000
8000
FE00
ENDCHAR
STARTCHAR Eacute
ENCODING 201
SWIDTH 503 0
DWIDTH 9 0
BBX 9 16 1 0
BITMAP
0100
0700
0400
0000
3F80
2000
6000
6000
4000
7E00
4000
4000
C000
C000
8000
FE00
ENDCHAR
STARTCHAR Ecircumflex
ENCODING 202
SWIDTH 503 0
DWIDTH 9 0
BBX 9 15 1 0
BITMAP
0600
0B00
1100
3F80
2000
6000
6000
4000
7E00
4000
4000
C000
C000
8000
FE00
ENDCHAR
STARTCHAR Edieresis
ENCODING 203
SWIDTH 503 0
DWIDTH 9 0
BBX 9 14 1 0
BITMAP
1B00
0000
3F80
2000
6000
6000
4000
7E00
4000
4000
C000
C000
8000
FE00
ENDCHAR
STARTCHAR Igrave
ENCODING 204
SWIDTH 252 0
DWIDTH 5 0
BBX 4 16 1 0
BITMAP
40
20
10
00
20
20
60
60
60
40
40
40
C0
C0
80
80
ENDCHAR
STARTCHAR Iacute
ENCODING 205
SWIDTH 252 0
DWIDTH 5 0
BBX 6 16 1 0
BITMAP
08
1C
20
00
20
20
60
60
60
40
40
40
C0
C0
80
80
ENDCHAR
STARTCHAR Icircumflex
ENCODING 206
SWIDTH 252 0
DWIDTH 5 0
BBX 5 15 1 0
BITMAP
30
48
88
20
20
60
60
60
40
40
40
C0
C0
80
80
ENDCHAR
STARTCHAR Idieresis
ENCODING 207
SWIDTH 252 0
DWIDTH 5 0
BBX 5 14 1 0
BITMAP
C8
00
20
20
60
60
60
40
40
40
C0
C0
80
80
ENDCHAR
STARTCHAR Eth
ENCODING 208
SWIDTH 610 0
DWIDTH 11 0
BBX 10 12 1 0
BITMAP
3E00
2100
2080
2080
60C0
F880
4080
4080
4180
C100
C600
FC00
ENDCHAR
STARTCHAR Ntilde
ENCODING 209
SWIDTH 619 0
DWIDTH 11 0
BBX 10 15 1 0
BITMAP
0EC0
1380
0000
3040
30C0
70C0
7880
4880
4880
4D80
4580
C500
8700
8300
8300
ENDCHAR
STARTCHAR Ograve
ENCODING 210
SWIDTH 633 0
DWIDTH 11 0
BBX 10 16 1 0
BITMAP
0400
0E00
0300
0000
0F00
3180
20C0
40C0
40C0
C0C0
C0C0
C080
C080
C100
6300
3C00
ENDCHAR
STARTCHAR Oacute
ENCODING 211
SWIDTH 633 0
DWIDTH 11 0
BBX 10 16 1 0
BITMAP
0080
0300
0600
0000
0F00
3180
20C0
40C0
40C0
C0C0
C0C0
C080
C080
C100
6300
3C00
ENDCHAR
STARTCHAR Ocircumflex
ENCODING 212
SWIDTH 633 0
DWIDTH 11 0
BBX 10 15 1 0
BITMAP
0700
0D80
0880
0F00
3180
20C0
40C0
40C0
C0C0
C0C0
C080
C080
C100
6300
3C00
ENDCHAR
STARTCHAR Otilde
ENCODING 213
SWIDTH 633 0
DWIDTH 11 0
BBX 10 15 1 0
BITMAP
0E40
1380
0000
0F00
3180
20C0
40C0
40C0
C0C0
C0C0
C080
C080
C100
6300
3C00
ENDCHAR
STARTCHAR Odieresis
ENCODING 214
SWIDTH 633 0
DWIDTH 11 0
BBX 10 14 1 0
BITMAP
0D80
0000
0F00
3180
20C0
40C0
40C0
C0C0
C0C0
C080
C080
C100
6300
3C00
ENDCHAR
STARTCHAR multiply
ENCODING 215
SWIDTH 480 0
DWIDTH 9 0
BBX 7 7 1 2
BITMAP
82
44
28
10
28
44
82
ENDCHAR
STARTCHAR Oslash
ENCODING 216
SWIDTH 633 0
DWIDTH 11 0
BBX 12 12 0 0
BITMAP
0790
18E0
3040
20E0
6160
6260
6460
6860
7040
20C0
7180
9E00
ENDCHAR
STARTCHAR Ugrave
ENCODING 217
SWIDTH 616 0
DWIDTH 11 0
BBX 10 16 1 0
BITMAP
0400
0E00
0200
0000
2040
20C0
60C0
6080
4080
4080
4180
C180
C100
4100
6200
3C00
ENDCHAR
STARTCHAR Uacute
ENCODING 218
SWIDTH 616 0
DWIDTH 11 0
BBX 10 16 1 0
BITMAP
0080
0300
0600
0000
2040
20C0
60C0
6080
4080
4080
4180
C180
C100
4100
6200
3C00
ENDCHAR
STARTCHAR Ucircumflex
ENCODING 219
SWIDTH 616 0
DWIDTH 11 0
BBX 10 15 1 0
BITMAP
0700
0D00
1180
2040
20C0
60C0
6080
4080
4080
4180
C180
C100
4100
6200
3C00
ENDCHAR
STARTCHAR Udieresis
ENCODING 220
SWIDTH 616 0
DWIDTH 11 0
BBX 10 14 1 0
BITMAP
0980
0000
2040
20C0
60C0
6080
4080
4080
4180
C180
C100
4100
6200
3C00
ENDCHAR
STARTCHAR Yacute
ENCODING 221
SWIDTH 461 0
DWIDTH 8 0
BBX 9 16 1 0
BITMAP
0200
0600
0800
0000
C180
4300
6200
6400
2C00
2800
3000
3000
3000
2000
2000
6000
ENDCHAR
STARTCHAR Thorn
ENCODING 222
SWIDTH 562 0
DWIDTH 10 0
BBX 9 12 1 0
BITMAP
2000
2000
7E00
6100
4180
4180
4100
4300
FC00
8000
8000
8000
ENDCHAR
STARTCHAR germandbls
ENCODING 223
SWIDTH 555 0
DWIDTH 10 0
BBX 8 13 1 0
BITMAP
1E
33
23
63
66
4C
48
4C
C6
C3
81
93
9E
ENDCHAR
STARTCHAR agrave
ENCODING 224
SWIDTH 537 0
DWIDTH 10 0
BBX 8 14 1 0
BITMAP
08
18
0C
04
00
1D
63
43
C2
82
82
86
CE
74
ENDCHAR
STARTCHAR aacute
ENCODING 225
SWIDTH 537 0
DWIDTH 10 0
BBX 8 14 1 0
BITMAP
02
07
0C
08
00
1D
63
43
C2
82
82
86
CE
74
ENDCHAR
STARTCHAR acircumflex
ENCODING 226
SWIDTH 537 0
DWIDTH 10 0
BBX 8 13 1 0
BITMAP
0C
1A
21
00
1D
63
43
C2
82
82
86
CE
74
ENDCHAR
STARTCHAR atilde
ENCODING 227
SWIDTH 537 0
DWIDTH 10 0
BBX 8 12 1 0
BITMAP
3D
27
00
1D
63
43
C2
82
82
86
CE
74
ENDCHAR
STARTCHAR adieresis
ENCODING 228
SWIDTH 537 0
DWIDTH 10 0
BBX 8 12 1 0
BITMAP
13
00
00
1D
63
43
C2
82
82
86
CE
74
ENDCHAR
STARTCHAR aring
ENCODING 229
SWIDTH 537 0
DWIDTH 10 0
BBX 8 14 1 0
BITMAP
0E
12
12
0C
00
1D
63
43
C2
82
82
86
CE
74
ENDCHAR
STARTCHAR ae
ENCODING 230
SWIDTH 761 0
DWIDTH 14 0
BBX 12 9 1 0
BITMAP
3CE0
4530
0610
3E10
C7F0
8400
8400
8A20
F3C0
ENDCHAR
STARTCHAR ccedilla
ENCODING 231
SWIDTH 435 0
DWIDTH 8 0
BBX 7 13 1 -4
BITMAP
1C
66
C0
80
80
80
80
C8
7C
20
60
30
E0
ENDCHAR
STARTCHAR egrave
ENCODING 232
SWIDTH 481 0
DWIDTH 9 0
BBX 7 14 1 0
BITMAP
10
18
0C
04
00
3C
66
C2
82
FE
80
80
C4
78
ENDCHAR
STARTCHAR eacute
ENCODING 233
SWIDTH 481 0
DWIDTH 9 0
BBX 7 14 1 0
BITMAP
02
06
0C
08
00
3C
66
C2
82
FE
80
80
C4
78
ENDCHAR
STARTCHAR ecircumflex
ENCODING 234
SWIDTH 481 0
DWIDTH 9 0
BBX 8 13 1 0
BITMAP
0C
12
22
01
3C
66
C2
82
FE
80
80
C4
78
ENDCHAR
STARTCHAR edieresis
ENCODING 235
SWIDTH 481 0
DWIDTH 9 0
BBX 7 12 1 0
BITMAP
32
00
00
3C
66
C2
82
FE
80
80
C4
78
ENDCHAR
STARTCHAR igrave
ENCODING 236
SWIDTH 237 0
DWIDTH 4 0
BBX 4 14 1 0
BITMAP
40
60
20
10
00
60
40
40
40
C0
C0
80
80
80
ENDCHAR
STARTCHAR iacute
ENCODING 237
SWIDTH 237 0
DWIDTH 4 0
BBX 5 14 1 0
BITMAP
08
18
30
40
00
60
40
40
40
C0
C0
80
80
80
ENDCHAR
STARTCHAR icircumflex
ENCODING 238
SWIDTH 237 0
DWIDTH 4 0
BBX 5 13 1 0
BITMAP
30
58
88
00
60
40
40
40
C0
C0
80
80
80
ENDCHAR
STARTCHAR idieresis
ENCODING 239
SWIDTH 237 0
DWIDTH 4 0
BBX 5 12 1 0
BITMAP
D8
00
00
60
40
40
40
C0
C0
80
80
80
ENDCHAR
STARTCHAR eth
ENCODING 240
SWIDTH 524 0
DWIDTH 9 0
BBX 9 13 1 0
BITMAP
1900
0E80
1C00
3600
0200
3A00
6600
C200
8200
8200
8600
CC00
7800
ENDCHAR
STARTCHAR ntilde
ENCODING 241
SWIDTH 525 0
DWIDTH 9 0
BBX 9 12 1 0
BITMAP
1D80
2300
0000
4E00
7200
4300
4200
C200
C200
8600
8600
8400
ENDCHAR
STARTCHAR ograve
ENCODING 242
SWIDTH 515 0
DWIDTH 9 0
BBX 8 14 1 0
BITMAP
08
18
0C
04
00
1C
62
C2
83
82
82
86
CC
78
ENDCHAR
STARTCHAR oacute
ENCODING 243
SWIDTH 515 0
DWIDTH 9 0
BBX 8 14 1 0
BITMAP
02
07
0C
08
00
1C
62
C2
83
82
82
86
CC
78
ENDCHAR
STARTCHAR ocircumflex
ENCODING 244
SWIDTH 515 0
DWIDTH 9 0
BBX 8 13 1 0
BITMAP
0E
1A
31
00
1C
62
C2
83
82
82
86
CC
78
ENDCHAR
STARTCHAR otilde
ENCODING 245
SWIDTH 515 0
DWIDTH 9 0
BBX 9 12 1 0
BITMAP
1D80
2700
0000
1C00
6200
C200
8300
8200
8200
8600
CC00
7800
ENDCHAR
STARTCHAR odieresis
ENCODING 246
SWIDTH 515 0
DWIDTH 9 0
BBX 8 12 1 0
BITMAP
13
00
00
1C
62
C2
83
82
82
86
CC
78
ENDCHAR
STARTCHAR divide
ENCODING 247
SWIDTH 480 0
DWIDTH 9 0
BBX 7 8 1 2
BITMAP
10
00
00
00
FE
00
00
10
ENDCHAR
STARTCHAR oslash
ENCODING 248
SWIDTH 515 0
DWIDTH 9 0
BBX 9 9 0 0
BITMAP
1E80
3300
6300
4580
4900
5100
6300
6600
BC00
ENDCHAR
STARTCHAR ugrave
ENCODING 249
SWIDTH 528 0
DWIDTH 10 0
BBX 8 14 1 0
BITMAP
08
18
0C
04
00
63
43
42
42
C2
C6
86
CC
74
ENDCHAR
STARTCHAR uacute
ENCODING 250
SWIDTH 528 0
DWIDTH 10 0
BBX 8 14 1 0
BITMAP
02
07
0C
08
00
63
43
42
42
C2
C6
86
CC
74
ENDCHAR
STARTCHAR ucircumflex
ENCODING 251
SWIDTH 528 0
DWIDTH 10 0
BBX 8 13 1 0
BITMAP
0C
1A
21
00
63
43
42
42
C2
C6
86
CC
74
ENDCHAR
STARTCHAR udieresis
ENCODING 252
SWIDTH 528 0
DWIDTH 10 0
BBX 8 12 1 0
BITMAP
13
00
00
63
43
42
42
C2
C6
86
CC
74
ENDCHAR
STARTCHAR yacute
ENCODING 253
SWIDTH 448 0
DWIDTH 8 0
BBX 10 18 -1 -4
BITMAP
0100
0380
0600
0400
0000
30C0
3080
1100
1100
1200
1200
1400
1400
0800
1800
1000
3000
C000
ENDCHAR
STARTCHAR thorn
ENCODING 254
SWIDTH 535 0
DWIDTH 10 0
BBX 9 17 0 -4
BITMAP
1800
1000
1000
3000
3700
3980
2180
2180
6180
6180
4100
6200
5C00
C000
C000
8000
8000
ENDCHAR
STARTCHAR ydieresis
ENCODING 255
SWIDTH 448 0
DWIDTH 8 0
BBX 10 16 -1 -4
BITMAP
0980
0000
0000
30C0
3080
1100
1100
1200
1200
1400
1400
0800
1800
1000
3000
C000
ENDCHAR
STARTCHAR Amacron
ENCODING 256
SWIDTH 510 0
DWIDTH 9 0
BBX 10 14 -1 0
BITMAP
07C0
0000
0300
0300
0500
0500
0980
0980
1080
3F80
2080
6080
4080
C080
ENDCHAR
STARTCHAR amacron
ENCODING 257
SWIDTH 537 0
DWIDTH 10 0
BBX 8 12 1 0
BITMAP
1E
00
00
1D
63
43
C2
82
82
86
CE
74
ENDCHAR
STARTCHAR Abreve
ENCODING 258
SWIDTH 510 0
DWIDTH 9 0
BBX 10 16 -1 0
BITMAP
0480
0440
0380
0000
0300
0300
0500
0500
0980
0980
1080
3F80
2080
6080
4080
C080
ENDCHAR
STARTCHAR abreve
ENCODING 259
SWIDTH 537 0
DWIDTH 10 0
BBX 8 13 1 0
BITMAP
11
13
1E
00
1D
63
43
C2
82
82
86
CE
74
ENDCHAR
STARTCHAR Aogonek
ENCODING 260
SWIDTH 510 0
DWIDTH 9 0
BBX 9 16 -1 -4
BITMAP
0300
0300
0500
0500
0980
0980
1080
3F80
2080
6080
4080
C080
0080
0100
0100
0180
ENDCHAR
STARTCHAR aogonek
ENCODING 261
SWIDTH 537 0
DWIDTH 10 0
BBX 8 13 1 -4
BITMAP
1D
63
43
C2
82
82
86
CE
74
08
08
10
1C
ENDCHAR
STARTCHAR Cacute
ENCODING 262
SWIDTH 550 0
DWIDTH 10 0
BBX 9 16 1 0
BITMAP
0080
0380
0200
0000
0F00
3180
2000
4000
4000
C000
C000
8000
C000
C000
6200
3F00
ENDCHAR
STARTCHAR cacute
ENCODING 263
SWIDTH 435 0
DWIDTH 8 0
BBX 7 14 1 0
BITMAP
02
06
0C
08
00
1C
66
C0
80
80
80
80
C8
7C
ENDCHAR
STARTCHAR Ccircumflex
ENCODING 264
SWIDTH 550 0
DWIDTH 10 0
BBX 9 15 1 0
BITMAP
0300
0580
0880
0F00
3180
2000
4000
4000
C000
C000
8000
C000
C000
6200
3F00
ENDCHAR
STARTCHAR ccircumflex
ENCODING 265
SWIDTH 435 0
DWIDTH 8 0
BBX 8 13 1 0
BITMAP
0C
12
23
00
1C
66
C0
80
80
80
80
C8
7C
ENDCHAR
STARTCHAR Cdotaccent
ENCODING 266
SWIDTH 550 0
DWIDTH 10 0
BBX 9 14 1 0
BITMAP
0300
0000
0F00
3180
2000
4000
4000
C000
C000
8000
C000
C000
6200
3F00
ENDCHAR
STARTCHAR cdotaccent
ENCODING 267
SWIDTH 435 0
DWIDTH 8 0
BBX 7 12 1 0
BITMAP
0C
00
00
1C
66
C0
80
80
80
80
C8
7C
ENDCHAR
STARTCHAR Ccaron
ENCODING 268
SWIDTH 550 0
DWIDTH 10 0
BBX 9 16 1 0
BITMAP
0880
0580
0700
0000
0F00
3180
2000
4000
4000
C000
C000
8000
C000
C000
6200
3F00
ENDCHAR
STARTCHAR ccaron
ENCODING 269
SWIDTH 435 0
DWIDTH 8 0
BBX 8 13 1 0
BITMAP
21
16
0C
00
1C
66
C0
80
80
80
80
C8
7C
ENDCHAR
STARTCHAR Dcaron
ENCODING 270
SWIDTH 592 0
DWIDTH 11 0
BBX 9 16 1 0
BITMAP
1100
0B80
0600
0000
3E00
2300
6180
6080
4080
4080
4080
4180
C100
C300
8600
F800
ENDCHAR
STARTCHAR dcaron
ENCODING 271
SWIDTH 542 0
DWIDTH 10 0
BBX 11 14 1 0
BITMAP
0020
01A0
01C0
0140
0100
1D00
6300
4300
C200
8200
8200
8600
CE00
7400
ENDCHAR
STARTCHAR Dcroat
ENCODING 272
SWIDTH 610 0
DWIDTH 11 0
BBX 10 12 1 0
BITMAP
3E00
2100
2080
2080
60C0
F880
4080
4080
4180
C100
C600
FC00
ENDCHAR
STARTCHAR dcroat
ENCODING 273
SWIDTH 535 0
DWIDTH 10 0
BBX 10 13 1 0
BITMAP
0180
0180
0FC0
0100
0100
3D00
6300
C200
8200
8200
8200
CE00
7400
ENDCHAR
STARTCHAR Emacron
ENCODING 274
SWIDTH 503 0
DWIDTH 9 0
BBX 9 14 1 0
BITMAP
1F00
0000
3F80
2000
6000
6000
4000
7E00
4000
4000
C000
C000
8000
FE00
ENDCHAR
STARTCHAR emacron
ENCODING 275
SWIDTH 481 0
DWIDTH 9 0
BBX 7 12 1 0
BITMAP
3E
00
00
3C
66
C2
82
FE
80
80
C4
78
ENDCHAR
STARTCHAR Ebreve
ENCODING 276
SWIDTH 503 0
DWIDTH 9 0
BBX 9 16 1 0
BITMAP
1100
1100
0E00
0000
3F80
2000
6000
6000
4000
7E00
4000
4000
C000
C000
8000
FE00
ENDCHAR
STARTCHAR ebreve
ENCODING 277
SWIDTH 481 0
DWIDTH 9 0
BBX 8 13 1 0
BITMAP
21
32
1C
00
3C
66
C2
82
FE
80
80
C4
78
ENDCHAR
STARTCHAR Edotaccent
ENCODING 278
SWIDTH 503 0
DWIDTH 9 0
BBX 9 14 1 0
BITMAP
0600
0000
3F80
2000
6000
6000
4000
7E00
4000
4000
C000
C000
8000
FE00
ENDCHAR
STARTCHAR edotaccent
ENCODING 279
SWIDTH 481 0
DWIDTH 9 0
BBX 7 12 1 0
BITMAP
0C
00
00
3C
66
C2
82
FE
80
80
C4
78
ENDCHAR
STARTCHAR Eogonek
ENCODING 280
SWIDTH 503 0
DWIDTH 9 0
BBX 9 16 1 -4
BITMAP
3F80
2000
6000
6000
4000
7E00
4000
4000
C000
C000
8000
FE00
0800
1000
1000
1C00
ENDCHAR
STARTCHAR eogonek
ENCODING 281
SWIDTH 481 0
DWIDTH 9 0
BBX 7 13 1 -4
BITMAP
3C
66
C2
82
FE
80
80
C4
78
10
30
20
38
ENDCHAR
STARTCHAR Ecaron
ENCODING 282
SWIDTH 503 0
DWIDTH 9 0
BBX 9 16 1 0
BITMAP
1100
0B00
0E00
0000
3F80
2000
6000
6000
4000
7E00
4000
4000
C000
C000
8000
FE00
ENDCHAR
STARTCHAR ecaron
ENCODING 283
SWIDTH 481 0
DWIDTH 9 0
BBX 8 13 1 0
BITMAP
23
16
1C
00
3C
66
C2
82
FE
80
80
C4
78
ENDCHAR
STARTCHAR Gcircumflex
ENCODING 284
SWIDTH 588 0
DWIDTH 11 0
BBX 9 15 1 0
BITMAP
0300
0D80
0880
0F00
3080
2000
4000
4000
C000
C780
8100
C100
C100
6300
3E00
ENDCHAR
STARTCHAR gcircumflex
ENCODING 285
SWIDTH 531 0
DWIDTH 10 0
BBX 9 17 0 -4
BITMAP
0600
0D00
1080
0000
0E80
3180
2100
6100
4100
4100
4300
6600
3A00
0200
0600
8400
7800
ENDCHAR
STARTCHAR Gbreve
ENCODING 286
SWIDTH 588 0
DWIDTH 11 0
BBX 9 16 1 0
BITMAP
0880
0880
0700
0000
0F00
3080
2000
4000
4000
C000
C780
8100
C100
C100
6300
3E00
ENDCHAR
STARTCHAR gbreve
ENCODING 287
SWIDTH 531 0
DWIDTH 10 0
BBX 9 17 0 -4
BITMAP
1080
0980
0F00
0000
0E80
3180
2100
6100
4100
4100
4300
6600
3A00
0200
0600
8400
7800
ENDCHAR
STARTCHAR Gdotaccent
ENCODING 288
SWIDTH 588 0
DWIDTH 11 0
BBX 9 14 1 0
BITMAP
0300
0000
0F00
3080
2000
4000
4000
C000
C780
8100
C100
C100
6300
3E00
ENDCHAR
STARTCHAR gdotaccent
ENCODING 289
SWIDTH 531 0
DWIDTH 10 0
BBX 9 16 0 -4
BITMAP
0600
0000
0000
0E80
3180
2100
6100
4100
4100
4300
6600
3A00
0200
0600
8400
7800
ENDCHAR
STARTCHAR uni0122
ENCODING 290
SWIDTH 588 0
DWIDTH 11 0
BBX 9 16 1 -4
BITMAP
0F00
3080
2000
4000
4000
C000
C780
8100
C100
C100
6300
3E00
0000
1800
0800
3000
ENDCHAR
STARTCHAR uni0123
ENCODING 291
SWIDTH 531 0
DWIDTH 10 0
BBX 9 18 0 -4
BITMAP
0300
0400
0400
0600
0000
0E80
3180
2100
6100
4100
4100
4300
6600
3A00
0200
0600
8400
7800
ENDCHAR
STARTCHAR Hcircumflex
ENCODING 292
SWIDTH 622 0
DWIDTH 11 0
BBX 10 15 1 0
BITMAP
0700
0D00
1180
2040
20C0
60C0
6080
4080
7F80
4180
4180
C100
C100
8100
8300
ENDCHAR
STARTCHAR hcircumflex
ENCODING 293
SWIDTH 519 0
DWIDTH 9 0
BBX 8 16 1 0
BITMAP
30
68
8C
30
20
20
60
6E
72
43
42
C2
C2
86
86
84
ENDCHAR
STARTCHAR Hbar
ENCODING 294
SWIDTH 643 0
DWIDTH 12 0
BBX 11 12 1 0
BITMAP
3040
2040
FFE0
60C0
6080
7F80
4080
4180
C180
C100
8100
8300
ENDCHAR
STARTCHAR hbar
ENCODING 295
SWIDTH 519 0
DWIDTH 9 0
BBX 7 13 1 0
BITMAP
30
20
FC
20
60
4E
72
42
C2
C2
86
86
84
ENDCHAR
STARTCHAR Itilde
ENCODING 296
SWIDTH 252 0
DWIDTH 5 0
BBX 6 15 1 0
BITMAP
E4
98
00
20
20
60
60
60
40
40
40
C0
C0
80
80
ENDCHAR
STARTCHAR itilde
ENCODING 297
SWIDTH 237 0
DWIDTH 4 0
BBX 7 12 0 0
BITMAP
72
8C
00
30
20
20
20
60
60
40
40
40
ENDCHAR
STARTCHAR Imacron
ENCODING 298
SWIDTH 252 0
DWIDTH 5 0
BBX 5 14 1 0
BITMAP
78
80
20
20
60
60
60
40
40
40
C0
C0
80
80
ENDCHAR
STARTCHAR imacron
ENCODING 299
SWIDTH 237 0
DWIDTH 4 0
BBX 5 12 1 0
BITMAP
F8
00
00
60
40
40
40
C0
C0
80
80
80
ENDCHAR
STARTCHAR uni012C
ENCODING 300
SWIDTH 252 0
DWIDTH 5 0
BBX 6 16 1 0
BITMAP
88
4C
70
00
20
20
60
60
60
40
40
40
C0
C0
80
80
ENDCHAR
STARTCHAR uni012D
ENCODING 301
SWIDTH 237 0
DWIDTH 4 0
BBX 6 13 1 0
BITMAP
84
88
70
00
60
40
40
40
C0
C0
80
80
80
ENDCHAR
STARTCHAR Iogonek
ENCODING 302
SWIDTH 252 0
DWIDTH 5 0
BBX 5 16 -1 -4
BITMAP
08
08
18
18
18
10
10
10
30
30
20
20
40
40
80
60
ENDCHAR
STARTCHAR iogonek
ENCODING 303
SWIDTH 237 0
DWIDTH 4 0
BBX 6 17 -1 -4
BITMAP
08
0C
00
00
18
10
10
10
30
30
20
20
20
40
40
80
E0
ENDCHAR
STARTCHAR Idotaccent
ENCODING 304
SWIDTH 252 0
DWIDTH 5 0
BBX 4 14 1 0
BITMAP
30
00
20
20
60
60
60
40
40
40
C0
C0
80
80
ENDCHAR
STARTCHAR dotlessi
ENCODING 305
SWIDTH 237 0
DWIDTH 4 0
BBX 3 9 1 0
BITMAP
60
40
40
40
C0
C0
80
80
80
ENDCHAR
STARTCHAR Jcircumflex
ENCODING 308
SWIDTH 456 0
DWIDTH 8 0
BBX 10 15 0 0
BITMAP
0180
02C0
0440
0100
0100
0300
0300
0200
0200
0200
0600
0600
0400
8C00
7800
ENDCHAR
STARTCHAR jcircumflex
ENCODING 309
SWIDTH 238 0
DWIDTH 4 0
BBX 8 17 -2 -4
BITMAP
06
0A
11
00
0C
08
08
08
18
18
10
10
10
30
30
20
E0
ENDCHAR
STARTCHAR uni0136
ENCODING 310
SWIDTH 559 0
DWIDTH 10 0
BBX 10 16 1 -4
BITMAP
20C0
2100
6200
6400
6800
5C00
6400
4400
C600
C200
8200
8300
0000
1800
0800
3000
ENDCHAR
STARTCHAR uni0137
ENCODING 311
SWIDTH 476 0
DWIDTH 9 0
BBX 8 17 1 -4
BITMAP
30
20
20
60
63
44
4C
58
F8
E8
C8
8C
84
00
30
10
60
ENDCHAR
STARTCHAR kgreenlandic
ENCODING 312
SWIDTH 476 0
DWIDTH 9 0
BBX 8 9 1 0
BITMAP
63
44
4C
58
F8
E8
C8
84
84
ENDCHAR
STARTCHAR Lacute
ENCODING 313
SWIDTH 462 0
DWIDTH 8 0
BBX 6 16 1 0
BITMAP
08
1C
20
00
20
20
60
60
60
40
40
40
C0
C0
80
FC
ENDCHAR
STARTCHAR lacute
ENCODING 314
SWIDTH 248 0
DWIDTH 4 0
BBX 6 17 1 0
BITMAP
08
1C
20
00
30
20
20
60
60
40
40
40
C0
C0
80
80
C0
ENDCHAR
STARTCHAR uni013B
ENCODING 315
SWIDTH 462 0
DWIDTH 8 0
BBX 6 16 1 -4
BITMAP
20
20
60
60
60
40
40
40
C0
C0
80
FC
00
30
10
60
ENDCHAR
STARTCHAR uni013C
ENCODING 316
SWIDTH 248 0
DWIDTH 4 0
BBX 6 17 -1 -4
BITMAP
0C
08
08
18
18
10
10
10
30
30
20
20
30
00
60
20
C0
ENDCHAR
STARTCHAR Lcaron
ENCODING 317
SWIDTH 462 0
DWIDTH 8 0
BBX 7 13 1 0
BITMAP
02
22
22
62
60
60
40
40
40
C0
C0
80
FC
ENDCHAR
STARTCHAR lcaron
ENCODING 318
SWIDTH 242 0
DWIDTH 4 0
BBX 5 14 1 0
BITMAP
08
38
28
28
60
60
40
40
40
C0
C0
80
80
C0
ENDCHAR
STARTCHAR Ldot
ENCODING 319
SWIDTH 462 0
DWIDTH 8 0
BBX 7 12 1 0
BITMAP
20
20
60
60
60
46
46
40
C0
C0
80
FC
ENDCHAR
STARTCHAR ldot
ENCODING 320
SWIDTH 331 0
DWIDTH 6 0
BBX 5 13 1 0
BITMAP
30
20
20
60
60
40
48
58
C0
C0
80
80
C0
ENDCHAR
STARTCHAR Lslash
ENCODING 321
SWIDTH 462 0
DWIDTH 8 0
BBX 7 12 0 0
BITMAP
10
10
10
30
36
28
30
E0
E0
60
40
7E
ENDCHAR
STARTCHAR lslash
ENCODING 322
SWIDTH 252 0
DWIDTH 5 0
BBX 5 13 0 0
BITMAP
18
10
10
10
38
30
60
A0
60
60
40
40
60
ENDCHAR
STARTCHAR Nacute
ENCODING 323
SWIDTH 619 0
DWIDTH 11 0
BBX 10 16 1 0
BITMAP
0080
0300
0600
0000
3040
30C0
70C0
7880
4880
4880
4D80
4580
C500
8700
8300
8300
ENDCHAR
STARTCHAR nacute
ENCODING 324
SWIDTH 525 0
DWIDTH 9 0
BBX 8 14 1 0
BITMAP
02
03
04
08
00
4E
72
43
42
C2
C2
86
86
84
ENDCHAR
STARTCHAR uni0145
ENCODING 325
SWIDTH 619 0
DWIDTH 11 0
BBX 10 16 1 -4
BITMAP
3040
30C0
70C0
7880
4880
4880
4D80
4580
C500
8700
8300
8300
0000
1800
0800
3000
ENDCHAR
STARTCHAR uni0146
ENCODING 326
SWIDTH 525 0
DWIDTH 9 0
BBX 8 13 1 -4
BITMAP
4E
72
43
42
C2
C2
86
86
84
00
30
10
60
ENDCHAR
STARTCHAR Ncaron
ENCODING 327
SWIDTH 619 0
DWIDTH 11 0
BBX 10 16 1 0
BITMAP
0880
0D00
0600
0000
3040
30C0
70C0
7880
4880
4880
4D80
4580
C500
8700
8300
8300
ENDCHAR
STARTCHAR ncaron
ENCODING 328
SWIDTH 525 0
DWIDTH 9 0
BBX 8 13 1 0
BITMAP
11
1A
0C
00
4E
72
43
42
C2
C2
86
86
84
ENDCHAR
STARTCHAR napostrophe
ENCODING 329
SWIDTH 739 0
DWIDTH 13 0
BBX 10 12 2 0
BITMAP
6000
2000
4000
89C0
0E40
0840
0840
1840
18C0
10C0
1080
3080
ENDCHAR
STARTCHAR Omacron
ENCODING 332
SWIDTH 633 0
DWIDTH 11 0
BBX 10 14 1 0
BITMAP
0F80
0000
0F00
3180
20C0
40C0
40C0
C0C0
C0C0
C080
C080
C100
6300
3C00
ENDCHAR
STARTCHAR omacron
ENCODING 333
SWIDTH 515 0
DWIDTH 9 0
BBX 8 12 1 0
BITMAP
1E
00
00
1C
62
C2
83
82
82
86
CC
78
ENDCHAR
STARTCHAR uni014E
ENCODING 334
SWIDTH 633 0
DWIDTH 11 0
BBX 10 16 1 0
BITMAP
0880
0880
0700
0000
0F00
3180
20C0
40C0
40C0
C0C0
C0C0
C080
C080
C100
6300
3C00
ENDCHAR
STARTCHAR uni014F
ENCODING 335
SWIDTH 515 0
DWIDTH 9 0
BBX 8 13 1 0
BITMAP
11
13
1E
00
1C
62
C2
83
82
82
86
CC
78
ENDCHAR
STARTCHAR Ohungarumlaut
ENCODING 336
SWIDTH 633 0
DWIDTH 11 0
BBX 11 16 1 0
BITMAP
0240
0760
0480
0100
0F00
3180
20C0
40C0
40C0
C0C0
C0C0
C080
C080
C100
6300
3C00
ENDCHAR
STARTCHAR ohungarumlaut
ENCODING 337
SWIDTH 515 0
DWIDTH 9 0
BBX 9 13 1 0
BITMAP
0580
0D00
0A00
1000
1C00
6200
C200
8300
8200
8200
8600
CC00
7800
ENDCHAR
STARTCHAR OE
ENCODING 338
SWIDTH 816 0
DWIDTH 15 0
BBX 14 12 1 0
BITMAP
0FFC
3080
6180
4180
C100
C1F0
C100
C100
C300
C200
6200
3FF0
ENDCHAR
STARTCHAR oe
ENCODING 339
SWIDTH 812 0
DWIDTH 15 0
BBX 13 9 1 0
BITMAP
3C70
6698
C308
8308
83F8
8200
8600
CD10
79E0
ENDCHAR
STARTCHAR Racute
ENCODING 340
SWIDTH 555 0
DWIDTH 10 0
BBX 9 16 1 0
BITMAP
0100
0300
0400
0000
3F00
2180
6180
6180
6180
4300
7E00
4C00
C400
C400
8600
8300
ENDCHAR
STARTCHAR racute
ENCODING 341
SWIDTH 342 0
DWIDTH 6 0
BBX 6 14 1 0
BITMAP
04
0C
18
10
00
4C
70
40
40
C0
C0
80
80
80
ENDCHAR
STARTCHAR uni0156
ENCODING 342
SWIDTH 555 0
DWIDTH 10 0
BBX 9 16 1 -4
BITMAP
3F00
2180
6180
6180
6180
4300
7E00
4C00
C400
C400
8600
8200
0100
1000
3800
7000
ENDCHAR
STARTCHAR uni0157
ENCODING 343
SWIDTH 342 0
DWIDTH 6 0
BBX 8 13 -1 -4
BITMAP
13
1C
10
10
30
30
20
20
20
00
60
20
C0
ENDCHAR
STARTCHAR Rcaron
ENCODING 344
SWIDTH 555 0
DWIDTH 10 0
BBX 9 16 1 0
BITMAP
1100
0B80
0E00
0000
3F00
2180
6180
6180
6180
4300
7E00
4C00
C400
C400
8600
8300
ENDCHAR
STARTCHAR rcaron
ENCODING 345
SWIDTH 342 0
DWIDTH 6 0
BBX 7 13 1 0
BITMAP
42
2C
18
00
4C
70
40
40
C0
C0
80
80
80
ENDCHAR
STARTCHAR Sacute
ENCODING 346
SWIDTH 506 0
DWIDTH 9 0
BBX 9 16 0 0
BITMAP
0080
0300
0600
0000
0F00
1180
3000
3000
3000
1C00
0700
0300
0100
8100
4300
3C00
ENDCHAR
STARTCHAR sacute
ENCODING 347
SWIDTH 402 0
DWIDTH 7 0
BBX 8 14 0 0
BITMAP
02
07
0C
08
00
3C
26
60
20
18
0C
04
CC
78
ENDCHAR
STARTCHAR Scircumflex
ENCODING 348
SWIDTH 506 0
DWIDTH 9 0
BBX 9 15 0 0
BITMAP
0700
0D80
0880
0F00
1180
3000
3000
3000
1C00
0700
0300
0100
8100
4300
3C00
ENDCHAR
STARTCHAR scircumflex
ENCODING 349
SWIDTH 402 0
DWIDTH 7 0
BBX 8 13 0 0
BITMAP
0C
1A
21
00
3C
26
60
20
18
0C
04
CC
78
ENDCHAR
STARTCHAR uni015E
ENCODING 350
SWIDTH 506 0
DWIDTH 9 0
BBX 9 16 0 -4
BITMAP
0F00
1180
3000
3000
3000
1C00
0700
0300
0100
8100
4300
3C00
1000
1800
0800
3000
ENDCHAR
STARTCHAR uni015F
ENCODING 351
SWIDTH 402 0
DWIDTH 7 0
BBX 7 13 0 -4
BITMAP
3C
26
60
20
18
0C
04
CC
78
20
30
10
60
ENDCHAR
STARTCHAR Scaron
ENCODING 352
SWIDTH 506 0
DWIDTH 9 0
BBX 9 16 0 0
BITMAP
0880
0D80
0600
0000
0F00
1180
3000
3000
3000
1C00
0700
0300
0100
8100
4300
3C00
ENDCHAR
STARTCHAR scaron
ENCODING 353
SWIDTH 402 0
DWIDTH 7 0
BBX 8 13 0 0
BITMAP
31
16
0C
00
3C
26
60
20
18
0C
04
CC
78
ENDCHAR
STARTCHAR uni0162
ENCODING 354
SWIDTH 510 0
DWIDTH 9 0
BBX 9 16 1 -4
BITMAP
7F80
0800
0800
0800
1800
1800
1000
1000
1000
3000
3000
2000
2000
6000
2000
E000
ENDCHAR
STARTCHAR uni0163
ENCODING 355
SWIDTH 325 0
DWIDTH 6 0
BBX 5 15 1 -4
BITMAP
20
20
F8
60
40
40
40
C0
C0
C0
70
40
60
20
C0
ENDCHAR
STARTCHAR Tcaron
ENCODING 356
SWIDTH 510 0
DWIDTH 9 0
BBX 8 16 2 0
BITMAP
22
34
18
00
FF
10
10
10
30
30
20
20
20
60
60
40
ENDCHAR
STARTCHAR tcaron
ENCODING 357
SWIDTH 325 0
DWIDTH 6 0
BBX 6 14 1 0
BITMAP
04
04
04
28
20
F8
60
40
40
40
C0
C0
C0
70
ENDCHAR
STARTCHAR Utilde
ENCODING 360
SWIDTH 616 0
DWIDTH 11 0
BBX 10 15 1 0
BITMAP
0EC0
1380
0000
2040
20C0
60C0
6080
4080
4080
4180
C180
C100
4100
6200
3C00
ENDCHAR
STARTCHAR utilde
ENCODING 361
SWIDTH 528 0
DWIDTH 10 0
BBX 8 12 1 0
BITMAP
3D
27
00
63
43
42
42
C2
C6
86
CC
74
ENDCHAR
STARTCHAR Umacron
ENCODING 362
SWIDTH 616 0
DWIDTH 11 0
BBX 10 14 1 0
BITMAP
0F80
0000
2040
20C0
60C0
6080
4080
4080
4180
C180
C100
4100
6200
3C00
ENDCHAR
STARTCHAR umacron
ENCODING 363
SWIDTH 528 0
DWIDTH 10 0
BBX 8 12 1 0
BITMAP
1E
00
00
63
43
42
42
C2
C6
86
CC
74
ENDCHAR
STARTCHAR Ubreve
ENCODING 364
SWIDTH 616 0
DWIDTH 11 0
BBX 10 16 1 0
BITMAP
0900
0880
0700
0000
2040
20C0
60C0
6080
4080
4080
4180
C180
C100
4100
6200
3C00
ENDCHAR
STARTCHAR ubreve
ENCODING 365
SWIDTH 528 0
DWIDTH 10 0
BBX 8 13 1 0
BITMAP
21
13
1E
00
63
43
42
42
C2
C6
86
CC
74
ENDCHAR
STARTCHAR Uring
ENCODING 366
SWIDTH 616 0
DWIDTH 11 0
BBX 10 16 1 0
BITMAP
0700
0500
0500
0600
2040
20C0
60C0
6080
4080
4080
4180
C180
C100
4100
6200
3C00
ENDCHAR
STARTCHAR uring
ENCODING 367
SWIDTH 528 0
DWIDTH 10 0
BBX 8 14 1 0
BITMAP
0E
12
12
0C
00
63
43
42
42
C2
C6
86
CC
74
ENDCHAR
STARTCHAR Uhungarumlaut
ENCODING 368
SWIDTH 616 0
DWIDTH 11 0
BBX 10 16 1 0
BITMAP
0240
06C0
0C80
0100
2040
20C0
60C0
6080
4080
4080
4180
C180
C100
4100
6200
3C00
ENDCHAR
STARTCHAR uhungarumlaut
ENCODING 369
SWIDTH 528 0
DWIDTH 10 0
BBX 9 13 1 0
BITMAP
0580
0900
1A00
0000
6300
4300
4200
4200
C200
C600
8600
CC00
7400
ENDCHAR
STARTCHAR Uogonek
ENCODING 370
SWIDTH 616 0
DWIDTH 11 0
BBX 10 16 1 -4
BITMAP
2040
20C0
60C0
6080
4080
4080
4180
C180
C100
4100
6200
3C00
1000
2000
2000
3800
ENDCHAR
STARTCHAR uogonek
ENCODING 371
SWIDTH 528 0
DWIDTH 10 0
BBX 8 13 1 -4
BITMAP
63
43
42
42
C2
C6
86
CC
74
08
10
10
1C
ENDCHAR
STARTCHAR Wcircumflex
ENCODING 372
SWIDTH 756 0
DWIDTH 14 0
BBX 13 15 2 0
BITMAP
0700
0D80
0880
8618
8610
8630
8A20
8A60
9240
9240
A2C0
A280
E280
C300
C300
ENDCHAR
STARTCHAR wcircumflex
ENCODING 373
SWIDTH 707 0
DWIDTH 13 0
BBX 12 13 1 0
BITMAP
0300
0580
0880
0000
C630
C620
CA60
4A40
5240
5280
5280
6300
6300
ENDCHAR
STARTCHAR Ycircumflex
ENCODING 374
SWIDTH 461 0
DWIDTH 8 0
BBX 9 15 1 0
BITMAP
0C00
1600
2200
C180
4300
6200
6400
2C00
2800
3000
3000
3000
2000
2000
6000
ENDCHAR
STARTCHAR ycircumflex
ENCODING 375
SWIDTH 448 0
DWIDTH 8 0
BBX 10 17 -1 -4
BITMAP
0700
0D00
1880
0000
30C0
3080
1100
1100
1200
1200
1400
1400
0800
1800
1000
3000
C000
ENDCHAR
STARTCHAR Ydieresis
ENCODING 376
SWIDTH 461 0
DWIDTH 8 0
BBX 9 14 1 0
BITMAP
3200
0000
C180
4300
6200
6400
2C00
2800
3000
3000
3000
2000
2000
6000
ENDCHAR
STARTCHAR Zacute
ENCODING 377
SWIDTH 512 0
DWIDTH 9 0
BBX 10 16 0 0
BITMAP
0080
0300
0600
0000
1FC0
2180
0100
0200
0600
0C00
0800
1800
3000
2000
4000
FF00
ENDCHAR
STARTCHAR zacute
ENCODING 378
SWIDTH 410 0
DWIDTH 7 0
BBX 8 14 0 0
BITMAP
02
03
04
08
00
3F
06
04
08
18
30
60
40
FC
ENDCHAR
STARTCHAR Zdotaccent
ENCODING 379
SWIDTH 512 0
DWIDTH 9 0
BBX 10 14 0 0
BITMAP
0600
0000
1FC0
2180
0100
0200
0600
0C00
0800
1800
3000
2000
4000
FF00
ENDCHAR
STARTCHAR zdotaccent
ENCODING 380
SWIDTH 410 0
DWIDTH 7 0
BBX 8 12 0 0
BITMAP
0C
00
00
3F
06
04
08
18
30
60
40
FC
ENDCHAR
STARTCHAR Zcaron
ENCODING 381
SWIDTH 512 0
DWIDTH 9 0
BBX 10 16 0 0
BITMAP
0880
0D80
0600
0000
1FC0
2180
0100
0200
0600
0C00
0800
1800
3000
2000
4000
FF00
ENDCHAR
STARTCHAR zcaron
ENCODING 382
SWIDTH 410 0
DWIDTH 7 0
BBX 8 13 0 0
BITMAP
11
1A
0C
00
3F
06
04
08
18
30
60
40
FC
ENDCHAR
STARTCHAR uni0180
ENCODING 384
SWIDTH 519 0
DWIDTH 9 0
BBX 8 13 1 0
BITMAP
30
20
FC
20
6E
73
43
43
C3
C2
86
C4
B8
ENDCHAR
STARTCHAR uni018F
ENCODING 399
SWIDTH 636 0
DWIDTH 11 0
BBX 10 12 1 0
BITMAP
0F00
3180
00C0
00C0
0040
0040
FFC0
80C0
8080
C180
6300
3C00
ENDCHAR
STARTCHAR uni0192
ENCODING 402
SWIDTH 480 0
DWIDTH 9 0
BBX 10 14 -1 -2
BITMAP
01C0
0100
0200
0200
0600
1F80
0400
0C00
0800
0800
0800
1000
1000
E000
ENDCHAR
STARTCHAR Ohorn
ENCODING 416
SWIDTH 633 0
DWIDTH 11 0
BBX 11 14 1 0
BITMAP
0020
0020
0FC0
3180
20C0
40C0
40C0
C0C0
C0C0
C080
C080
C100
6300
3C00
ENDCHAR
STARTCHAR ohorn
ENCODING 417
SWIDTH 517 0
DWIDTH 9 0
BBX 9 12 1 0
BITMAP
0080
0080
0180
1F00
6200
C200
8300
8200
8200
8600
CC00
7800
ENDCHAR
STARTCHAR Uhorn
ENCODING 431
SWIDTH 629 0
DWIDTH 11 0
BBX 12 15 1 0
BITMAP
0010
0010
0010
2060
20C0
60C0
6080
4080
4080
4180
C180
C100
4100
6200
3C00
ENDCHAR
STARTCHAR uhorn
ENCODING 432
SWIDTH 543 0
DWIDTH 10 0
BBX 10 12 1 0
BITMAP
0040
0040
0080
6300
4300
4200
4200
C200
C600
8600
CC00
7400
ENDCHAR
STARTCHAR uni01CD
ENCODING 461
SWIDTH 510 0
DWIDTH 9 0
BBX 10 16 -1 0
BITMAP
0440
0680
0300
0000
0300
0300
0500
0500
0980
0980
1080
3F80
2080
6080
4080
C080
ENDCHAR
STARTCHAR uni01CE
ENCODING 462
SWIDTH 537 0
DWIDTH 10 0
BBX 8 13 1 0
BITMAP
31
16
0C
00
1D
63
43
C2
82
82
86
CE
74
ENDCHAR
STARTCHAR uni01CF
ENCODING 463
SWIDTH 252 0
DWIDTH 5 0
BBX 6 16 1 0
BITMAP
88
5C
30
00
20
20
60
60
60
40
40
40
C0
C0
80
80
ENDCHAR
STARTCHAR uni01D0
ENCODING 464
SWIDTH 237 0
DWIDTH 4 0
BBX 5 13 1 0
BITMAP
88
50
60
00
60
40
40
40
C0
C0
80
80
80
ENDCHAR
STARTCHAR uni01D1
ENCODING 465
SWIDTH 633 0
DWIDTH 11 0
BBX 10 16 1 0
BITMAP
0880
0D80
0700
0000
0F00
3180
20C0
40C0
40C0
C0C0
C0C0
C080
C080
C100
6300
3C00
ENDCHAR
STARTCHAR uni01D2
ENCODING 466
SWIDTH 515 0
DWIDTH 9 0
BBX 8 13 1 0
BITMAP
31
12
0C
00
1C
62
C2
83
82
82
86
CC
78
ENDCHAR
STARTCHAR uni01D3
ENCODING 467
SWIDTH 616 0
DWIDTH 11 0
BBX 10 16 1 0
BITMAP
0880
0D00
0600
0000
2040
20C0
60C0
6080
4080
4080
4180
C180
C100
4100
6200
3C00
ENDCHAR
STARTCHAR uni01D4
ENCODING 468
SWIDTH 528 0
DWIDTH 10 0
BBX 8 13 1 0
BITMAP
31
16
0C
00
63
43
42
42
C2
C6
86
CC
74
ENDCHAR
STARTCHAR uni01D5
ENCODING 469
SWIDTH 616 0
DWIDTH 11 0
BBX 10 16 1 0
BITMAP
0F80
0000
0980
0000
2040
20C0
60C0
6080
4080
4080
4180
C180
C100
4100
6200
3C00
ENDCHAR
STARTCHAR uni01D6
ENCODING 470
SWIDTH 528 0
DWIDTH 10 0
BBX 8 14 1 0
BITMAP
1F
00
12
00
00
63
43
42
42
C2
C6
86
CC
74
ENDCHAR
STARTCHAR uni01D7
ENCODING 471
SWIDTH 616 0
DWIDTH 11 0
BBX 10 17 1 0
BITMAP
0180
0200
0000
0980
0000
2040
20C0
60C0
6080
4080
4080
4180
C180
C100
4100
6200
3C00
ENDCHAR
STARTCHAR uni01D8
ENCODING 472
SWIDTH 528 0
DWIDTH 10 0
BBX 8 15 1 0
BITMAP
02
04
00
12
00
00
63
43
42
42
C2
C6
86
CC
74
ENDCHAR
STARTCHAR uni01D9
ENCODING 473
SWIDTH 616 0
DWIDTH 11 0
BBX 10 17 1 0
BITMAP
0580
0300
0000
0980
0000
2040
20C0
60C0
6080
4080
4080
4180
C180
C100
4100
6200
3C00
ENDCHAR
STARTCHAR uni01DA
ENCODING 474
SWIDTH 528 0
DWIDTH 10 0
BBX 8 15 1 0
BITMAP
1B
0E
00
12
00
00
63
43
42
42
C2
C6
86
CC
74
ENDCHAR
STARTCHAR uni01DB
ENCODING 475
SWIDTH 616 0
DWIDTH 11 0
BBX 10 17 1 0
BITMAP
0400
0200
0000
0980
0000
2040
20C0
60C0
6080
4080
4080
4180
C180
C100
4100
6200
3C00
ENDCHAR
STARTCHAR uni01DC
ENCODING 476
SWIDTH 528 0
DWIDTH 10 0
BBX 8 15 1 0
BITMAP
08
04
00
12
00
00
63
43
42
42
C2
C6
86
CC
74
ENDCHAR
STARTCHAR Gcaron
ENCODING 486
SWIDTH 588 0
DWIDTH 11 0
BBX 9 16 1 0
BITMAP
0880
0D80
0700
0000
0F00
3080
2000
4000
4000
C000
C780
8100
C100
C100
6300
3E00
ENDCHAR
STARTCHAR gcaron
ENCODING 487
SWIDTH 531 0
DWIDTH 10 0
BBX 9 17 0 -4
BITMAP
1880
0B00
0600
0000
0E80
3180
2100
6100
4100
4100
4300
6600
3A00
0200
0600
8400
7800
ENDCHAR
STARTCHAR uni01EA
ENCODING 490
SWIDTH 633 0
DWIDTH 11 0
BBX 10 16 1 -4
BITMAP
0F00
3180
20C0
40C0
40C0
C0C0
C0C0
C080
C080
C100
6300
3C00
1000
1000
2000
3800
ENDCHAR
STARTCHAR uni01EB
ENCODING 491
SWIDTH 515 0
DWIDTH 9 0
BBX 8 13 1 -4
BITMAP
1C
62
C2
83
82
82
86
CC
78
20
40
40
70
ENDCHAR
STARTCHAR uni0218
ENCODING 536
SWIDTH 506 0
DWIDTH 9 0
BBX 9 16 0 -4
BITMAP
0F00
1180
3000
3000
3000
1C00
0700
0300
0100
8100
4300
3C00
0000
1800
0800
3000
ENDCHAR
STARTCHAR uni0219
ENCODING 537
SWIDTH 402 0
DWIDTH 7 0
BBX 7 13 0 -4
BITMAP
3C
26
60
20
18
0C
04
CC
78
00
30
10
60
ENDCHAR
STARTCHAR uni021A
ENCODING 538
SWIDTH 510 0
DWIDTH 9 0
BBX 9 16 1 -4
BITMAP
7F80
0800
0800
0800
1800
1800
1000
1000
1000
3000
3000
2000
0000
3000
5000
E000
ENDCHAR
STARTCHAR uni021B
ENCODING 539
SWIDTH 325 0
DWIDTH 6 0
BBX 5 15 1 -4
BITMAP
20
20
F8
60
40
40
40
C0
C0
C0
70
00
60
20
C0
ENDCHAR
STARTCHAR uni0237
ENCODING 567
SWIDTH 238 0
DWIDTH 4 0
BBX 6 13 -2 -4
BITMAP
0C
08
08
08
18
18
10
10
10
30
30
20
E0
ENDCHAR
STARTCHAR uni0243
ENCODING 579
SWIDTH 610 0
DWIDTH 11 0
BBX 10 12 0 0
BITMAP
1F80
10C0
1040
1040
3080
3F00
2180
20C0
FCC0
6080
6180
7E00
ENDCHAR
STARTCHAR uni0251
ENCODING 593
SWIDTH 537 0
DWIDTH 10 0
BBX 8 9 1 0
BITMAP
1D
63
43
C2
82
82
86
CE
74
ENDCHAR
STARTCHAR uni0259
ENCODING 601
SWIDTH 478 0
DWIDTH 9 0
BBX 8 9 0 0
BITMAP
1E
22
03
01
7F
43
C2
44
38
ENDCHAR
STARTCHAR uni0261
ENCODING 609
SWIDTH 531 0
DWIDTH 10 0
BBX 9 13 0 -4
BITMAP
0E80
3180
2100
6100
4100
4100
4300
6600
3A00
0200
0600
8400
7800
ENDCHAR
STARTCHAR h.sups
ENCODING 688
SWIDTH 353 0
DWIDTH 6 0
BBX 5 8 1 7
BITMAP
20
40
58
68
48
48
88
88
ENDCHAR
STARTCHAR j.sups
ENCODING 690
SWIDTH 164 0
DWIDTH 3 0
BBX 5 11 -1 4
BITMAP
18
00
10
10
10
10
20
20
20
20
C0
ENDCHAR
STARTCHAR r.sups
ENCODING 691
SWIDTH 224 0
DWIDTH 4 0
BBX 4 6 1 7
BITMAP
70
40
40
C0
80
80
ENDCHAR
STARTCHAR w.sups
ENCODING 695
SWIDTH 479 0
DWIDTH 9 0
BBX 8 6 1 7
BITMAP
89
59
5A
6A
6C
44
ENDCHAR
STARTCHAR y.sups
ENCODING 696
SWIDTH 307 0
DWIDTH 6 0
BBX 7 9 0 4
BITMAP
42
24
28
28
30
30
20
20
C0
ENDCHAR
STARTCHAR uni02B9
ENCODING 697
SWIDTH 242 0
DWIDTH 4 0
BBX 3 5 2 8
BITMAP
60
40
40
C0
80
ENDCHAR
STARTCHAR uni02BB
ENCODING 699
SWIDTH 242 0
DWIDTH 4 0
BBX 3 4 2 8
BITMAP
40
60
80
C0
ENDCHAR
STARTCHAR uni02BC
ENCODING 700
SWIDTH 242 0
DWIDTH 4 0
BBX 3 4 2 8
BITMAP
60
20
40
80
ENDCHAR
STARTCHAR uni02BE
ENCODING 702
SWIDTH 151 0
DWIDTH 3 0
BBX 2 4 2 9
BITMAP
C0
40
40
80
ENDCHAR
STARTCHAR uni02BF
ENCODING 703
SWIDTH 163 0
DWIDTH 3 0
BBX 2 4 2 9
BITMAP
C0
80
80
80
ENDCHAR
STARTCHAR circumflex
ENCODING 710
SWIDTH 517 0
DWIDTH 9 0
BBX 6 3 3 10
BITMAP
38
68
C4
ENDCHAR
STARTCHAR caron
ENCODING 711
SWIDTH 517 0
DWIDTH 9 0
BBX 6 3 3 10
BITMAP
C4
48
30
ENDCHAR
STARTCHAR uni02C8
ENCODING 712
SWIDTH 108 0
DWIDTH 2 0
BBX 1 3 2 10
BITMAP
80
80
80
ENDCHAR
STARTCHAR uni02C9
ENCODING 713
SWIDTH 262 0
DWIDTH 5 0
BBX 5 1 1 11
BITMAP
F8
ENDCHAR
STARTCHAR uni02CA
ENCODING 714
SWIDTH 213 0
DWIDTH 4 0
BBX 4 4 2 10
BITMAP
20
30
40
80
ENDCHAR
STARTCHAR uni02CB
ENCODING 715
SWIDTH 213 0
DWIDTH 4 0
BBX 4 4 1 10
BITMAP
40
C0
20
30
ENDCHAR
STARTCHAR uni02CC
ENCODING 716
SWIDTH 108 0
DWIDTH 2 0
BBX 1 3 -1 -4
BITMAP
80
80
80
ENDCHAR
STARTCHAR breve
ENCODING 728
SWIDTH 517 0
DWIDTH 9 0
BBX 5 3 4 10
BITMAP
88
98
F0
ENDCHAR
STARTCHAR dotaccent
ENCODING 729
SWIDTH 517 0
DWIDTH 9 0
BBX 2 1 5 11
BITMAP
C0
ENDCHAR
STARTCHAR ring
ENCODING 730
SWIDTH 517 0
DWIDTH 9 0
BBX 4 4 4 10
BITMAP
70
90
90
60
ENDCHAR
STARTCHAR ogonek
ENCODING 731
SWIDTH 517 0
DWIDTH 9 0
BBX 3 4 2 -4
BITMAP
60
80
80
E0
ENDCHAR
STARTCHAR tilde
ENCODING 732
SWIDTH 517 0
DWIDTH 9 0
BBX 7 2 3 10
BITMAP
76
9C
ENDCHAR
STARTCHAR hungarumlaut
ENCODING 733
SWIDTH 517 0
DWIDTH 9 0
BBX 6 3 4 10
BITMAP
2C
68
D0
ENDCHAR
STARTCHAR l.sups
ENCODING 737
SWIDTH 165 0
DWIDTH 3 0
BBX 3 9 1 7
BITMAP
20
40
40
40
40
40
80
80
C0
ENDCHAR
STARTCHAR s.sups
ENCODING 738
SWIDTH 271 0
DWIDTH 5 0
BBX 5 6 0 7
BITMAP
38
68
20
18
88
70
ENDCHAR
STARTCHAR x.sups
ENCODING 739
SWIDTH 295 0
DWIDTH 5 0
BBX 6 6 0 7
BITMAP
24
28
10
30
48
C8
ENDCHAR
STARTCHAR uni0300
ENCODING 768
SWIDTH 0 0
DWIDTH 0 0
BBX 4 4 0 10
BITMAP
40
C0
20
30
ENDCHAR
STARTCHAR uni0301
ENCODING 769
SWIDTH 0 0
DWIDTH 0 0
BBX 4 4 1 10
BITMAP
20
30
40
80
ENDCHAR
STARTCHAR uni0302
ENCODING 770
SWIDTH 0 0
DWIDTH 0 0
BBX 6 3 -1 10
BITMAP
38
68
C4
ENDCHAR
STARTCHAR uni0303
ENCODING 771
SWIDTH 0 0
DWIDTH 0 0
BBX 7 2 -1 10
BITMAP
76
9C
ENDCHAR
STARTCHAR uni0304
ENCODING 772
SWIDTH 0 0
DWIDTH 0 0
BBX 5 1 0 11
BITMAP
F8
ENDCHAR
STARTCHAR uni0306
ENCODING 774
SWIDTH 0 0
DWIDTH 0 0
BBX 5 3 0 10
BITMAP
88
88
F0
ENDCHAR
STARTCHAR uni0307
ENCODING 775
SWIDTH 0 0
DWIDTH 0 0
BBX 2 1 1 11
BITMAP
C0
ENDCHAR
STARTCHAR uni0308
ENCODING 776
SWIDTH 0 0
DWIDTH 0 0
BBX 5 1 0 11
BITMAP
98
ENDCHAR
STARTCHAR uni0309
ENCODING 777
SWIDTH 0 0
DWIDTH 0 0
BBX 3 3 1 11
BITMAP
C0
20
C0
ENDCHAR
STARTCHAR uni030A
ENCODING 778
SWIDTH 0 0
DWIDTH 0 0
BBX 4 4 0 10
BITMAP
70
50
90
60
ENDCHAR
STARTCHAR uni030B
ENCODING 779
SWIDTH 0 0
DWIDTH 0 0
BBX 6 3 0 10
BITMAP
24
68
D0
ENDCHAR
STARTCHAR uni030C
ENCODING 780
SWIDTH 0 0
DWIDTH 0 0
BBX 5 3 0 10
BITMAP
88
D0
60
ENDCHAR
STARTCHAR uni030F
ENCODING 783
SWIDTH 0 0
DWIDTH 0 0
BBX 5 4 -1 10
BITMAP
90
90
50
48
ENDCHAR
STARTCHAR uni0312
ENCODING 786
SWIDTH 0 0
DWIDTH 0 0
BBX 2 3 1 10
BITMAP
40
80
C0
ENDCHAR
STARTCHAR uni0313
ENCODING 787
SWIDTH 0 0
DWIDTH 0 0
BBX 2 3 1 10
BITMAP
40
40
C0
ENDCHAR
STARTCHAR uni031B
ENCODING 795
SWIDTH 0 0
DWIDTH 0 0
BBX 3 3 1 8
BITMAP
20
20
C0
ENDCHAR
STARTCHAR uni0323
ENCODING 803
SWIDTH 0 0
DWIDTH 0 0
BBX 2 1 -2 -3
BITMAP
C0
ENDCHAR
STARTCHAR uni0324
ENCODING 804
SWIDTH 0 0
DWIDTH 0 0
BBX 5 1 -3 -3
BITMAP
D8
ENDCHAR
STARTCHAR uni0326
ENCODING 806
SWIDTH 0 0
DWIDTH 0 0
BBX 3 3 -2 -4
BITMAP
60
20
C0
ENDCHAR
STARTCHAR uni0327
ENCODING 807
SWIDTH 0 0
DWIDTH 0 0
BBX 3 4 -2 -4
BITMAP
60
E0
20
C0
ENDCHAR
STARTCHAR uni0328
ENCODING 808
SWIDTH 0 0
DWIDTH 0 0
BBX 3 4 -2 -4
BITMAP
60
80
80
E0
ENDCHAR
STARTCHAR uni032E
ENCODING 814
SWIDTH 0 0
DWIDTH 0 0
BBX 6 3 -3 -4
BITMAP
8C
88
70
ENDCHAR
STARTCHAR uni0331
ENCODING 817
SWIDTH 0 0
DWIDTH 0 0
BBX 5 1 -3 -3
BITMAP
F8
ENDCHAR
STARTCHAR pi
ENCODING 960
SWIDTH 558 0
DWIDTH 10 0
BBX 9 9 1 0
BITMAP
FF80
2300
2200
6200
4200
4600
4400
C400
8600
ENDCHAR
STARTCHAR a.sups
ENCODING 7491
SWIDTH 354 0
DWIDTH 6 0
BBX 5 6 2 7
BITMAP
78
C8
88
98
90
F0
ENDCHAR
STARTCHAR b.sups
ENCODING 7495
SWIDTH 360 0
DWIDTH 6 0
BBX 6 8 1 7
BITMAP
20
40
58
6C
44
C8
C8
F0
ENDCHAR
STARTCHAR d.sups
ENCODING 7496
SWIDTH 365 0
DWIDTH 7 0
BBX 6 8 1 7
BITMAP
04
04
34
48
88
88
98
68
ENDCHAR
STARTCHAR e.sups
ENCODING 7497
SWIDTH 323 0
DWIDTH 6 0
BBX 5 6 1 7
BITMAP
30
48
88
F8
80
70
ENDCHAR
STARTCHAR g.sups
ENCODING 7501
SWIDTH 354 0
DWIDTH 6 0
BBX 6 9 1 4
BITMAP
34
48
88
88
98
68
18
90
E0
ENDCHAR
STARTCHAR k.sups
ENCODING 7503
SWIDTH 325 0
DWIDTH 6 0
BBX 6 8 1 7
BITMAP
20
40
40
5C
70
70
90
88
ENDCHAR
STARTCHAR m.sups
ENCODING 7504
SWIDTH 536 0
DWIDTH 10 0
BBX 9 6 1 7
BITMAP
5B00
6C80
4880
C900
8900
9900
ENDCHAR
STARTCHAR o.sups
ENCODING 7506
SWIDTH 348 0
DWIDTH 6 0
BBX 5 6 1 7
BITMAP
38
48
88
88
98
70
ENDCHAR
STARTCHAR p.sups
ENCODING 7510
SWIDTH 358 0
DWIDTH 6 0
BBX 7 8 0 5
BITMAP
2C
36
22
44
64
78
40
C0
ENDCHAR
STARTCHAR t.sups
ENCODING 7511
SWIDTH 222 0
DWIDTH 4 0
BBX 4 8 1 7
BITMAP
20
40
F0
40
40
40
80
60
ENDCHAR
STARTCHAR u.sups
ENCODING 7512
SWIDTH 355 0
DWIDTH 6 0
BBX 6 6 1 7
BITMAP
44
48
48
88
98
68
ENDCHAR
STARTCHAR v.sups
ENCODING 7515
SWIDTH 307 0
DWIDTH 6 0
BBX 6 6 1 7
BITMAP
8C
48
50
50
60
60
ENDCHAR
STARTCHAR c.sups
ENCODING 7580
SWIDTH 292 0
DWIDTH 5 0
BBX 5 6 1 7
BITMAP
38
40
80
80
80
70
ENDCHAR
STARTCHAR f.sups
ENCODING 7584
SWIDTH 194 0
DWIDTH 3 0
BBX 5 9 1 7
BITMAP
38
20
40
F0
40
40
40
80
80
ENDCHAR
STARTCHAR z.sups
ENCODING 7611
SWIDTH 279 0
DWIDTH 5 0
BBX 6 6 0 7
BITMAP
3C
08
10
20
40
F8
ENDCHAR
STARTCHAR uni1E06
ENCODING 7686
SWIDTH 583 0
DWIDTH 11 0
BBX 9 15 1 -3
BITMAP
3F00
2180
6180
6180
4300
7E00
4300
4100
C100
C100
8300
FC00
0000
0000
7800
ENDCHAR
STARTCHAR uni1E07
ENCODING 7687
SWIDTH 536 0
DWIDTH 10 0
BBX 8 16 1 -3
BITMAP
30
20
20
60
6E
73
43
43
C3
C3
82
C4
B8
00
00
F8
ENDCHAR
STARTCHAR uni1E0C
ENCODING 7692
SWIDTH 592 0
DWIDTH 11 0
BBX 9 15 1 -3
BITMAP
3E00
2300
6180
6080
4080
4080
4080
4180
C100
C300
8600
F800
0000
0000
3000
ENDCHAR
STARTCHAR uni1E0D
ENCODING 7693
SWIDTH 535 0
DWIDTH 10 0
BBX 9 16 1 -3
BITMAP
0180
0180
0100
0100
1D00
6300
4300
C200
8200
8200
8600
CE00
7400
0000
0000
3000
ENDCHAR
STARTCHAR uni1E0E
ENCODING 7694
SWIDTH 592 0
DWIDTH 11 0
BBX 9 15 1 -3
BITMAP
3E00
2300
6180
6080
4080
4080
4080
4180
C100
C300
8600
F800
0000
0000
7C00
ENDCHAR
STARTCHAR uni1E0F
ENCODING 7695
SWIDTH 535 0
DWIDTH 10 0
BBX 9 16 1 -3
BITMAP
0180
0180
0100
0100
1D00
6300
4300
C200
8200
8200
8600
CE00
7400
0000
0000
F800
ENDCHAR
STARTCHAR uni1E16
ENCODING 7702
SWIDTH 503 0
DWIDTH 9 0
BBX 9 17 1 0
BITMAP
0300
0600
0000
1F00
0000
3F80
2000
6000
6000
4000
7E00
4000
4000
C000
C000
8000
FE00
ENDCHAR
STARTCHAR uni1E17
ENCODING 7703
SWIDTH 481 0
DWIDTH 9 0
BBX 7 15 1 0
BITMAP
02
04
00
3E
00
00
3C
66
C2
82
FE
80
80
C4
78
ENDCHAR
STARTCHAR uni1E20
ENCODING 7712
SWIDTH 588 0
DWIDTH 11 0
BBX 9 14 1 0
BITMAP
0F80
0000
0F00
3080
2000
4000
4000
C000
C780
8100
C100
C100
6300
3E00
ENDCHAR
STARTCHAR uni1E21
ENCODING 7713
SWIDTH 531 0
DWIDTH 10 0
BBX 9 16 0 -4
BITMAP
0F00
0000
0000
0E80
3180
2100
6100
4100
4100
4300
6600
3A00
0200
0600
8400
7800
ENDCHAR
STARTCHAR uni1E24
ENCODING 7716
SWIDTH 622 0
DWIDTH 11 0
BBX 10 15 1 -3
BITMAP
2040
20C0
60C0
6080
4080
7F80
4180
4180
C100
C100
8100
8300
0000
0000
3000
ENDCHAR
STARTCHAR uni1E25
ENCODING 7717
SWIDTH 519 0
DWIDTH 9 0
BBX 8 16 1 -3
BITMAP
30
20
20
60
6E
72
43
42
C2
C2
86
86
84
00
00
30
ENDCHAR
STARTCHAR uni1E2A
ENCODING 7722
SWIDTH 622 0
DWIDTH 11 0
BBX 10 16 1 -4
BITMAP
2040
20C0
60C0
6080
4080
7F80
4180
4180
C100
C100
8100
8300
0000
4200
4400
3800
ENDCHAR
STARTCHAR uni1E2B
ENCODING 7723
SWIDTH 519 0
DWIDTH 9 0
BBX 8 17 1 -4
BITMAP
30
20
20
60
6E
72
43
42
C2
C2
86
86
84
00
84
88
70
ENDCHAR
STARTCHAR uni1E34
ENCODING 7732
SWIDTH 559 0
DWIDTH 10 0
BBX 10 15 1 -3
BITMAP
20C0
2100
6200
6400
6800
5C00
6400
4400
C600
C200
8200
8300
0000
0000
7C00
ENDCHAR
STARTCHAR uni1E35
ENCODING 7733
SWIDTH 476 0
DWIDTH 9 0
BBX 8 16 1 -3
BITMAP
30
20
20
60
63
44
4C
58
F8
E8
C8
8C
84
00
00
F8
ENDCHAR
STARTCHAR uni1E36
ENCODING 7734
SWIDTH 462 0
DWIDTH 8 0
BBX 6 15 1 -3
BITMAP
20
20
60
60
60
40
40
40
C0
C0
80
FC
00
00
30
ENDCHAR
STARTCHAR uni1E37
ENCODING 7735
SWIDTH 248 0
DWIDTH 4 0
BBX 5 16 0 -3
BITMAP
18
10
10
30
30
20
20
20
60
60
40
40
60
00
00
C0
ENDCHAR
STARTCHAR uni1E38
ENCODING 7736
SWIDTH 462 0
DWIDTH 8 0
BBX 6 17 1 -3
BITMAP
78
00
20
20
60
60
60
40
40
40
C0
C0
80
FC
00
00
30
ENDCHAR
STARTCHAR uni1E39
ENCODING 7737
SWIDTH 248 0
DWIDTH 4 0
BBX 7 19 0 -3
BITMAP
3E
00
00
18
10
10
30
30
20
20
20
60
60
40
40
60
00
00
C0
ENDCHAR
STARTCHAR uni1E3A
ENCODING 7738
SWIDTH 462 0
DWIDTH 8 0
BBX 6 15 1 -3
BITMAP
20
20
60
60
60
40
40
40
C0
C0
80
FC
00
00
F8
ENDCHAR
STARTCHAR uni1E3B
ENCODING 7739
SWIDTH 248 0
DWIDTH 4 0
BBX 7 16 -2 -3
BITMAP
06
04
04
0C
0C
08
08
08
18
18
10
10
18
00
00
F8
ENDCHAR
STARTCHAR uni1E42
ENCODING 7746
SWIDTH 705 0
DWIDTH 13 0
BBX 12 15 1 -3
BITMAP
3030
3060
7060
70A0
51E0
5960
4A40
4A40
CC40
8CC0
88C0
8080
0000
0000
1800
ENDCHAR
STARTCHAR uni1E43
ENCODING 7747
SWIDTH 799 0
DWIDTH 14 0
BBX 12 12 1 -3
BITMAP
4E70
7390
4210
4210
C210
C630
8630
8420
8420
0000
0000
0C00
ENDCHAR
STARTCHAR uni1E44
ENCODING 7748
SWIDTH 619 0
DWIDTH 11 0
BBX 10 14 1 0
BITMAP
0600
0000
3040
30C0
70C0
7880
4880
4880
4D80
4580
C500
8700
8300
8300
ENDCHAR
STARTCHAR uni1E45
ENCODING 7749
SWIDTH 525 0
DWIDTH 9 0
BBX 8 12 1 0
BITMAP
0C
00
00
4E
72
43
42
C2
C2
86
86
84
ENDCHAR
STARTCHAR uni1E46
ENCODING 7750
SWIDTH 619 0
DWIDTH 11 0
BBX 10 15 1 -3
BITMAP
3040
30C0
70C0
7880
4880
4880
4D80
4580
C500
8700
8300
8300
0000
0000
3000
ENDCHAR
STARTCHAR uni1E47
ENCODING 7751
SWIDTH 525 0
DWIDTH 9 0
BBX 8 12 1 -3
BITMAP
4E
72
43
42
C2
C2
86
86
84
00
00
30
ENDCHAR
STARTCHAR uni1E48
ENCODING 7752
SWIDTH 619 0
DWIDTH 11 0
BBX 10 15 1 -3
BITMAP
3040
30C0
70C0
7880
4880
4880
4D80
4580
C500
8700
8300
8300
0000
0000
7C00
ENDCHAR
STARTCHAR uni1E49
ENCODING 7753
SWIDTH 525 0
DWIDTH 9 0
BBX 8 12 1 -3
BITMAP
4E
72
43
42
C2
C2
86
86
84
00
00
F8
ENDCHAR
STARTCHAR uni1E52
ENCODING 7762
SWIDTH 633 0
DWIDTH 11 0
BBX 10 17 1 0
BITMAP
0180
0200
0000
0F80
0000
0F00
3180
20C0
40C0
40C0
C0C0
C0C0
C080
C080
C100
6300
3C00
ENDCHAR
STARTCHAR uni1E53
ENCODING 7763
SWIDTH 515 0
DWIDTH 9 0
BBX 8 15 1 0
BITMAP
02
04
00
1E
00
00
1C
62
C2
83
82
82
86
CC
78
ENDCHAR
STARTCHAR uni1E5A
ENCODING 7770
SWIDTH 555 0
DWIDTH 10 0
BBX 9 15 1 -3
BITMAP
3F00
2180
6180
6180
6180
4300
7E00
4C00
C400
C400
8600
8200
0100
0000
3000
ENDCHAR
STARTCHAR uni1E5B
ENCODING 7771
SWIDTH 342 0
DWIDTH 6 0
BBX 7 12 0 -3
BITMAP
26
38
20
20
60
60
40
40
40
00
00
C0
ENDCHAR
STARTCHAR uni1E5C
ENCODING 7772
SWIDTH 555 0
DWIDTH 10 0
BBX 9 17 1 -3
BITMAP
1F00
0000
3F00
2180
6180
6180
6180
4300
7E00
4C00
C400
C400
8600
8200
0100
0000
3000
ENDCHAR
STARTCHAR uni1E5D
ENCODING 7773
SWIDTH 342 0
DWIDTH 6 0
BBX 7 15 0 -3
BITMAP
1E
20
00
26
38
20
20
60
60
40
40
40
00
00
C0
ENDCHAR
STARTCHAR uni1E5E
ENCODING 7774
SWIDTH 555 0
DWIDTH 10 0
BBX 9 15 1 -3
BITMAP
3F00
2180
6180
6180
6180
4300
7E00
4C00
C400
C400
8600
8200
0100
0000
7C00
ENDCHAR
STARTCHAR uni1E5F
ENCODING 7775
SWIDTH 342 0
DWIDTH 6 0
BBX 8 12 -1 -3
BITMAP
13
1C
10
10
30
30
20
20
20
00
00
F0
ENDCHAR
STARTCHAR uni1E60
ENCODING 7776
SWIDTH 506 0
DWIDTH 9 0
BBX 9 14 0 0
BITMAP
0600
0000
0F00
1180
3000
3000
3000
1C00
0700
0300
0100
8100
4300
3C00
ENDCHAR
STARTCHAR uni1E61
ENCODING 7777
SWIDTH 402 0
DWIDTH 7 0
BBX 7 12 0 0
BITMAP
0C
00
00
3C
26
60
20
18
0C
04
CC
78
ENDCHAR
STARTCHAR uni1E62
ENCODING 7778
SWIDTH 506 0
DWIDTH 9 0
BBX 9 15 0 -3
BITMAP
0F00
1180
3000
3000
3000
1C00
0700
0300
0100
8100
4300
3C00
0000
0000
1800
ENDCHAR
STARTCHAR uni1E63
ENCODING 7779
SWIDTH 402 0
DWIDTH 7 0
BBX 7 12 0 -3
BITMAP
3C
26
60
20
18
0C
04
CC
78
00
00
30
ENDCHAR
STARTCHAR uni1E6C
ENCODING 7788
SWIDTH 510 0
DWIDTH 9 0
BBX 8 15 2 -3
BITMAP
FF
10
10
10
30
30
20
20
20
60
60
40
00
00
C0
ENDCHAR
STARTCHAR uni1E6D
ENCODING 7789
SWIDTH 325 0
DWIDTH 6 0
BBX 5 14 1 -3
BITMAP
20
20
F8
60
40
40
40
C0
C0
C0
70
00
00
C0
ENDCHAR
STARTCHAR uni1E6E
ENCODING 7790
SWIDTH 510 0
DWIDTH 9 0
BBX 9 15 1 -3
BITMAP
7F80
0800
0800
0800
1800
1800
1000
1000
1000
3000
3000
2000
0000
0000
F800
ENDCHAR
STARTCHAR uni1E6F
ENCODING 7791
SWIDTH 325 0
DWIDTH 6 0
BBX 6 14 0 -3
BITMAP
10
10
7C
30
20
20
20
60
60
60
38
00
00
F8
ENDCHAR
STARTCHAR Wgrave
ENCODING 7808
SWIDTH 756 0
DWIDTH 14 0
BBX 13 16 2 0
BITMAP
0400
0E00
0300
0000
8618
8610
8630
8A20
8A60
9240
9240
A2C0
A280
E280
C300
C300
ENDCHAR
STARTCHAR wgrave
ENCODING 7809
SWIDTH 707 0
DWIDTH 13 0
BBX 12 14 1 0
BITMAP
0400
0600
0200
0100
0000
C630
C620
CA60
4A40
5240
5280
5280
6300
6300
ENDCHAR
STARTCHAR Wacute
ENCODING 7810
SWIDTH 756 0
DWIDTH 14 0
BBX 13 16 2 0
BITMAP
0080
0300
0600
0000
8618
8610
8630
8A20
8A60
9240
9240
A2C0
A280
E280
C300
C300
ENDCHAR
STARTCHAR wacute
ENCODING 7811
SWIDTH 707 0
DWIDTH 13 0
BBX 12 14 1 0
BITMAP
0080
0180
0300
0600
0000
C630
C620
CA60
4A40
5240
5280
5280
6300
6300
ENDCHAR
STARTCHAR Wdieresis
ENCODING 7812
SWIDTH 756 0
DWIDTH 14 0
BBX 13 14 2 0
BITMAP
0D80
0000
8618
8610
8630
8A20
8A60
9240
9240
A2C0
A280
E280
C300
C300
ENDCHAR
STARTCHAR wdieresis
ENCODING 7813
SWIDTH 707 0
DWIDTH 13 0
BBX 12 12 1 0
BITMAP
0C80
0000
0000
C630
C620
CA60
4A40
5240
5280
5280
6300
6300
ENDCHAR
STARTCHAR uni1E8E
ENCODING 7822
SWIDTH 461 0
DWIDTH 8 0
BBX 9 14 1 0
BITMAP
0C00
0000
C180
4300
6200
6400
2C00
2800
3000
3000
3000
2000
2000
6000
ENDCHAR
STARTCHAR uni1E8F
ENCODING 7823
SWIDTH 448 0
DWIDTH 8 0
BBX 10 16 -1 -4
BITMAP
0600
0000
0000
30C0
3080
1100
1100
1200
1200
1400
1400
0800
1800
1000
3000
C000
ENDCHAR
STARTCHAR uni1E92
ENCODING 7826
SWIDTH 512 0
DWIDTH 9 0
BBX 10 15 0 -3
BITMAP
1FC0
2180
0100
0200
0600
0C00
0800
1800
3000
2000
4000
FF00
0000
0000
3000
ENDCHAR
STARTCHAR uni1E93
ENCODING 7827
SWIDTH 410 0
DWIDTH 7 0
BBX 8 12 0 -3
BITMAP
3F
06
04
08
18
30
60
40
FC
00
00
30
ENDCHAR
STARTCHAR uni1E97
ENCODING 7831
SWIDTH 325 0
DWIDTH 6 0
BBX 6 14 1 0
BITMAP
4C
00
00
20
20
F8
60
40
40
40
C0
C0
C0
70
ENDCHAR
STARTCHAR uni1E9E
ENCODING 7838
SWIDTH 633 0
DWIDTH 11 0
BBX 10 12 1 0
BITMAP
0F00
3080
20C0
6180
4300
4600
4380
4080
C0C0
C080
9180
8F00
ENDCHAR
STARTCHAR uni1EA0
ENCODING 7840
SWIDTH 510 0
DWIDTH 9 0
BBX 9 15 -1 -3
BITMAP
0300
0300
0500
0500
0980
0980
1080
3F80
2080
6080
4080
C080
0000
0000
0800
ENDCHAR
STARTCHAR uni1EA1
ENCODING 7841
SWIDTH 537 0
DWIDTH 10 0
BBX 8 12 1 -3
BITMAP
1D
63
43
C2
82
82
86
CE
74
00
00
30
ENDCHAR
STARTCHAR uni1EA2
ENCODING 7842
SWIDTH 510 0
DWIDTH 9 0
BBX 9 16 -1 0
BITMAP
0300
0080
0100
0200
0300
0300
0500
0500
0980
0980
1080
3F80
2080
6080
4080
C080
ENDCHAR
STARTCHAR uni1EA3
ENCODING 7843
SWIDTH 537 0
DWIDTH 10 0
BBX 8 14 1 0
BITMAP
0C
06
04
08
00
1D
63
43
C2
82
82
86
CE
74
ENDCHAR
STARTCHAR uni1EA4
ENCODING 7844
SWIDTH 510 0
DWIDTH 9 0
BBX 12 16 -1 0
BITMAP
0020
03F0
0680
0040
0300
0300
0500
0500
0980
0980
1080
3F80
2080
6080
4080
C080
ENDCHAR
STARTCHAR uni1EA5
ENCODING 7845
SWIDTH 537 0
DWIDTH 10 0
BBX 10 14 1 0
BITMAP
0080
0DC0
1200
0000
0000
1D00
6300
4300
C200
8200
8200
8600
CE00
7400
ENDCHAR
STARTCHAR uni1EA6
ENCODING 7846
SWIDTH 510 0
DWIDTH 9 0
BBX 10 16 -1 0
BITMAP
0800
0780
0680
0040
0300
0300
0500
0500
0980
0980
1080
3F80
2080
6080
4080
C080
ENDCHAR
STARTCHAR uni1EA7
ENCODING 7847
SWIDTH 537 0
DWIDTH 10 0
BBX 8 14 1 0
BITMAP
40
2C
12
00
00
1D
63
43
C2
82
82
86
CE
74
ENDCHAR
STARTCHAR uni1EA8
ENCODING 7848
SWIDTH 510 0
DWIDTH 9 0
BBX 11 16 -1 0
BITMAP
0060
03A0
06E0
0000
0300
0300
0500
0500
0980
0980
1080
3F80
2080
6080
4080
C080
ENDCHAR
STARTCHAR uni1EA9
ENCODING 7849
SWIDTH 537 0
DWIDTH 10 0
BBX 9 14 1 0
BITMAP
0180
0C80
1380
0000
0000
1D00
6300
4300
C200
8200
8200
8600
CE00
7400
ENDCHAR
STARTCHAR uni1EAA
ENCODING 7850
SWIDTH 510 0
DWIDTH 9 0
BBX 11 17 -1 0
BITMAP
0320
04C0
0380
0680
0040
0300
0300
0500
0500
0980
0980
1080
3F80
2080
6080
4080
C080
ENDCHAR
STARTCHAR uni1EAB
ENCODING 7851
SWIDTH 537 0
DWIDTH 10 0
BBX 8 14 1 0
BITMAP
1F
00
0C
12
00
1D
63
43
C2
82
82
86
CE
74
ENDCHAR
STARTCHAR uni1EAC
ENCODING 7852
SWIDTH 510 0
DWIDTH 9 0
BBX 10 18 -1 -3
BITMAP
0380
0680
0440
0300
0300
0500
0500
0980
0980
1080
3F80
2080
6080
4080
C080
0000
0000
0800
ENDCHAR
STARTCHAR uni1EAD
ENCODING 7853
SWIDTH 537 0
DWIDTH 10 0
BBX 8 16 1 -3
BITMAP
0C
1A
21
00
1D
63
43
C2
82
82
86
CE
74
00
00
30
ENDCHAR
STARTCHAR uni1EAE
ENCODING 7854
SWIDTH 510 0
DWIDTH 9 0
BBX 10 17 -1 0
BITMAP
00C0
0540
0440
0380
0000
0300
0300
0500
0500
0980
0980
1080
3F80
2080
6080
4080
C080
ENDCHAR
STARTCHAR uni1EAF
ENCODING 7855
SWIDTH 537 0
DWIDTH 10 0
BBX 9 15 1 0
BITMAP
0300
0600
1080
1100
0E00
0000
1D00
6300
4300
C200
8200
8200
8600
CE00
7400
ENDCHAR
STARTCHAR uni1EB0
ENCODING 7856
SWIDTH 510 0
DWIDTH 9 0
BBX 10 17 -1 0
BITMAP
0300
0540
0440
0380
0000
0300
0300
0500
0500
0980
0980
1080
3F80
2080
6080
4080
C080
ENDCHAR
STARTCHAR uni1EB1
ENCODING 7857
SWIDTH 537 0
DWIDTH 10 0
BBX 9 15 1 0
BITMAP
0C00
0400
1280
1100
0E00
0000
1D00
6300
4300
C200
8200
8200
8600
CE00
7400
ENDCHAR
STARTCHAR uni1EB2
ENCODING 7858
SWIDTH 510 0
DWIDTH 9 0
BBX 10 17 -1 0
BITMAP
0180
04C0
0540
0380
0000
0300
0300
0500
0500
0980
0980
1080
3F80
2080
6080
4080
C080
ENDCHAR
STARTCHAR uni1EB3
ENCODING 7859
SWIDTH 537 0
DWIDTH 10 0
BBX 9 15 1 0
BITMAP
0600
0200
1680
1100
0E00
0000
1D00
6300
4300
C200
8200
8200
8600
CE00
7400
ENDCHAR
STARTCHAR uni1EB4
ENCODING 7860
SWIDTH 510 0
DWIDTH 9 0
BBX 11 18 -1 0
BITMAP
0320
04C0
0000
0440
0380
0000
0300
0300
0500
0500
0980
0980
1080
3F80
2080
6080
4080
C080
ENDCHAR
STARTCHAR uni1EB5
ENCODING 7861
SWIDTH 537 0
DWIDTH 10 0
BBX 9 15 1 0
BITMAP
0C80
1300
0000
1100
0E00
0000
1D00
6300
4300
C200
8200
8200
8600
CE00
7400
ENDCHAR
STARTCHAR uni1EB6
ENCODING 7862
SWIDTH 510 0
DWIDTH 9 0
BBX 10 19 -1 -3
BITMAP
0480
0440
0380
0000
0300
0300
0500
0500
0980
0980
1080
3F80
2080
6080
4080
C080
0000
0000
0800
ENDCHAR
STARTCHAR uni1EB7
ENCODING 7863
SWIDTH 537 0
DWIDTH 10 0
BBX 8 16 1 -3
BITMAP
11
13
1E
00
1D
63
43
C2
82
82
86
CE
74
00
00
30
ENDCHAR
STARTCHAR uni1EB8
ENCODING 7864
SWIDTH 503 0
DWIDTH 9 0
BBX 9 15 1 -3
BITMAP
3F80
2000
6000
6000
4000
7E00
4000
4000
C000
C000
8000
FE00
0000
0000
3000
ENDCHAR
STARTCHAR uni1EB9
ENCODING 7865
SWIDTH 481 0
DWIDTH 9 0
BBX 7 12 1 -3
BITMAP
3C
66
C2
82
FE
80
80
C4
78
00
00
60
ENDCHAR
STARTCHAR uni1EBA
ENCODING 7866
SWIDTH 503 0
DWIDTH 9 0
BBX 9 16 1 0
BITMAP
0600
0A00
0400
0000
3F80
2000
6000
6000
4000
7E00
4000
4000
C000
C000
8000
FE00
ENDCHAR
STARTCHAR uni1EBB
ENCODING 7867
SWIDTH 481 0
DWIDTH 9 0
BBX 7 14 1 0
BITMAP
0C
04
04
08
00
3C
66
C2
82
FE
80
80
C4
78
ENDCHAR
STARTCHAR uni1EBC
ENCODING 7868
SWIDTH 503 0
DWIDTH 9 0
BBX 9 15 1 0
BITMAP
1C80
2300
0000
3F80
2000
6000
6000
4000
7E00
4000
4000
C000
C000
8000
FE00
ENDCHAR
STARTCHAR uni1EBD
ENCODING 7869
SWIDTH 481 0
DWIDTH 9 0
BBX 8 12 1 0
BITMAP
39
26
00
3C
66
C2
82
FE
80
80
C4
78
ENDCHAR
STARTCHAR uni1EBE
ENCODING 7870
SWIDTH 503 0
DWIDTH 9 0
BBX 10 16 1 0
BITMAP
0040
0780
0B00
1000
3F80
2000
6000
6000
4000
7E00
4000
4000
C000
C000
8000
FE00
ENDCHAR
STARTCHAR uni1EBF
ENCODING 7871
SWIDTH 481 0
DWIDTH 9 0
BBX 9 14 1 0
BITMAP
0080
0D00
1200
2000
0000
3C00
6600
C200
8200
FE00
8000
8000
C400
7800
ENDCHAR
STARTCHAR uni1EC0
ENCODING 7872
SWIDTH 503 0
DWIDTH 9 0
BBX 9 16 1 0
BITMAP
2000
1600
0B00
1000
3F80
2000
6000
6000
4000
7E00
4000
4000
C000
C000
8000
FE00
ENDCHAR
STARTCHAR uni1EC1
ENCODING 7873
SWIDTH 481 0
DWIDTH 9 0
BBX 7 14 1 0
BITMAP
40
2C
52
20
00
3C
66
C2
82
FE
80
80
C4
78
ENDCHAR
STARTCHAR uni1EC2
ENCODING 7874
SWIDTH 503 0
DWIDTH 9 0
BBX 10 16 1 0
BITMAP
0180
0640
0B80
1000
3F80
2000
6000
6000
4000
7E00
4000
4000
C000
C000
8000
FE00
ENDCHAR
STARTCHAR uni1EC3
ENCODING 7875
SWIDTH 481 0
DWIDTH 9 0
BBX 9 14 1 0
BITMAP
0100
0C80
1300
2000
0000
3C00
6600
C200
8200
FE00
8000
8000
C400
7800
ENDCHAR
STARTCHAR uni1EC4
ENCODING 7876
SWIDTH 503 0
DWIDTH 9 0
BBX 9 17 1 0
BITMAP
0C80
1300
0600
1B00
0000
3F80
2000
6000
6000
4000
7E00
4000
4000
C000
C000
8000
FE00
ENDCHAR
STARTCHAR uni1EC5
ENCODING 7877
SWIDTH 481 0
DWIDTH 9 0
BBX 8 14 1 0
BITMAP
1F
00
0C
12
20
3C
66
C2
82
FE
80
80
C4
78
ENDCHAR
STARTCHAR uni1EC6
ENCODING 7878
SWIDTH 503 0
DWIDTH 9 0
BBX 9 18 1 -3
BITMAP
0600
0B00
1100
3F80
2000
6000
6000
4000
7E00
4000
4000
C000
C000
8000
FE00
0000
0000
3000
ENDCHAR
STARTCHAR uni1EC7
ENCODING 7879
SWIDTH 481 0
DWIDTH 9 0
BBX 8 16 1 -3
BITMAP
0C
12
22
01
3C
66
C2
82
FE
80
80
C4
78
00
00
60
ENDCHAR
STARTCHAR uni1EC8
ENCODING 7880
SWIDTH 252 0
DWIDTH 5 0
BBX 4 16 1 0
BITMAP
30
10
30
00
20
20
60
60
60
40
40
40
C0
C0
80
80
ENDCHAR
STARTCHAR uni1EC9
ENCODING 7881
SWIDTH 237 0
DWIDTH 4 0
BBX 4 14 1 0
BITMAP
30
10
30
00
00
60
40
40
40
C0
C0
80
80
80
ENDCHAR
STARTCHAR uni1ECA
ENCODING 7882
SWIDTH 252 0
DWIDTH 5 0
BBX 4 15 0 -3
BITMAP
10
10
30
30
30
20
20
20
60
60
40
40
00
00
C0
ENDCHAR
STARTCHAR uni1ECB
ENCODING 7883
SWIDTH 237 0
DWIDTH 4 0
BBX 5 16 0 -3
BITMAP
10
18
00
00
30
20
20
20
60
60
40
40
40
00
00
C0
ENDCHAR
STARTCHAR uni1ECC
ENCODING 7884
SWIDTH 633 0
DWIDTH 11 0
BBX 10 15 1 -3
BITMAP
0F00
3180
20C0
40C0
40C0
C0C0
C0C0
C080
C080
C100
6300
3C00
0000
0000
1800
ENDCHAR
STARTCHAR uni1ECD
ENCODING 7885
SWIDTH 515 0
DWIDTH 9 0
BBX 8 12 1 -3
BITMAP
1C
62
C2
83
82
82
86
CC
78
00
00
60
ENDCHAR
STARTCHAR uni1ECE
ENCODING 7886
SWIDTH 633 0
DWIDTH 11 0
BBX 10 16 1 0
BITMAP
0600
0100
0200
0400
0F00
3180
20C0
40C0
40C0
C0C0
C0C0
C080
C080
C100
6300
3C00
ENDCHAR
STARTCHAR uni1ECF
ENCODING 7887
SWIDTH 515 0
DWIDTH 9 0
BBX 8 14 1 0
BITMAP
0C
06
04
08
00
1C
62
C2
83
82
82
86
CC
78
ENDCHAR
STARTCHAR uni1ED0
ENCODING 7888
SWIDTH 633 0
DWIDTH 11 0
BBX 11 16 1 0
BITMAP
0020
07C0
0D80
0000
0F00
3180
20C0
40C0
40C0
C0C0
C0C0
C080
C080
C100
6300
3C00
ENDCHAR
STARTCHAR uni1ED1
ENCODING 7889
SWIDTH 515 0
DWIDTH 9 0
BBX 10 14 1 0
BITMAP
00C0
0D80
1200
0100
0000
1C00
6200
C200
8300
8200
8200
8600
CC00
7800
ENDCHAR
STARTCHAR uni1ED2
ENCODING 7890
SWIDTH 633 0
DWIDTH 11 0
BBX 10 16 1 0
BITMAP
1000
0F00
0D80
0000
0F00
3180
20C0
40C0
40C0
C0C0
C0C0
C080
C080
C100
6300
3C00
ENDCHAR
STARTCHAR uni1ED3
ENCODING 7891
SWIDTH 515 0
DWIDTH 9 0
BBX 8 14 1 0
BITMAP
40
2C
12
01
00
1C
62
C2
83
82
82
86
CC
78
ENDCHAR
STARTCHAR uni1ED4
ENCODING 7892
SWIDTH 633 0
DWIDTH 11 0
BBX 10 16 1 0
BITMAP
00C0
0740
0DC0
0000
0F00
3180
20C0
40C0
40C0
C0C0
C0C0
C080
C080
C100
6300
3C00
ENDCHAR
STARTCHAR uni1ED5
ENCODING 7893
SWIDTH 515 0
DWIDTH 9 0
BBX 9 14 1 0
BITMAP
0180
0C80
1380
0000
0000
1C00
6200
C200
8300
8200
8200
8600
CC00
7800
ENDCHAR
STARTCHAR uni1ED6
ENCODING 7894
SWIDTH 633 0
DWIDTH 11 0
BBX 10 17 1 0
BITMAP
0640
0980
0700
0D80
0000
0F00
3180
20C0
40C0
40C0
C0C0
C0C0
C080
C080
C100
6300
3C00
ENDCHAR
STARTCHAR uni1ED7
ENCODING 7895
SWIDTH 515 0
DWIDTH 9 0
BBX 8 14 1 0
BITMAP
1F
00
0C
12
01
1C
62
C2
83
82
82
86
CC
78
ENDCHAR
STARTCHAR uni1ED8
ENCODING 7896
SWIDTH 633 0
DWIDTH 11 0
BBX 10 18 1 -3
BITMAP
0700
0D80
0880
0F00
3180
20C0
40C0
40C0
C0C0
C0C0
C080
C080
C100
6300
3C00
0000
0000
1800
ENDCHAR
STARTCHAR uni1ED9
ENCODING 7897
SWIDTH 515 0
DWIDTH 9 0
BBX 8 16 1 -3
BITMAP
0E
1A
31
00
1C
62
C2
83
82
82
86
CC
78
00
00
60
ENDCHAR
STARTCHAR uni1EDA
ENCODING 7898
SWIDTH 633 0
DWIDTH 11 0
BBX 11 16 1 0
BITMAP
0080
0300
0620
0020
0FC0
3180
20C0
40C0
40C0
C0C0
C0C0
C080
C080
C100
6300
3C00
ENDCHAR
STARTCHAR uni1EDB
ENCODING 7899
SWIDTH 517 0
DWIDTH 9 0
BBX 9 14 1 0
BITMAP
0200
0700
0C80
0880
0180
1F00
6200
C200
8300
8200
8200
8600
CC00
7800
ENDCHAR
STARTCHAR uni1EDC
ENCODING 7900
SWIDTH 633 0
DWIDTH 11 0
BBX 11 16 1 0
BITMAP
0400
0E00
0220
0020
0FC0
3180
20C0
40C0
40C0
C0C0
C0C0
C080
C080
C100
6300
3C00
ENDCHAR
STARTCHAR uni1EDD
ENCODING 7901
SWIDTH 517 0
DWIDTH 9 0
BBX 9 14 1 0
BITMAP
1000
1800
0C80
0480
0180
1F00
6200
C200
8300
8200
8200
8600
CC00
7800
ENDCHAR
STARTCHAR uni1EDE
ENCODING 7902
SWIDTH 633 0
DWIDTH 11 0
BBX 11 16 1 0
BITMAP
0600
0300
0220
0420
0FC0
3180
20C0
40C0
40C0
C0C0
C0C0
C080
C080
C100
6300
3C00
ENDCHAR
STARTCHAR uni1EDF
ENCODING 7903
SWIDTH 517 0
DWIDTH 9 0
BBX 9 14 1 0
BITMAP
0C00
0600
0480
0880
0180
1F00
6200
C200
8300
8200
8200
8600
CC00
7800
ENDCHAR
STARTCHAR uni1EE0
ENCODING 7904
SWIDTH 633 0
DWIDTH 11 0
BBX 11 15 1 0
BITMAP
1C80
1320
0020
0FC0
3180
20C0
40C0
40C0
C0C0
C0C0
C080
C080
C100
6300
3C00
ENDCHAR
STARTCHAR uni1EE1
ENCODING 7905
SWIDTH 517 0
DWIDTH 9 0
BBX 9 12 1 0
BITMAP
3980
2680
4180
1F00
6200
C200
8300
8200
8200
8600
CC00
7800
ENDCHAR
STARTCHAR uni1EE2
ENCODING 7906
SWIDTH 633 0
DWIDTH 11 0
BBX 11 17 1 -3
BITMAP
0020
0020
0FC0
3180
20C0
40C0
40C0
C0C0
C0C0
C080
C080
C100
6300
3C00
0000
0000
1000
ENDCHAR
STARTCHAR uni1EE3
ENCODING 7907
SWIDTH 517 0
DWIDTH 9 0
BBX 9 15 1 -3
BITMAP
0080
0080
0180
1F00
6200
C200
8300
8200
8200
8600
CC00
7800
0000
0000
6000
ENDCHAR
STARTCHAR uni1EE4
ENCODING 7908
SWIDTH 616 0
DWIDTH 11 0
BBX 10 15 1 -3
BITMAP
2040
20C0
60C0
6080
4080
4080
4180
C180
C100
4100
6200
3C00
0000
0000
3000
ENDCHAR
STARTCHAR uni1EE5
ENCODING 7909
SWIDTH 528 0
DWIDTH 10 0
BBX 8 12 1 -3
BITMAP
63
43
42
42
C2
C6
86
CC
74
00
00
30
ENDCHAR
STARTCHAR uni1EE6
ENCODING 7910
SWIDTH 616 0
DWIDTH 11 0
BBX 10 16 1 0
BITMAP
0600
0300
0200
0400
2040
20C0
60C0
6080
4080
4080
4180
C180
C100
4100
6200
3C00
ENDCHAR
STARTCHAR uni1EE7
ENCODING 7911
SWIDTH 528 0
DWIDTH 10 0
BBX 8 14 1 0
BITMAP
0C
06
04
08
00
63
43
42
42
C2
C6
86
CC
74
ENDCHAR
STARTCHAR uni1EE8
ENCODING 7912
SWIDTH 629 0
DWIDTH 11 0
BBX 12 16 1 0
BITMAP
0100
0390
0610
0010
2060
20C0
60C0
6080
4080
4080
4180
C180
C100
4100
6200
3C00
ENDCHAR
STARTCHAR uni1EE9
ENCODING 7913
SWIDTH 543 0
DWIDTH 10 0
BBX 10 14 1 0
BITMAP
0200
0700
0C40
0840
0080
6300
4300
4200
4200
C200
C600
8600
CC00
7400
ENDCHAR
STARTCHAR uni1EEA
ENCODING 7914
SWIDTH 629 0
DWIDTH 11 0
BBX 12 16 1 0
BITMAP
0400
0C10
0210
0010
2060
20C0
60C0
6080
4080
4080
4180
C180
C100
4100
6200
3C00
ENDCHAR
STARTCHAR uni1EEB
ENCODING 7915
SWIDTH 543 0
DWIDTH 10 0
BBX 10 14 1 0
BITMAP
0800
1800
0C40
0440
0080
6300
4300
4200
4200
C200
C600
8600
CC00
7400
ENDCHAR
STARTCHAR uni1EEC
ENCODING 7916
SWIDTH 629 0
DWIDTH 11 0
BBX 12 16 1 0
BITMAP
0600
0310
0610
0010
2060
20C0
60C0
6080
4080
4080
4180
C180
C100
4100
6200
3C00
ENDCHAR
STARTCHAR uni1EED
ENCODING 7917
SWIDTH 543 0
DWIDTH 10 0
BBX 10 14 1 0
BITMAP
0C00
0600
0440
0840
0080
6300
4300
4200
4200
C200
C600
8600
CC00
7400
ENDCHAR
STARTCHAR uni1EEE
ENCODING 7918
SWIDTH 629 0
DWIDTH 11 0
BBX 12 15 1 0
BITMAP
0ED0
1390
0010
2060
20C0
60C0
6080
4080
4080
4180
C180
C100
4100
6200
3C00
ENDCHAR
STARTCHAR uni1EEF
ENCODING 7919
SWIDTH 543 0
DWIDTH 10 0
BBX 10 12 1 0
BITMAP
3940
2640
0080
6300
4300
4200
4200
C200
C600
8600
CC00
7400
ENDCHAR
STARTCHAR uni1EF0
ENCODING 7920
SWIDTH 629 0
DWIDTH 11 0
BBX 12 18 1 -3
BITMAP
0010
0010
0010
2060
20C0
60C0
6080
4080
4080
4180
C180
C100
4100
6200
3C00
0000
0000
3000
ENDCHAR
STARTCHAR uni1EF1
ENCODING 7921
SWIDTH 543 0
DWIDTH 10 0
BBX 10 15 1 -3
BITMAP
0040
0040
0080
6300
4300
4200
4200
C200
C600
8600
CC00
7400
0000
0000
3000
ENDCHAR
STARTCHAR Ygrave
ENCODING 7922
SWIDTH 461 0
DWIDTH 8 0
BBX 9 16 1 0
BITMAP
1000
1800
0C00
0000
C180
4300
6200
6400
2C00
2800
3000
3000
3000
2000
2000
6000
ENDCHAR
STARTCHAR ygrave
ENCODING 7923
SWIDTH 448 0
DWIDTH 8 0
BBX 10 18 -1 -4
BITMAP
0400
0C00
0600
0200
0000
30C0
3080
1100
1100
1200
1200
1400
1400
0800
1800
1000
3000
C000
ENDCHAR
STARTCHAR uni1EF4
ENCODING 7924
SWIDTH 461 0
DWIDTH 8 0
BBX 9 15 1 -3
BITMAP
C180
4300
6200
6400
2C00
2800
3000
3000
3000
2000
2000
2000
4000
0000
6000
ENDCHAR
STARTCHAR uni1EF5
ENCODING 7925
SWIDTH 448 0
DWIDTH 8 0
BBX 10 13 -1 -4
BITMAP
30C0
3080
1100
1100
1200
1200
1400
1400
0800
1800
1000
3600
C000
ENDCHAR
STARTCHAR uni1EF6
ENCODING 7926
SWIDTH 461 0
DWIDTH 8 0
BBX 9 16 1 0
BITMAP
0C00
0400
0C00
0000
C180
4300
6200
6400
2C00
2800
3000
3000
3000
2000
2000
6000
ENDCHAR
STARTCHAR uni1EF7
ENCODING 7927
SWIDTH 448 0
DWIDTH 8 0
BBX 10 18 -1 -4
BITMAP
0600
0300
0200
0400
0000
30C0
3080
1100
1100
1200
1200
1400
1400
0800
1800
1000
3000
C000
ENDCHAR
STARTCHAR uni1EF8
ENCODING 7928
SWIDTH 461 0
DWIDTH 8 0
BBX 9 15 1 0
BITMAP
3900
2600
4000
C180
4300
6200
6400
2C00
2800
3000
3000
3000
2000
2000
6000
ENDCHAR
STARTCHAR uni1EF9
ENCODING 7929
SWIDTH 448 0
DWIDTH 8 0
BBX 10 16 -1 -4
BITMAP
0EC0
1380
0000
30C0
3080
1100
1100
1200
1200
1400
1400
0800
1800
1000
3000
C000
ENDCHAR
STARTCHAR uni2007
ENCODING 8199
SWIDTH 480 0
DWIDTH 9 0
BBX 1 1 0 0
BITMAP
00
ENDCHAR
STARTCHAR figuredash
ENCODING 8210
SWIDTH 480 0
DWIDTH 9 0
BBX 7 1 1 4
BITMAP
FE
ENDCHAR
STARTCHAR endash
ENCODING 8211
SWIDTH 463 0
DWIDTH 8 0
BBX 7 1 1 4
BITMAP
FE
ENDCHAR
STARTCHAR emdash
ENCODING 8212
SWIDTH 769 0
DWIDTH 14 0
BBX 12 1 1 4
BITMAP
FFF0
ENDCHAR
STARTCHAR uni2015
ENCODING 8213
SWIDTH 769 0
DWIDTH 14 0
BBX 12 1 1 4
BITMAP
FFF0
ENDCHAR
STARTCHAR quoteleft
ENCODING 8216
SWIDTH 242 0
DWIDTH 4 0
BBX 3 4 2 8
BITMAP
40
60
80
C0
ENDCHAR
STARTCHAR quoteright
ENCODING 8217
SWIDTH 242 0
DWIDTH 4 0
BBX 3 4 2 8
BITMAP
60
20
40
80
ENDCHAR
STARTCHAR quotesinglbase
ENCODING 8218
SWIDTH 242 0
DWIDTH 4 0
BBX 3 4 0 -3
BITMAP
60
40
40
80
ENDCHAR
STARTCHAR quotedblleft
ENCODING 8220
SWIDTH 408 0
DWIDTH 7 0
BBX 6 4 2 8
BITMAP
48
6C
90
D8
ENDCHAR
STARTCHAR quotedblright
ENCODING 8221
SWIDTH 408 0
DWIDTH 7 0
BBX 6 4 2 8
BITMAP
6C
28
48
90
ENDCHAR
STARTCHAR quotedblbase
ENCODING 8222
SWIDTH 408 0
DWIDTH 7 0
BBX 6 4 0 -3
BITMAP
68
4C
48
90
ENDCHAR
STARTCHAR dagger
ENCODING 8224
SWIDTH 435 0
DWIDTH 8 0
BBX 6 14 2 -1
BITMAP
10
10
10
FC
20
20
20
20
40
40
40
40
40
80
ENDCHAR
STARTCHAR daggerdbl
ENCODING 8225
SWIDTH 435 0
DWIDTH 8 0
BBX 8 15 0 -2
BITMAP
04
04
04
3F
08
08
08
08
18
10
10
FC
10
30
20
ENDCHAR
STARTCHAR bullet
ENCODING 8226
SWIDTH 295 0
DWIDTH 5 0
BBX 4 4 1 3
BITMAP
60
F0
F0
E0
ENDCHAR
STARTCHAR ellipsis
ENCODING 8230
SWIDTH 960 0
DWIDTH 17 0
BBX 14 2 1 0
BITMAP
610C
C30C
ENDCHAR
STARTCHAR uni202F
ENCODING 8239
SWIDTH 121 0
DWIDTH 2 0
BBX 1 1 0 0
BITMAP
00
ENDCHAR
STARTCHAR perthousand
ENCODING 8240
SWIDTH 1144 0
DWIDTH 21 0
BBX 19 12 1 0
BITMAP
382000
484000
C48000
8C8000
890000
8A71C0
749220
051A20
091620
111460
213240
60E380
ENDCHAR
STARTCHAR uni2032
ENCODING 8242
SWIDTH 242 0
DWIDTH 4 0
BBX 3 5 2 8
BITMAP
60
40
40
C0
80
ENDCHAR
STARTCHAR uni2033
ENCODING 8243
SWIDTH 408 0
DWIDTH 7 0
BBX 6 5 2 8
BITMAP
6C
48
48
D0
90
ENDCHAR
STARTCHAR guilsinglleft
ENCODING 8249
SWIDTH 252 0
DWIDTH 5 0
BBX 3 7 1 1
BITMAP
20
40
C0
80
80
40
40
ENDCHAR
STARTCHAR guilsinglright
ENCODING 8250
SWIDTH 252 0
DWIDTH 5 0
BBX 4 7 0 1
BITMAP
40
20
30
10
20
40
80
ENDCHAR
STARTCHAR fraction
ENCODING 8260
SWIDTH 84 0
DWIDTH 2 0
BBX 10 12 -4 0
BITMAP
00C0
0080
0100
0200
0200
0400
0800
1000
1000
2000
4000
C000
ENDCHAR
STARTCHAR zero.sups
ENCODING 8304
SWIDTH 357 0
DWIDTH 6 0
BBX 5 7 2 7
BITMAP
70
C8
88
88
88
90
E0
ENDCHAR
STARTCHAR i.sups
ENCODING 8305
SWIDTH 163 0
DWIDTH 3 0
BBX 3 8 1 7
BITMAP
60
00
40
40
40
C0
80
80
ENDCHAR
STARTCHAR four.sups
ENCODING 8308
SWIDTH 354 0
DWIDTH 6 0
BBX 5 7 2 7
BITMAP
18
30
50
90
F8
10
20
ENDCHAR
STARTCHAR five.sups
ENCODING 8309
SWIDTH 351 0
DWIDTH 6 0
BBX 6 7 1 7
BITMAP
3C
20
38
48
0C
C8
70
ENDCHAR
STARTCHAR six.sups
ENCODING 8310
SWIDTH 353 0
DWIDTH 6 0
BBX 5 7 2 7
BITMAP
38
40
80
F0
98
90
70
ENDCHAR
STARTCHAR seven.sups
ENCODING 8311
SWIDTH 353 0
DWIDTH 6 0
BBX 4 7 3 7
BITMAP
F0
10
20
40
40
80
80
ENDCHAR
STARTCHAR eight.sups
ENCODING 8312
SWIDTH 353 0
DWIDTH 6 0
BBX 5 7 2 7
BITMAP
70
48
48
B0
90
90
F0
ENDCHAR
STARTCHAR nine.sups
ENCODING 8313
SWIDTH 353 0
DWIDTH 6 0
BBX 6 7 1 7
BITMAP
38
44
44
3C
0C
08
F0
ENDCHAR
STARTCHAR parenleft.sups
ENCODING 8317
SWIDTH 227 0
DWIDTH 4 0
BBX 3 10 2 5
BITMAP
20
20
40
40
80
80
80
80
80
40
ENDCHAR
STARTCHAR parenright.sups
ENCODING 8318
SWIDTH 226 0
DWIDTH 4 0
BBX 3 10 1 5
BITMAP
20
20
20
20
20
20
20
40
40
80
ENDCHAR
STARTCHAR n.sups
ENCODING 8319
SWIDTH 355 0
DWIDTH 6 0
BBX 5 6 1 7
BITMAP
58
68
48
C8
88
88
ENDCHAR
STARTCHAR zero.subs
ENCODING 8320
SWIDTH 357 0
DWIDTH 6 0
BBX 5 7 0 -3
BITMAP
70
C8
88
88
88
90
E0
ENDCHAR
STARTCHAR one.subs
ENCODING 8321
SWIDTH 356 0
DWIDTH 6 0
BBX 3 7 1 -3
BITMAP
E0
20
60
40
40
40
40
ENDCHAR
STARTCHAR two.subs
ENCODING 8322
SWIDTH 353 0
DWIDTH 6 0
BBX 6 7 -1 -3
BITMAP
38
44
04
08
10
20
F8
ENDCHAR
STARTCHAR three.subs
ENCODING 8323
SWIDTH 351 0
DWIDTH 6 0
BBX 6 7 -1 -3
BITMAP
38
44
0C
30
08
C8
78
ENDCHAR
STARTCHAR four.subs
ENCODING 8324
SWIDTH 354 0
DWIDTH 6 0
BBX 5 7 0 -3
BITMAP
18
30
50
90
F8
10
20
ENDCHAR
STARTCHAR five.subs
ENCODING 8325
SWIDTH 351 0
DWIDTH 6 0
BBX 6 7 -1 -3
BITMAP
3C
20
38
48
0C
C8
70
ENDCHAR
STARTCHAR six.subs
ENCODING 8326
SWIDTH 353 0
DWIDTH 6 0
BBX 5 7 0 -3
BITMAP
38
40
80
F0
88
90
70
ENDCHAR
STARTCHAR seven.subs
ENCODING 8327
SWIDTH 353 0
DWIDTH 6 0
BBX 4 7 1 -3
BITMAP
F0
10
20
40
40
80
80
ENDCHAR
STARTCHAR eight.subs
ENCODING 8328
SWIDTH 353 0
DWIDTH 6 0
BBX 5 7 0 -3
BITMAP
70
48
48
B0
90
90
F0
ENDCHAR
STARTCHAR nine.subs
ENCODING 8329
SWIDTH 353 0
DWIDTH 6 0
BBX 5 7 0 -3
BITMAP
70
88
88
78
18
10
E0
ENDCHAR
STARTCHAR parenleft.subs
ENCODING 8333
SWIDTH 227 0
DWIDTH 4 0
BBX 3 10 0 -5
BITMAP
20
20
40
40
80
80
80
80
80
40
ENDCHAR
STARTCHAR parenright.subs
ENCODING 8334
SWIDTH 226 0
DWIDTH 4 0
BBX 3 10 -1 -5
BITMAP
20
20
20
20
20
20
20
40
40
80
ENDCHAR
STARTCHAR uni0259.sups
ENCODING 8340
SWIDTH 320 0
DWIDTH 6 0
BBX 5 6 1 7
BITMAP
70
08
08
F8
90
E0
ENDCHAR
STARTCHAR colonmonetary
ENCODING 8353
SWIDTH 480 0
DWIDTH 9 0
BBX 8 16 1 -2
BITMAP
04
05
1E
3A
7B
74
54
D4
D8
A8
A8
F0
54
7E
60
A0
ENDCHAR
STARTCHAR lira
ENCODING 8356
SWIDTH 480 0
DWIDTH 9 0
BBX 9 12 0 0
BITMAP
0F00
1980
1000
1000
1000
7E00
1000
7E00
1000
3000
6000
FE00
ENDCHAR
STARTCHAR uni20A6
ENCODING 8358
SWIDTH 480 0
DWIDTH 9 0
BBX 9 11 0 0
BITMAP
1100
3100
2900
2900
7F80
2A00
FF00
4A00
4A00
4C00
4400
ENDCHAR
STARTCHAR peseta
ENCODING 8359
SWIDTH 480 0
DWIDTH 9 0
BBX 8 11 1 0
BITMAP
3C
62
FF
46
44
78
C0
80
80
80
80
ENDCHAR
STARTCHAR dong
ENCODING 8363
SWIDTH 480 0
DWIDTH 9 0
BBX 9 12 1 0
BITMAP
0300
0F80
0200
3A00
6600
4600
C400
C400
CC00
7400
0000
FC00
ENDCHAR
STARTCHAR Euro
ENCODING 8364
SWIDTH 480 0
DWIDTH 9 0
BBX 9 12 0 0
BITMAP
0700
0880
1000
3000
2000
7F00
2000
FE00
6000
2000
3100
1E00
ENDCHAR
STARTCHAR uni20B1
ENCODING 8369
SWIDTH 480 0
DWIDTH 9 0
BBX 8 11 1 0
BITMAP
3C
26
FF
FF
46
4C
F8
C0
80
80
80
ENDCHAR
STARTCHAR uni20B2
ENCODING 8370
SWIDTH 480 0
DWIDTH 9 0
BBX 8 16 1 -2
BITMAP
04
04
1E
31
60
40
C0
80
8E
82
86
C6
44
78
30
20
ENDCHAR
STARTCHAR uni20B5
ENCODING 8373
SWIDTH 480 0
DWIDTH 9 0
BBX 8 16 1 -2
BITMAP
04
04
0E
3F
26
48
48
C8
C8
88
D0
D0
54
3E
10
20
ENDCHAR
STARTCHAR uni20B9
ENCODING 8377
SWIDTH 480 0
DWIDTH 9 0
BBX 8 11 1 0
BITMAP
3F
44
7F
04
0C
F8
30
10
10
18
08
ENDCHAR
STARTCHAR uni20BA
ENCODING 8378
SWIDTH 480 0
DWIDTH 9 0
BBX 7 11 1 0
BITMAP
10
32
3C
70
AC
70
E2
62
46
4C
F0
ENDCHAR
STARTCHAR uni2113
ENCODING 8467
SWIDTH 394 0
DWIDTH 7 0
BBX 8 13 0 0
BITMAP
06
09
11
13
12
36
3C
38
30
E0
E0
24
3C
ENDCHAR
STARTCHAR uni2117
ENCODING 8471
SWIDTH 665 0
DWIDTH 12 0
BBX 11 12 1 0
BITMAP
0F00
30C0
4040
8F20
8920
9120
9120
9E40
9040
9080
4100
3E00
ENDCHAR
STARTCHAR uni2120
ENCODING 8480
SWIDTH 601 0
DWIDTH 11 0
BBX 11 6 1 6
BITMAP
7260
56A0
46C0
3540
9440
E440
ENDCHAR
STARTCHAR trademark
ENCODING 8482
SWIDTH 611 0
DWIDTH 11 0
BBX 11 6 1 6
BITMAP
FA60
2660
25A0
2540
4440
4440
ENDCHAR
STARTCHAR uni2126
ENCODING 8486
SWIDTH 658 0
DWIDTH 12 0
BBX 11 12 0 0
BITMAP
0780
1860
1020
2020
2020
6020
6020
6060
6040
20C0
3180
F3C0
ENDCHAR
STARTCHAR estimated
ENCODING 8494
SWIDTH 800 0
DWIDTH 14 0
BBX 13 12 1 0
BITMAP
0F80
3060
6020
6010
E018
E018
FFF8
E000
6000
6000
3070
0F80
ENDCHAR
STARTCHAR onethird
ENCODING 8531
SWIDTH 778 0
DWIDTH 14 0
BBX 11 12 2 0
BITMAP
E080
2100
6100
4200
4400
49E0
4A20
1020
20C0
2040
4260
81C0
ENDCHAR
STARTCHAR twothirds
ENCODING 8532
SWIDTH 795 0
DWIDTH 14 0
BBX 12 12 1 0
BITMAP
3820
4840
0880
0880
1100
6270
FA90
0410
0860
1010
1110
20E0
ENDCHAR
STARTCHAR oneeighth
ENCODING 8539
SWIDTH 773 0
DWIDTH 14 0
BBX 11 12 2 0
BITMAP
E080
2100
6100
4200
4400
49E0
4920
1120
21C0
2240
4260
83C0
ENDCHAR
STARTCHAR threeeighths
ENCODING 8540
SWIDTH 787 0
DWIDTH 14 0
BBX 12 12 1 0
BITMAP
7820
4840
0880
3080
1900
8A70
7490
0490
08E0
1110
1130
20E0
ENDCHAR
STARTCHAR fiveeighths
ENCODING 8541
SWIDTH 787 0
DWIDTH 14 0
BBX 12 12 1 0
BITMAP
3C20
4040
7080
8880
0900
9A70
7490
0490
08E0
1110
1130
20E0
ENDCHAR
STARTCHAR seveneighths
ENCODING 8542
SWIDTH 770 0
DWIDTH 14 0
BBX 11 12 2 0
BITMAP
F880
1100
2100
4200
4400
89C0
8920
1120
21C0
4240
4240
83C0
ENDCHAR
STARTCHAR uni2190
ENCODING 8592
SWIDTH 593 0
DWIDTH 11 0
BBX 10 9 0 0
BITMAP
0C00
1800
3000
6000
FFC0
6000
3000
1800
0C00
ENDCHAR
STARTCHAR arrowup
ENCODING 8593
SWIDTH 593 0
DWIDTH 11 0
BBX 9 10 1 -1
BITMAP
0800
1C00
2A00
4900
8980
0800
0800
0800
0800
0800
ENDCHAR
STARTCHAR uni2192
ENCODING 8594
SWIDTH 593 0
DWIDTH 11 0
BBX 10 9 0 0
BITMAP
0400
0200
0100
0080
FFC0
0080
0100
0200
0400
ENDCHAR
STARTCHAR arrowdown
ENCODING 8595
SWIDTH 593 0
DWIDTH 11 0
BBX 9 10 1 -1
BITMAP
0800
0800
0800
0800
0800
8980
4B00
2E00
1C00
0800
ENDCHAR
STARTCHAR partialdiff
ENCODING 8706
SWIDTH 519 0
DWIDTH 9 0
BBX 9 12 0 0
BITMAP
0F00
1100
0180
0080
0080
1D80
6380
4100
C100
C200
4400
3800
ENDCHAR
STARTCHAR uni2206
ENCODING 8710
SWIDTH 565 0
DWIDTH 10 0
BBX 9 12 0 0
BITMAP
0200
0700
0D00
0900
1900
1100
3100
2100
6100
4180
C180
FF80
ENDCHAR
STARTCHAR product
ENCODING 8719
SWIDTH 646 0
DWIDTH 12 0
BBX 8 13 2 -2
BITMAP
FF
81
81
81
81
81
81
81
81
81
81
81
81
ENDCHAR
STARTCHAR summation
ENCODING 8721
SWIDTH 485 0
DWIDTH 9 0
BBX 8 13 1 -2
BITMAP
FE
C0
40
20
30
10
08
10
30
60
40
C0
FF
ENDCHAR
STARTCHAR minus
ENCODING 8722
SWIDTH 480 0
DWIDTH 9 0
BBX 7 1 1 5
BITMAP
FE
ENDCHAR
STARTCHAR uni2215
ENCODING 8725
SWIDTH 84 0
DWIDTH 2 0
BBX 10 12 -4 0
BITMAP
00C0
0080
0100
0200
0200
0400
0800
1000
1000
2000
4000
C000
ENDCHAR
STARTCHAR uni2219
ENCODING 8729
SWIDTH 244 0
DWIDTH 4 0
BBX 2 2 1 5
BITMAP
40
C0
ENDCHAR
STARTCHAR radical
ENCODING 8730
SWIDTH 537 0
DWIDTH 10 0
BBX 11 16 1 -1
BITMAP
0060
0040
0040
0080
0080
0100
0100
0200
E200
2200
2400
2400
2800
2800
3000
1000
ENDCHAR
STARTCHAR infinity
ENCODING 8734
SWIDTH 752 0
DWIDTH 14 0
BBX 12 6 1 3
BITMAP
71C0
8A20
8C10
8C10
8A20
71C0
ENDCHAR
STARTCHAR integral
ENCODING 8747
SWIDTH 321 0
DWIDTH 6 0
BBX 7 17 0 -3
BITMAP
06
08
08
18
10
10
10
10
10
10
10
30
30
20
20
60
C0
ENDCHAR
STARTCHAR approxequal
ENCODING 8776
SWIDTH 480 0
DWIDTH 9 0
BBX 7 6 1 3
BITMAP
72
9C
00
00
72
9C
ENDCHAR
STARTCHAR notequal
ENCODING 8800
SWIDTH 480 0
DWIDTH 9 0
BBX 7 8 1 2
BITMAP
06
04
FE
10
10
FE
40
C0
ENDCHAR
STARTCHAR lessequal
ENCODING 8804
SWIDTH 480 0
DWIDTH 9 0
BBX 7 9 1 0
BITMAP
06
38
C0
E0
1C
06
00
00
FE
ENDCHAR
STARTCHAR greaterequal
ENCODING 8805
SWIDTH 480 0
DWIDTH 9 0
BBX 7 9 1 0
BITMAP
C0
38
06
0E
70
C0
00
00
FE
ENDCHAR
STARTCHAR uni231C
ENCODING 8988
SWIDTH 292 0
DWIDTH 5 0
BBX 5 13 1 0
BITMAP
38
20
20
60
40
40
40
40
C0
80
80
80
80
ENDCHAR
STARTCHAR uni231D
ENCODING 8989
SWIDTH 293 0
DWIDTH 5 0
BBX 3 13 2 0
BITMAP
E0
20
20
60
40
40
40
40
C0
80
80
80
80
ENDCHAR
STARTCHAR uni231E
ENCODING 8990
SWIDTH 292 0
DWIDTH 5 0
BBX 4 13 0 -1
BITMAP
10
10
10
20
20
20
20
20
40
40
40
40
F0
ENDCHAR
STARTCHAR uni231F
ENCODING 8991
SWIDTH 293 0
DWIDTH 5 0
BBX 6 13 -1 -1
BITMAP
04
04
04
08
08
08
08
08
10
10
10
10
F0
ENDCHAR
STARTCHAR uni25A0
ENCODING 9632
SWIDTH 895 0
DWIDTH 16 0
BBX 15 14 1 -1
BITMAP
FFFE
FFFE
FFFE
FFFE
FFFE
FFFE
FFFE
FFFE
FFFE
FFFE
FFFE
FFFE
FFFE
FFFE
ENDCHAR
STARTCHAR triagup
ENCODING 9650
SWIDTH 895 0
DWIDTH 16 0
BBX 15 15 1 -1
BITMAP
0100
0100
0380
0380
07C0
07C0
0FE0
0FE0
1FE0
1FF0
3FF0
3FF8
7FF8
7FFC
FFFE
ENDCHAR
STARTCHAR uni25B3
ENCODING 9651
SWIDTH 895 0
DWIDTH 16 0
BBX 15 15 1 -1
BITMAP
0100
0100
0380
0280
04C0
0440
0C40
0820
1820
1010
3010
2008
6008
4004
FFFE
ENDCHAR
STARTCHAR uni25B6
ENCODING 9654
SWIDTH 895 0
DWIDTH 16 0
BBX 15 14 1 -1
BITMAP
8000
E000
F800
FF00
FFC0
FFF0
FFFC
FFFE
FFF0
FFC0
FF00
F800
E000
8000
ENDCHAR
STARTCHAR uni25B7
ENCODING 9655
SWIDTH 895 0
DWIDTH 16 0
BBX 15 14 1 -1
BITMAP
8000
E000
9800
8700
81C0
8070
800C
800E
8070
81C0
8700
9800
E000
8000
ENDCHAR
STARTCHAR triagdn
ENCODING 9660
SWIDTH 895 0
DWIDTH 16 0
BBX 15 15 1 -2
BITMAP
FFFE
7FFC
7FF8
3FF8
3FF0
1FF0
1FE0
0FE0
0FE0
07C0
07C0
0380
0380
0100
0100
ENDCHAR
STARTCHAR uni25BD
ENCODING 9661
SWIDTH 895 0
DWIDTH 16 0
BBX 15 15 1 -2
BITMAP
FFFE
4004
6008
2008
3010
1010
1820
0820
0C40
0440
04C0
0280
0380
0100
0100
ENDCHAR
STARTCHAR uni25C0
ENCODING 9664
SWIDTH 895 0
DWIDTH 16 0
BBX 15 14 1 -1
BITMAP
0002
001E
007E
01FE
07FE
1FFE
7FFE
FFFE
1FFE
07FE
01FE
007E
001E
0002
ENDCHAR
STARTCHAR uni25C1
ENCODING 9665
SWIDTH 895 0
DWIDTH 16 0
BBX 15 14 1 -1
BITMAP
0002
001E
0072
01C2
0602
1802
6002
E002
1802
0702
01C2
0072
001E
0002
ENDCHAR
STARTCHAR uni25C6
ENCODING 9670
SWIDTH 895 0
DWIDTH 16 0
BBX 15 15 1 -1
BITMAP
0100
0380
07C0
0FE0
1FF0
3FF8
7FFC
FFFE
7FFC
3FF8
1FF0
0FE0
07C0
0380
0100
ENDCHAR
STARTCHAR uni25C9
ENCODING 9673
SWIDTH 895 0
DWIDTH 16 0
BBX 15 15 1 -1
BITMAP
07C0
1830
2008
478C
CFE4
9FE6
9FF2
9FF2
9FF2
9FF6
DFE4
4FC4
2308
1830
07C0
ENDCHAR
STARTCHAR lozenge
ENCODING 9674
SWIDTH 499 0
DWIDTH 9 0
BBX 7 12 1 0
BITMAP
18
28
2C
64
46
42
C2
46
64
2C
28
18
ENDCHAR
STARTCHAR uni2610
ENCODING 9744
SWIDTH 765 0
DWIDTH 14 0
BBX 12 12 1 0
BITMAP
7FF0
8030
8030
8030
8030
8030
8030
8030
8030
8030
8030
FFE0
ENDCHAR
STARTCHAR uni2611
ENCODING 9745
SWIDTH 766 0
DWIDTH 14 0
BBX 14 14 1 0
BITMAP
000C
0018
7FF0
8070
80F0
80B0
A130
B230
9230
9430
9830
8830
8030
FFE0
ENDCHAR
STARTCHAR uni266A
ENCODING 9834
SWIDTH 480 0
DWIDTH 9 0
BBX 7 13 1 0
BITMAP
10
18
1C
16
12
12
12
12
10
10
F0
F0
E0
ENDCHAR
STARTCHAR uni2713
ENCODING 10003
SWIDTH 542 0
DWIDTH 10 0
BBX 12 12 0 0
BITMAP
0030
0060
0080
0100
0300
0200
8400
8800
C800
5000
5000
6000
ENDCHAR
STARTCHAR uni2752
ENCODING 10066
SWIDTH 895 0
DWIDTH 16 0
BBX 15 14 1 -1
BITMAP
7FFE
8006
8006
8006
8006
8006
8006
8006
8006
8006
8006
8006
8006
FFFC
ENDCHAR
STARTCHAR uni2E22
ENCODING 11810
SWIDTH 292 0
DWIDTH 5 0
BBX 4 8 2 5
BITMAP
70
40
40
40
80
80
80
80
ENDCHAR
STARTCHAR uni2E23
ENCODING 11811
SWIDTH 293 0
DWIDTH 5 0
BBX 3 8 2 5
BITMAP
E0
20
20
20
40
40
40
40
ENDCHAR
STARTCHAR uni2E24
ENCODING 11812
SWIDTH 292 0
DWIDTH 5 0
BBX 3 8 0 -3
BITMAP
20
40
40
40
40
40
80
E0
ENDCHAR
STARTCHAR uni2E25
ENCODING 11813
SWIDTH 293 0
DWIDTH 5 0
BBX 5 8 -1 -3
BITMAP
08
10
10
10
10
10
20
E0
ENDCHAR
STARTCHAR f_f
ENCODING 64256
SWIDTH 552 0
DWIDTH 10 0
BBX 11 13 1 0
BITMAP
1CE0
3180
2100
2300
FFC0
6200
4200
4200
4600
C600
C400
8400
8400
ENDCHAR
STARTCHAR fi
ENCODING 64257
SWIDTH 519 0
DWIDTH 9 0
BBX 9 13 1 0
BITMAP
1D00
3180
2000
2000
FB00
6200
4200
4200
4200
C600
C400
8400
8400
ENDCHAR
STARTCHAR fl
ENCODING 64258
SWIDTH 530 0
DWIDTH 10 0
BBX 9 13 1 0
BITMAP
1D80
3100
2100
2300
FB00
6200
4200
4200
4200
C600
C400
8400
8600
ENDCHAR
STARTCHAR uniFEFF
ENCODING 65279
SWIDTH 0 0
DWIDTH 0 0
BBX 1 1 0 0
BITMAP
00
ENDCHAR
STARTCHAR .notdef
ENCODING -1
SWIDTH 628 0
DWIDTH 11 0
BBX 10 12 1 0
BITMAP
3FC0
30C0
7140
5AC0
4A80
4C80
4C80
5480
A780
A300
C300
FF00
ENDCHAR
STARTCHAR uni00470303
ENCODING -1
SWIDTH 588 0
DWIDTH 11 0
BBX 10 15 1 0
BITMAP
0E40
1380
0000
0F00
3080
2000
4000
4000
C000
C780
8100
C100
C100
6300
3E00
ENDCHAR
STARTCHAR uni00670303
ENCODING -1
SWIDTH 531 0
DWIDTH 10 0
BBX 9 16 0 -4
BITMAP
1E80
1380
0000
0E80
3180
2100
6100
4100
4100
4300
6600
3A00
0200
0600
8400
7800
ENDCHAR
STARTCHAR iogonek.d
ENCODING -1
SWIDTH 237 0
DWIDTH 4 0
BBX 5 13 -1 -4
BITMAP
18
10
10
10
30
30
20
20
20
40
40
80
E0
ENDCHAR
STARTCHAR f_t
ENCODING -1
SWIDTH 561 0
DWIDTH 10 0
BBX 9 13 1 0
BITMAP
1C00
3000
2300
2200
FF80
6200
4600
4400
4400
C400
C400
8400
8700
ENDCHAR
STARTCHAR I.a
ENCODING -1
SWIDTH 324 0
DWIDTH 6 0
BBX 7 12 0 0
BITMAP
3E
18
18
10
10
10
30
30
20
20
20
F0
ENDCHAR
STARTCHAR Igrave.a
ENCODING -1
SWIDTH 324 0
DWIDTH 6 0
BBX 7 16 0 0
BITMAP
10
38
0C
00
3E
18
18
10
10
10
30
30
20
20
20
F0
ENDCHAR
STARTCHAR Iacute.a
ENCODING -1
SWIDTH 324 0
DWIDTH 6 0
BBX 7 16 0 0
BITMAP
02
0E
08
00
3E
18
18
10
10
10
30
30
20
20
20
F0
ENDCHAR
STARTCHAR Icircumflex.a
ENCODING -1
SWIDTH 324 0
DWIDTH 6 0
BBX 7 15 0 0
BITMAP
0C
16
22
3C
18
18
10
10
10
30
30
20
20
20
F0
ENDCHAR
STARTCHAR Itilde.a
ENCODING -1
SWIDTH 324 0
DWIDTH 6 0
BBX 8 15 0 0
BITMAP
39
4E
00
3E
18
18
10
10
10
30
30
20
20
20
F0
ENDCHAR
STARTCHAR Idieresis.a
ENCODING -1
SWIDTH 324 0
DWIDTH 6 0
BBX 7 14 0 0
BITMAP
36
00
3E
18
18
10
10
10
30
30
20
20
20
F0
ENDCHAR
STARTCHAR Imacron.a
ENCODING -1
SWIDTH 324 0
DWIDTH 6 0
BBX 7 14 0 0
BITMAP
3E
00
3E
18
18
10
10
10
30
30
20
20
20
F0
ENDCHAR
STARTCHAR Idotaccent.a
ENCODING -1
SWIDTH 324 0
DWIDTH 6 0
BBX 7 14 0 0
BITMAP
0C
00
3E
18
18
10
10
10
30
30
20
20
20
F0
ENDCHAR
STARTCHAR uni01CF.a
ENCODING -1
SWIDTH 324 0
DWIDTH 6 0
BBX 7 16 0 0
BITMAP
22
16
1C
00
3E
18
18
10
10
10
30
30
20
20
20
F0
ENDCHAR
STARTCHAR uni1EC8.a
ENCODING -1
SWIDTH 324 0
DWIDTH 6 0
BBX 7 16 0 0
BITMAP
18
04
08
00
3E
18
18
10
10
10
30
30
20
20
20
F0
ENDCHAR
STARTCHAR uni1ECA.a
ENCODING -1
SWIDTH 324 0
DWIDTH 6 0
BBX 7 15 0 -3
BITMAP
3E
18
18
10
10
10
30
30
20
20
20
F0
00
00
60
ENDCHAR
STARTCHAR Iogonek.a
ENCODING -1
SWIDTH 324 0
DWIDTH 6 0
BBX 7 16 0 -4
BITMAP
3E
18
18
10
10
10
30
30
20
20
20
F0
40
80
80
E0
ENDCHAR
STARTCHAR a.a
ENCODING -1
SWIDTH 492 0
DWIDTH 9 0
BBX 7 9 1 0
BITMAP
3C
46
06
3E
C6
84
84
8C
F4
ENDCHAR
STARTCHAR agrave.a
ENCODING -1
SWIDTH 492 0
DWIDTH 9 0
BBX 7 14 1 0
BITMAP
10
18
0C
04
00
3C
46
06
3E
C6
84
84
8C
F4
ENDCHAR
STARTCHAR aacute.a
ENCODING -1
SWIDTH 492 0
DWIDTH 9 0
BBX 7 14 1 0
BITMAP
02
06
0C
18
00
3C
46
06
3E
C6
84
84
8C
F4
ENDCHAR
STARTCHAR acircumflex.a
ENCODING -1
SWIDTH 492 0
DWIDTH 9 0
BBX 7 13 1 0
BITMAP
0C
16
22
00
3C
46
06
3E
C6
84
84
8C
F4
ENDCHAR
STARTCHAR atilde.a
ENCODING -1
SWIDTH 492 0
DWIDTH 9 0
BBX 8 12 1 0
BITMAP
39
26
00
3C
46
06
3E
C6
84
84
8C
F4
ENDCHAR
STARTCHAR adieresis.a
ENCODING -1
SWIDTH 492 0
DWIDTH 9 0
BBX 7 12 1 0
BITMAP
32
00
00
3C
46
06
3E
C6
84
84
8C
F4
ENDCHAR
STARTCHAR amacron.a
ENCODING -1
SWIDTH 492 0
DWIDTH 9 0
BBX 7 12 1 0
BITMAP
3E
00
00
3C
46
06
3E
C6
84
84
8C
F4
ENDCHAR
STARTCHAR abreve.a
ENCODING -1
SWIDTH 492 0
DWIDTH 9 0
BBX 8 13 1 0
BITMAP
21
32
1C
00
3C
46
06
3E
C6
84
84
8C
F4
ENDCHAR
STARTCHAR aring.a
ENCODING -1
SWIDTH 492 0
DWIDTH 9 0
BBX 7 14 1 0
BITMAP
0C
12
12
1C
00
3C
46
06
3E
C6
84
84
8C
F4
ENDCHAR
STARTCHAR uni01CE.a
ENCODING -1
SWIDTH 492 0
DWIDTH 9 0
BBX 8 13 1 0
BITMAP
23
16
1C
00
3C
46
06
3E
C6
84
84
8C
F4
ENDCHAR
STARTCHAR uni1EA1.a
ENCODING -1
SWIDTH 492 0
DWIDTH 9 0
BBX 7 12 1 -3
BITMAP
3C
46
06
3E
C6
84
84
8C
F4
00
00
60
ENDCHAR
STARTCHAR uni1EA3.a
ENCODING -1
SWIDTH 492 0
DWIDTH 9 0
BBX 7 14 1 0
BITMAP
0C
04
04
08
00
3C
46
06
3E
C6
84
84
8C
F4
ENDCHAR
STARTCHAR uni1EA5.a
ENCODING -1
SWIDTH 492 0
DWIDTH 9 0
BBX 9 14 1 0
BITMAP
0080
0D00
1200
2000
0000
3C00
4600
0600
3E00
C600
8400
8400
8C00
F400
ENDCHAR
STARTCHAR uni1EA7.a
ENCODING -1
SWIDTH 492 0
DWIDTH 9 0
BBX 7 14 1 0
BITMAP
40
6C
52
20
00
3C
46
06
3E
C6
84
84
8C
F4
ENDCHAR
STARTCHAR uni1EA9.a
ENCODING -1
SWIDTH 492 0
DWIDTH 9 0
BBX 9 14 1 0
BITMAP
0100
0C80
1300
2000
0000
3C00
4600
0600
3E00
C600
8400
8400
8C00
F400
ENDCHAR
STARTCHAR uni1EAB.a
ENCODING -1
SWIDTH 492 0
DWIDTH 9 0
BBX 8 14 1 0
BITMAP
1F
00
0C
32
00
3C
46
06
3E
C6
84
84
8C
F4
ENDCHAR
STARTCHAR uni1EAD.a
ENCODING -1
SWIDTH 492 0
DWIDTH 9 0
BBX 7 16 1 -3
BITMAP
0C
16
22
00
3C
46
06
3E
C6
84
84
8C
F4
00
00
60
ENDCHAR
STARTCHAR uni1EAF.a
ENCODING -1
SWIDTH 492 0
DWIDTH 9 0
BBX 8 15 1 0
BITMAP
02
04
29
32
1C
00
3C
46
06
3E
C6
84
84
8C
F4
ENDCHAR
STARTCHAR uni1EB1.a
ENCODING -1
SWIDTH 492 0
DWIDTH 9 0
BBX 8 15 1 0
BITMAP
18
08
25
32
1C
00
3C
46
06
3E
C6
84
84
8C
F4
ENDCHAR
STARTCHAR uni1EB3.a
ENCODING -1
SWIDTH 492 0
DWIDTH 9 0
BBX 8 15 1 0
BITMAP
0C
06
2D
22
1C
00
3C
46
06
3E
C6
84
84
8C
F4
ENDCHAR
STARTCHAR uni1EB5.a
ENCODING -1
SWIDTH 492 0
DWIDTH 9 0
BBX 8 15 1 0
BITMAP
19
16
20
22
1C
00
3C
46
06
3E
C6
84
84
8C
F4
ENDCHAR
STARTCHAR uni1EB7.a
ENCODING -1
SWIDTH 492 0
DWIDTH 9 0
BBX 8 16 1 -3
BITMAP
21
32
1C
00
3C
46
06
3E
C6
84
84
8C
F4
00
00
60
ENDCHAR
STARTCHAR aogonek.a
ENCODING -1
SWIDTH 492 0
DWIDTH 9 0
BBX 7 13 1 -4
BITMAP
3C
46
06
3E
C6
84
84
8C
F4
08
10
10
18
ENDCHAR
STARTCHAR g.a
ENCODING -1
SWIDTH 477 0
DWIDTH 9 0
BBX 9 13 0 -4
BITMAP
1F80
3200
2300
6200
2600
3C00
6000
6000
3C00
C600
8200
8600
7800
ENDCHAR
STARTCHAR gcircumflex.a
ENCODING -1
SWIDTH 477 0
DWIDTH 9 0
BBX 9 17 0 -4
BITMAP
0E00
1A00
1100
0000
1F80
3200
2300
6200
2600
3C00
6000
6000
3C00
C600
8200
8600
7800
ENDCHAR
STARTCHAR gbreve.a
ENCODING -1
SWIDTH 477 0
DWIDTH 9 0
BBX 9 17 0 -4
BITMAP
1180
1100
0E00
0000
1F80
3200
2300
6200
2600
3C00
6000
6000
3C00
C600
8200
8600
7800
ENDCHAR
STARTCHAR gdotaccent.a
ENCODING -1
SWIDTH 477 0
DWIDTH 9 0
BBX 9 16 0 -4
BITMAP
0C00
0000
0000
1F80
3200
2300
6200
2600
3C00
6000
6000
3C00
C600
8200
8600
7800
ENDCHAR
STARTCHAR uni0123.a
ENCODING -1
SWIDTH 477 0
DWIDTH 9 0
BBX 9 18 0 -4
BITMAP
0600
0C00
0800
0C00
0000
1F80
3200
2300
6200
2600
3C00
6000
6000
3C00
C600
8200
8600
7800
ENDCHAR
STARTCHAR gcaron.a
ENCODING -1
SWIDTH 477 0
DWIDTH 9 0
BBX 9 17 0 -4
BITMAP
1100
1A00
0C00
0000
1F80
3200
2300
6200
2600
3C00
6000
6000
3C00
C600
8200
8600
7800
ENDCHAR
STARTCHAR uni1E21.a
ENCODING -1
SWIDTH 477 0
DWIDTH 9 0
BBX 9 16 0 -4
BITMAP
1F00
0000
0000
1F80
3200
2300
6200
2600
3C00
6000
6000
3C00
C600
8200
8600
7800
ENDCHAR
STARTCHAR uni00670303.a
ENCODING -1
SWIDTH 477 0
DWIDTH 9 0
BBX 9 16 0 -4
BITMAP
1D80
2300
0000
1F80
3200
2300
6200
2600
3C00
6000
6000
3C00
C600
8200
8600
7800
ENDCHAR
STARTCHAR l.a
ENCODING -1
SWIDTH 238 0
DWIDTH 4 0
BBX 4 13 1 0
BITMAP
30
20
20
60
60
40
40
40
C0
C0
80
80
80
ENDCHAR
STARTCHAR lacute.a
ENCODING -1
SWIDTH 238 0
DWIDTH 4 0
BBX 6 17 1 0
BITMAP
08
1C
20
00
30
20
20
60
60
40
40
40
C0
C0
80
80
80
ENDCHAR
STARTCHAR lcaron.a
ENCODING -1
SWIDTH 242 0
DWIDTH 4 0
BBX 5 14 1 0
BITMAP
08
38
28
28
60
60
40
40
40
C0
C0
80
80
80
ENDCHAR
STARTCHAR ldot.a
ENCODING -1
SWIDTH 331 0
DWIDTH 6 0
BBX 5 13 1 0
BITMAP
30
20
20
60
60
40
48
58
C0
C0
80
80
80
ENDCHAR
STARTCHAR uni013C.a
ENCODING -1
SWIDTH 238 0
DWIDTH 4 0
BBX 6 17 -1 -4
BITMAP
0C
08
08
18
18
10
10
10
30
30
20
20
20
00
60
20
C0
ENDCHAR
STARTCHAR uni1E37.a
ENCODING -1
SWIDTH 238 0
DWIDTH 4 0
BBX 5 16 0 -3
BITMAP
18
10
10
30
30
20
20
20
60
60
40
40
40
00
00
C0
ENDCHAR
STARTCHAR uni1E39.a
ENCODING -1
SWIDTH 238 0
DWIDTH 4 0
BBX 7 19 0 -3
BITMAP
3E
00
00
18
10
10
30
30
20
20
20
60
60
40
40
40
00
00
C0
ENDCHAR
STARTCHAR uni1E3B.a
ENCODING -1
SWIDTH 238 0
DWIDTH 4 0
BBX 7 16 -2 -3
BITMAP
06
04
04
0C
0C
08
08
08
18
18
10
10
10
00
00
F8
ENDCHAR
STARTCHAR lslash.a
ENCODING -1
SWIDTH 246 0
DWIDTH 4 0
BBX 5 13 0 0
BITMAP
18
10
10
10
38
30
60
A0
20
60
40
40
40
ENDCHAR
STARTCHAR zero.pnum
ENCODING -1
SWIDTH 504 0
DWIDTH 9 0
BBX 8 11 1 0
BITMAP
1C
22
43
43
C3
83
82
82
84
CC
78
ENDCHAR
STARTCHAR one.pnum
ENCODING -1
SWIDTH 340 0
DWIDTH 6 0
BBX 3 11 2 0
BITMAP
20
E0
20
60
60
40
40
40
C0
C0
80
ENDCHAR
STARTCHAR two.pnum
ENCODING -1
SWIDTH 467 0
DWIDTH 8 0
BBX 8 11 0 0
BITMAP
1E
23
01
01
03
06
0C
18
30
60
FE
ENDCHAR
STARTCHAR three.pnum
ENCODING -1
SWIDTH 461 0
DWIDTH 8 0
BBX 8 11 0 0
BITMAP
1E
23
01
01
06
18
06
02
82
C6
7C
ENDCHAR
STARTCHAR four.pnum
ENCODING -1
SWIDTH 485 0
DWIDTH 9 0
BBX 8 11 0 0
BITMAP
03
07
07
0A
12
22
42
FF
04
04
04
ENDCHAR
STARTCHAR five.pnum
ENCODING -1
SWIDTH 461 0
DWIDTH 8 0
BBX 8 11 0 0
BITMAP
1F
10
30
20
3C
42
03
02
82
C6
78
ENDCHAR
STARTCHAR six.pnum
ENCODING -1
SWIDTH 480 0
DWIDTH 9 0
BBX 8 11 1 0
BITMAP
1E
33
60
40
FC
C6
86
82
86
CC
78
ENDCHAR
STARTCHAR seven.pnum
ENCODING -1
SWIDTH 456 0
DWIDTH 8 0
BBX 7 11 2 0
BITMAP
FE
04
08
10
30
20
60
40
40
C0
80
ENDCHAR
STARTCHAR eight.pnum
ENCODING -1
SWIDTH 480 0
DWIDTH 9 0
BBX 7 11 1 0
BITMAP
1C
22
62
22
3E
78
C4
86
86
C4
78
ENDCHAR
STARTCHAR nine.pnum
ENCODING -1
SWIDTH 480 0
DWIDTH 9 0
BBX 8 11 0 0
BITMAP
1E
33
21
61
61
23
3D
02
02
44
F8
ENDCHAR
STARTCHAR zero.tnum
ENCODING -1
SWIDTH 480 0
DWIDTH 9 0
BBX 7 10 1 0
BITMAP
3C
66
42
C2
82
82
86
84
C8
70
ENDCHAR
STARTCHAR one.tnum
ENCODING -1
SWIDTH 480 0
DWIDTH 9 0
BBX 7 10 0 0
BITMAP
04
1C
04
0C
0C
08
08
08
18
FE
ENDCHAR
STARTCHAR two.tnum
ENCODING -1
SWIDTH 480 0
DWIDTH 9 0
BBX 8 10 0 0
BITMAP
1E
23
03
03
02
04
08
30
60
FE
ENDCHAR
STARTCHAR three.tnum
ENCODING -1
SWIDTH 480 0
DWIDTH 9 0
BBX 8 11 0 -1
BITMAP
1E
23
01
03
06
18
06
02
82
C6
78
ENDCHAR
STARTCHAR four.tnum
ENCODING -1
SWIDTH 480 0
DWIDTH 9 0
BBX 8 12 0 -2
BITMAP
03
07
0E
0A
12
22
66
44
FF
04
04
0C
ENDCHAR
STARTCHAR five.tnum
ENCODING -1
SWIDTH 480 0
DWIDTH 9 0
BBX 8 11 0 -1
BITMAP
1F
30
20
20
3C
46
02
02
82
84
78
ENDCHAR
STARTCHAR six.tnum
ENCODING -1
SWIDTH 480 0
DWIDTH 9 0
BBX 8 11 1 0
BITMAP
1E
33
60
40
FC
C6
86
82
86
CC
78
ENDCHAR
STARTCHAR seven.tnum
ENCODING -1
SWIDTH 480 0
DWIDTH 9 0
BBX 7 11 2 -1
BITMAP
FE
04
08
10
30
20
60
40
40
C0
C0
ENDCHAR
STARTCHAR eight.tnum
ENCODING -1
SWIDTH 480 0
DWIDTH 9 0
BBX 7 11 1 0
BITMAP
1C
22
62
22
3E
78
C4
86
86
C4
78
ENDCHAR
STARTCHAR nine.tnum
ENCODING -1
SWIDTH 480 0
DWIDTH 9 0
BBX 8 11 0 -1
BITMAP
1E
22
61
41
41
63
3F
02
06
8C
78
ENDCHAR
STARTCHAR zero.onum
ENCODING -1
SWIDTH 480 0
DWIDTH 9 0
BBX 7 10 1 0
BITMAP
3C
66
42
C2
82
82
86
84
C8
70
ENDCHAR
STARTCHAR one.onum
ENCODING -1
SWIDTH 342 0
DWIDTH 6 0
BBX 4 10 1 0
BITMAP
30
F0
30
20
20
20
60
60
40
40
ENDCHAR
STARTCHAR two.onum
ENCODING -1
SWIDTH 462 0
DWIDTH 8 0
BBX 8 10 0 0
BITMAP
1E
22
03
02
02
04
08
30
60
FE
ENDCHAR
STARTCHAR three.onum
ENCODING -1
SWIDTH 480 0
DWIDTH 9 0
BBX 8 11 0 -1
BITMAP
1E
23
01
03
06
18
06
02
82
C6
78
ENDCHAR
STARTCHAR four.onum
ENCODING -1
SWIDTH 480 0
DWIDTH 9 0
BBX 8 12 0 -2
BITMAP
03
07
0E
0A
12
22
66
44
FF
04
04
0C
ENDCHAR
STARTCHAR five.onum
ENCODING -1
SWIDTH 480 0
DWIDTH 9 0
BBX 8 11 0 -1
BITMAP
1F
30
20
20
3C
46
02
02
82
84
78
ENDCHAR
STARTCHAR six.onum
ENCODING -1
SWIDTH 480 0
DWIDTH 9 0
BBX 8 11 1 0
BITMAP
1E
33
60
40
FC
C6
86
82
86
CC
78
ENDCHAR
STARTCHAR seven.onum
ENCODING -1
SWIDTH 456 0
DWIDTH 8 0
BBX 8 11 1 -1
BITMAP
7F
86
0C
08
10
10
20
20
60
40
40
ENDCHAR
STARTCHAR eight.onum
ENCODING -1
SWIDTH 480 0
DWIDTH 9 0
BBX 7 11 1 0
BITMAP
1C
22
62
22
3E
78
C4
86
86
C4
78
ENDCHAR
STARTCHAR nine.onum
ENCODING -1
SWIDTH 480 0
DWIDTH 9 0
BBX 8 11 0 -1
BITMAP
1E
22
61
41
41
63
3F
02
06
8C
78
ENDCHAR
STARTCHAR at.case
ENCODING -1
SWIDTH 802 0
DWIDTH 14 0
BBX 12 12 2 0
BITMAP
0F80
1860
2020
4690
8910
9110
9130
9320
8DC0
8000
6200
3E00
ENDCHAR
STARTCHAR period.sups
ENCODING -1
SWIDTH 170 0
DWIDTH 3 0
BBX 2 1 1 7
BITMAP
C0
ENDCHAR
STARTCHAR comma.sups
ENCODING -1
SWIDTH 170 0
DWIDTH 3 0
BBX 2 4 1 4
BITMAP
C0
40
C0
80
ENDCHAR
STARTCHAR period.subs
ENCODING -1
SWIDTH 170 0
DWIDTH 3 0
BBX 2 1 -1 -3
BITMAP
C0
ENDCHAR
STARTCHAR comma.subs
ENCODING -1
SWIDTH 170 0
DWIDTH 3 0
BBX 2 4 -1 -6
BITMAP
C0
40
C0
80
ENDCHAR
STARTCHAR zero.dnom
ENCODING -1
SWIDTH 357 0
DWIDTH 6 0
BBX 6 7 0 0
BITMAP
38
4C
44
84
88
C8
70
ENDCHAR
STARTCHAR one.dnom
ENCODING -1
SWIDTH 356 0
DWIDTH 6 0
BBX 3 7 2 0
BITMAP
E0
40
40
40
40
80
80
ENDCHAR
STARTCHAR two.dnom
ENCODING -1
SWIDTH 353 0
DWIDTH 6 0
BBX 5 7 0 0
BITMAP
38
48
08
08
10
60
F8
ENDCHAR
STARTCHAR three.dnom
ENCODING -1
SWIDTH 351 0
DWIDTH 6 0
BBX 5 7 0 0
BITMAP
38
48
08
30
08
88
70
ENDCHAR
STARTCHAR four.dnom
ENCODING -1
SWIDTH 354 0
DWIDTH 6 0
BBX 5 7 0 0
BITMAP
08
18
28
48
F8
10
10
ENDCHAR
STARTCHAR five.dnom
ENCODING -1
SWIDTH 351 0
DWIDTH 6 0
BBX 6 7 0 0
BITMAP
3C
20
78
48
08
88
70
ENDCHAR
STARTCHAR six.dnom
ENCODING -1
SWIDTH 353 0
DWIDTH 6 0
BBX 6 7 0 0
BITMAP
3C
60
40
F8
C8
48
70
ENDCHAR
STARTCHAR seven.dnom
ENCODING -1
SWIDTH 353 0
DWIDTH 6 0
BBX 5 7 1 0
BITMAP
F8
10
20
20
40
40
C0
ENDCHAR
STARTCHAR eight.dnom
ENCODING -1
SWIDTH 353 0
DWIDTH 6 0
BBX 5 7 0 0
BITMAP
38
48
48
70
88
88
70
ENDCHAR
STARTCHAR nine.dnom
ENCODING -1
SWIDTH 353 0
DWIDTH 6 0
BBX 5 7 0 0
BITMAP
38
48
48
78
08
18
F0
ENDCHAR
STARTCHAR parenleft.dnom
ENCODING -1
SWIDTH 227 0
DWIDTH 4 0
BBX 3 10 1 -2
BITMAP
20
40
40
80
80
80
80
80
80
80
ENDCHAR
STARTCHAR parenright.dnom
ENCODING -1
SWIDTH 226 0
DWIDTH 4 0
BBX 3 10 0 -2
BITMAP
40
20
20
20
20
20
40
40
80
80
ENDCHAR
STARTCHAR period.dnom
ENCODING -1
SWIDTH 170 0
DWIDTH 3 0
BBX 2 1 0 0
BITMAP
C0
ENDCHAR
STARTCHAR comma.dnom
ENCODING -1
SWIDTH 170 0
DWIDTH 3 0
BBX 3 4 -1 -3
BITMAP
60
20
40
80
ENDCHAR
STARTCHAR zero.numr
ENCODING -1
SWIDTH 357 0
DWIDTH 6 0
BBX 6 7 1 5
BITMAP
38
4C
44
84
88
C8
70
ENDCHAR
STARTCHAR one.numr
ENCODING -1
SWIDTH 356 0
DWIDTH 6 0
BBX 3 7 3 5
BITMAP
E0
40
40
40
C0
80
80
ENDCHAR
STARTCHAR two.numr
ENCODING -1
SWIDTH 353 0
DWIDTH 6 0
BBX 5 7 1 5
BITMAP
38
48
08
08
10
60
F8
ENDCHAR
STARTCHAR three.numr
ENCODING -1
SWIDTH 351 0
DWIDTH 6 0
BBX 5 7 1 5
BITMAP
38
48
08
30
08
88
70
ENDCHAR
STARTCHAR four.numr
ENCODING -1
SWIDTH 354 0
DWIDTH 6 0
BBX 5 7 1 5
BITMAP
08
18
28
50
F8
10
10
ENDCHAR
STARTCHAR five.numr
ENCODING -1
SWIDTH 351 0
DWIDTH 6 0
BBX 6 7 1 5
BITMAP
3C
40
70
88
08
88
70
ENDCHAR
STARTCHAR six.numr
ENCODING -1
SWIDTH 353 0
DWIDTH 6 0
BBX 6 7 1 5
BITMAP
38
64
40
F8
88
48
70
ENDCHAR
STARTCHAR seven.numr
ENCODING -1
SWIDTH 353 0
DWIDTH 6 0
BBX 5 7 2 5
BITMAP
F8
10
20
20
40
40
C0
ENDCHAR
STARTCHAR eight.numr
ENCODING -1
SWIDTH 353 0
DWIDTH 6 0
BBX 5 7 1 5
BITMAP
38
48
48
70
88
88
70
ENDCHAR
STARTCHAR nine.numr
ENCODING -1
SWIDTH 353 0
DWIDTH 6 0
BBX 5 7 1 5
BITMAP
38
48
48
78
08
18
F0
ENDCHAR
STARTCHAR parenleft.numr
ENCODING -1
SWIDTH 227 0
DWIDTH 4 0
BBX 3 10 2 3
BITMAP
20
40
40
80
80
80
80
80
80
80
ENDCHAR
STARTCHAR parenright.numr
ENCODING -1
SWIDTH 226 0
DWIDTH 4 0
BBX 4 10 0 3
BITMAP
20
10
10
10
10
10
20
20
40
C0
ENDCHAR
STARTCHAR period.numr
ENCODING -1
SWIDTH 170 0
DWIDTH 3 0
BBX 1 1 1 5
BITMAP
80
ENDCHAR
STARTCHAR comma.numr
ENCODING -1
SWIDTH 170 0
DWIDTH 3 0
BBX 3 4 0 2
BITMAP
40
20
40
80
ENDCHAR
STARTCHAR ordfeminine.a
ENCODING -1
SWIDTH 333 0
DWIDTH 6 0
BBX 5 6 1 7
BITMAP
70
08
78
90
90
F0
ENDCHAR
STARTCHAR q.sups
ENCODING -1
SWIDTH 356 0
DWIDTH 6 0
BBX 6 8 1 5
BITMAP
34
48
88
88
98
68
10
10
ENDCHAR
STARTCHAR egrave.sups
ENCODING -1
SWIDTH 323 0
DWIDTH 6 0
BBX 5 9 1 7
BITMAP
30
10
00
30
48
88
F8
80
70
ENDCHAR
STARTCHAR eacute.sups
ENCODING -1
SWIDTH 323 0
DWIDTH 6 0
BBX 5 9 1 7
BITMAP
08
10
00
30
48
88
F8
80
70
ENDCHAR
STARTCHAR a.supa
ENCODING -1
SWIDTH 333 0
DWIDTH 6 0
BBX 5 6 1 7
BITMAP
78
08
78
C8
90
F0
ENDCHAR
STARTCHAR g.supa
ENCODING -1
SWIDTH 324 0
DWIDTH 6 0
BBX 7 9 0 4
BITMAP
3E
24
24
38
40
70
48
88
70
ENDCHAR
STARTCHAR l.supa
ENCODING -1
SWIDTH 164 0
DWIDTH 3 0
BBX 3 8 1 7
BITMAP
20
40
40
40
40
40
80
80
ENDCHAR
STARTCHAR slash.frac
ENCODING -1
SWIDTH 84 0
DWIDTH 2 0
BBX 10 12 -4 0
BITMAP
00C0
0080
0100
0200
0200
0400
0800
1000
1000
2000
4000
C000
ENDCHAR
STARTCHAR uni0300.cap
ENCODING -1
SWIDTH 0 0
DWIDTH 0 0
BBX 3 3 0 13
BITMAP
40
E0
20
ENDCHAR
STARTCHAR uni0301.cap
ENCODING -1
SWIDTH 0 0
DWIDTH 0 0
BBX 4 3 1 13
BITMAP
10
60
C0
ENDCHAR
STARTCHAR uni0302.cap
ENCODING -1
SWIDTH 0 0
DWIDTH 0 0
BBX 5 3 0 12
BITMAP
70
D0
88
ENDCHAR
STARTCHAR uni0303.cap
ENCODING -1
SWIDTH 0 0
DWIDTH 0 0
BBX 7 2 -1 13
BITMAP
72
9C
ENDCHAR
STARTCHAR uni0304.cap
ENCODING -1
SWIDTH 0 0
DWIDTH 0 0
BBX 5 1 0 13
BITMAP
F8
ENDCHAR
STARTCHAR uni0306.cap
ENCODING -1
SWIDTH 0 0
DWIDTH 0 0
BBX 5 3 0 13
BITMAP
90
88
70
ENDCHAR
STARTCHAR uni0307.cap
ENCODING -1
SWIDTH 0 0
DWIDTH 0 0
BBX 2 1 1 13
BITMAP
C0
ENDCHAR
STARTCHAR uni0308.cap
ENCODING -1
SWIDTH 0 0
DWIDTH 0 0
BBX 5 1 0 13
BITMAP
D8
ENDCHAR
STARTCHAR uni0309.cap
ENCODING -1
SWIDTH 0 0
DWIDTH 0 0
BBX 3 3 1 13
BITMAP
C0
20
C0
ENDCHAR
STARTCHAR uni030A.cap
ENCODING -1
SWIDTH 0 0
DWIDTH 0 0
BBX 3 4 1 12
BITMAP
E0
A0
A0
E0
ENDCHAR
STARTCHAR uni030B.cap
ENCODING -1
SWIDTH 0 0
DWIDTH 0 0
BBX 5 3 1 13
BITMAP
48
E8
B0
ENDCHAR
STARTCHAR uni030C.cap
ENCODING -1
SWIDTH 0 0
DWIDTH 0 0
BBX 5 3 0 13
BITMAP
88
D8
60
ENDCHAR
STARTCHAR uni030F.cap
ENCODING -1
SWIDTH 0 0
DWIDTH 0 0
BBX 5 3 -1 13
BITMAP
90
50
48
ENDCHAR
STARTCHAR uni0327.cap
ENCODING -1
SWIDTH 0 0
DWIDTH 0 0
BBX 3 4 -2 -4
BITMAP
60
E0
20
C0
ENDCHAR
STARTCHAR uni0328.cap
ENCODING -1
SWIDTH 0 0
DWIDTH 0 0
BBX 3 4 -2 -4
BITMAP
60
80
80
E0
ENDCHAR
STARTCHAR uni03080304
ENCODING -1
SWIDTH 0 0
DWIDTH 0 0
BBX 5 3 0 11
BITMAP
F8
00
98
ENDCHAR
STARTCHAR uni03080304.cap
ENCODING -1
SWIDTH 0 0
DWIDTH 0 0
BBX 5 3 0 13
BITMAP
78
80
D8
ENDCHAR
STARTCHAR uni03080301
ENCODING -1
SWIDTH 0 0
DWIDTH 0 0
BBX 5 4 0 11
BITMAP
18
20
00
98
ENDCHAR
STARTCHAR uni03080301.cap
ENCODING -1
SWIDTH 0 0
DWIDTH 0 0
BBX 5 4 0 13
BITMAP
18
20
00
D8
ENDCHAR
STARTCHAR uni0308030C
ENCODING -1
SWIDTH 0 0
DWIDTH 0 0
BBX 5 4 0 11
BITMAP
C8
30
00
98
ENDCHAR
STARTCHAR uni0308030C.cap
ENCODING -1
SWIDTH 0 0
DWIDTH 0 0
BBX 5 4 0 13
BITMAP
48
30
00
D8
ENDCHAR
STARTCHAR uni03080300
ENCODING -1
SWIDTH 0 0
DWIDTH 0 0
BBX 5 4 0 11
BITMAP
40
20
00
98
ENDCHAR
STARTCHAR uni03080300.cap
ENCODING -1
SWIDTH 0 0
DWIDTH 0 0
BBX 5 4 0 13
BITMAP
60
20
00
D8
ENDCHAR
STARTCHAR uni03020301
ENCODING -1
SWIDTH 0 0
DWIDTH 0 0
BBX 7 3 0 11
BITMAP
06
7C
D8
ENDCHAR
STARTCHAR uni03020301.cap
ENCODING -1
SWIDTH 0 0
DWIDTH 0 0
BBX 7 3 0 13
BITMAP
04
7E
D8
ENDCHAR
STARTCHAR uni03020300
ENCODING -1
SWIDTH 0 0
DWIDTH 0 0
BBX 7 3 -2 11
BITMAP
C0
5C
36
ENDCHAR
STARTCHAR uni03020300.cap
ENCODING -1
SWIDTH 0 0
DWIDTH 0 0
BBX 6 3 -1 13
BITMAP
80
78
6C
ENDCHAR
STARTCHAR uni03020309
ENCODING -1
SWIDTH 0 0
DWIDTH 0 0
BBX 6 3 0 11
BITMAP
0C
74
DC
ENDCHAR
STARTCHAR uni03020309.cap
ENCODING -1
SWIDTH 0 0
DWIDTH 0 0
BBX 6 3 0 13
BITMAP
0C
74
DC
ENDCHAR
STARTCHAR uni03020303
ENCODING -1
SWIDTH 0 0
DWIDTH 0 0
BBX 5 4 0 10
BITMAP
F8
00
70
D8
ENDCHAR
STARTCHAR uni03020303.cap
ENCODING -1
SWIDTH 0 0
DWIDTH 0 0
BBX 6 4 0 13
BITMAP
64
98
70
D8
ENDCHAR
STARTCHAR uni03060301
ENCODING -1
SWIDTH 0 0
DWIDTH 0 0
BBX 5 5 0 10
BITMAP
18
20
88
88
70
ENDCHAR
STARTCHAR uni03060301.cap
ENCODING -1
SWIDTH 0 0
DWIDTH 0 0
BBX 5 4 0 13
BITMAP
18
A8
88
70
ENDCHAR
STARTCHAR uni03060300
ENCODING -1
SWIDTH 0 0
DWIDTH 0 0
BBX 5 5 0 10
BITMAP
40
20
88
88
70
ENDCHAR
STARTCHAR uni03060300.cap
ENCODING -1
SWIDTH 0 0
DWIDTH 0 0
BBX 5 4 0 13
BITMAP
60
A8
88
70
ENDCHAR
STARTCHAR uni03060309
ENCODING -1
SWIDTH 0 0
DWIDTH 0 0
BBX 5 5 0 10
BITMAP
30
10
A8
88
70
ENDCHAR
STARTCHAR uni03060309.cap
ENCODING -1
SWIDTH 0 0
DWIDTH 0 0
BBX 5 4 0 13
BITMAP
30
98
A8
70
ENDCHAR
STARTCHAR uni03060303
ENCODING -1
SWIDTH 0 0
DWIDTH 0 0
BBX 5 5 0 10
BITMAP
68
B8
00
88
F0
ENDCHAR
STARTCHAR uni03060303.cap
ENCODING -1
SWIDTH 0 0
DWIDTH 0 0
BBX 6 5 0 13
BITMAP
64
98
00
88
70
ENDCHAR
STARTCHAR uni030C.a
ENCODING -1
SWIDTH 0 0
DWIDTH 0 0
BBX 2 4 0 10
BITMAP
40
40
40
80
ENDCHAR
STARTCHAR uni0326.a
ENCODING -1
SWIDTH 0 0
DWIDTH 0 0
BBX 3 4 1 10
BITMAP
60
80
80
C0
ENDCHAR
STARTCHAR space.frac
ENCODING -1
SWIDTH 132 0
DWIDTH 2 0
BBX 1 1 0 0
BITMAP
00
ENDCHAR
STARTCHAR nbspace.frac
ENCODING -1
SWIDTH 132 0
DWIDTH 2 0
BBX 1 1 0 0
BITMAP
00
ENDCHAR
STARTCHAR uni03020306
ENCODING -1
SWIDTH 0 0
DWIDTH 0 0
BBX 5 5 0 10
BITMAP
88
70
00
60
90
ENDCHAR
STARTCHAR uni03020306.cap
ENCODING -1
SWIDTH 0 0
DWIDTH 0 0
BBX 5 4 0 13
BITMAP
48
78
70
D8
ENDCHAR
STARTCHAR zero.0
ENCODING -1
SWIDTH 480 0
DWIDTH 9 0
BBX 7 11 1 0
BITMAP
1C
22
42
42
9A
B2
82
86
84
C8
70
ENDCHAR
STARTCHAR zero.0s
ENCODING -1
SWIDTH 480 0
DWIDTH 9 0
BBX 7 11 1 0
BITMAP
1C
26
62
62
92
92
8A
8E
84
C8
70
ENDCHAR
STARTCHAR zero.0p
ENCODING -1
SWIDTH 504 0
DWIDTH 9 0
BBX 8 11 1 0
BITMAP
1C
22
43
43
DB
9B
82
82
84
CC
78
ENDCHAR
STARTCHAR zero.0ps
ENCODING -1
SWIDTH 504 0
DWIDTH 9 0
BBX 8 11 1 0
BITMAP
1C
22
63
63
D3
93
8A
8A
84
CC
78
ENDCHAR
STARTCHAR uni03040301
ENCODING -1
SWIDTH 0 0
DWIDTH 0 0
BBX 5 4 0 11
BITMAP
18
20
00
F8
ENDCHAR
STARTCHAR uni03040301.cap
ENCODING -1
SWIDTH 0 0
DWIDTH 0 0
BBX 5 4 0 13
BITMAP
18
20
00
F8
ENDCHAR
ENDFONT
